G04 DipTrace 2.3.1.0*
%INBottom Silk Screen.gbr*%
%MOIN*%
%ADD10C,0.0098*%
%ADD12C,0.003*%
%ADD18C,0.006*%
%ADD20C,0.008*%
%FSLAX44Y44*%
G04*
G70*
G90*
G75*
G01*
%LNBotSilk*%
%LPD*%
X11719Y9362D2*
D10*
Y9738D1*
X12226Y9314D2*
D18*
X12462D1*
X12226Y9786D2*
X12462D1*
G36*
X4090Y6895D2*
X4390D1*
Y7075D1*
X4090D1*
Y6895D1*
G37*
G36*
X2725Y3290D2*
X2905D1*
Y2990D1*
X2725D1*
Y3290D1*
G37*
G36*
X4085Y5410D2*
X4265D1*
Y5110D1*
X4085D1*
Y5410D1*
G37*
X4776Y10730D2*
D20*
Y4431D1*
X11076D2*
Y10730D1*
X7276Y6793D2*
X9245D1*
X7276D2*
Y5533D1*
X9245D1*
X8517Y8564D2*
Y7186D1*
X9894D1*
Y8564D1*
X8517D1*
X9245Y6793D2*
Y5533D1*
X2883Y6460D2*
D18*
X3403D1*
Y7580D1*
X2883D1*
Y6460D1*
X175Y6264D2*
D12*
X156Y6273D1*
X147Y6302D1*
Y6321D1*
X156Y6350D1*
X185Y6369D1*
X233Y6378D1*
X281D1*
X319Y6369D1*
X338Y6350D1*
X348Y6321D1*
Y6311D1*
X338Y6283D1*
X319Y6264D1*
X290Y6254D1*
X281D1*
X252Y6264D1*
X233Y6283D1*
X223Y6311D1*
Y6321D1*
X233Y6350D1*
X252Y6369D1*
X281Y6378D1*
X252Y6192D2*
Y6106D1*
X242Y6078D1*
X233Y6068D1*
X214Y6058D1*
X185D1*
X166Y6068D1*
X156Y6078D1*
X147Y6106D1*
Y6192D1*
X348D1*
Y5843D2*
X147Y5920D1*
X348Y5997D1*
X281Y5968D2*
Y5872D1*
X147Y5782D2*
X348D1*
Y5715D1*
X338Y5686D1*
X319Y5667D1*
X300Y5657D1*
X271Y5648D1*
X223D1*
X194Y5657D1*
X175Y5667D1*
X156Y5686D1*
X147Y5715D1*
Y5782D1*
X381Y5586D2*
Y5404D1*
X147Y5343D2*
X348D1*
X195Y5271D2*
X185D1*
X166Y5262D1*
X156Y5252D1*
X147Y5233D1*
Y5195D1*
X156Y5176D1*
X166Y5166D1*
X185Y5156D1*
X204D1*
X223Y5166D1*
X252Y5185D1*
X348Y5281D1*
Y5147D1*
X194Y4942D2*
X175Y4951D1*
X156Y4970D1*
X147Y4989D1*
Y5028D1*
X156Y5047D1*
X175Y5066D1*
X194Y5076D1*
X223Y5085D1*
X271D1*
X300Y5076D1*
X319Y5066D1*
X338Y5047D1*
X348Y5028D1*
Y4989D1*
X338Y4970D1*
X319Y4951D1*
X300Y4942D1*
X12453Y10079D2*
Y9878D1*
X12386D1*
X12357Y9888D1*
X12338Y9907D1*
X12328Y9926D1*
X12319Y9955D1*
Y10003D1*
X12328Y10031D1*
X12338Y10050D1*
X12357Y10070D1*
X12386Y10079D1*
X12453D1*
X12142D2*
X12238D1*
X12247Y9993D1*
X12238Y10002D1*
X12209Y10012D1*
X12180D1*
X12152Y10002D1*
X12132Y9983D1*
X12123Y9955D1*
Y9936D1*
X12132Y9907D1*
X12152Y9888D1*
X12180Y9878D1*
X12209D1*
X12238Y9888D1*
X12247Y9897D1*
X12257Y9916D1*
X4405Y7762D2*
X4319D1*
X4290Y7771D1*
X4280Y7781D1*
X4271Y7800D1*
Y7819D1*
X4280Y7838D1*
X4290Y7848D1*
X4319Y7857D1*
X4405D1*
Y7656D1*
X4338Y7762D2*
X4271Y7656D1*
X4199Y7809D2*
Y7819D1*
X4190Y7838D1*
X4180Y7848D1*
X4161Y7857D1*
X4123D1*
X4104Y7848D1*
X4094Y7838D1*
X4085Y7819D1*
Y7800D1*
X4094Y7781D1*
X4113Y7752D1*
X4209Y7656D1*
X4075D1*
X2984Y3724D2*
X2898D1*
X2870Y3734D1*
X2860Y3743D1*
X2850Y3762D1*
Y3782D1*
X2860Y3801D1*
X2870Y3810D1*
X2898Y3820D1*
X2984D1*
Y3619D1*
X2917Y3724D2*
X2850Y3619D1*
X2693D2*
Y3820D1*
X2789Y3686D1*
X2645D1*
X4339Y5844D2*
X4253D1*
X4225Y5854D1*
X4215Y5863D1*
X4206Y5882D1*
Y5902D1*
X4215Y5921D1*
X4225Y5930D1*
X4253Y5940D1*
X4339D1*
Y5739D1*
X4273Y5844D2*
X4206Y5739D1*
X4029Y5940D2*
X4125D1*
X4134Y5854D1*
X4125Y5863D1*
X4096Y5873D1*
X4067D1*
X4039Y5863D1*
X4019Y5844D1*
X4010Y5815D1*
Y5796D1*
X4019Y5768D1*
X4039Y5748D1*
X4067Y5739D1*
X4096D1*
X4125Y5748D1*
X4134Y5758D1*
X4144Y5777D1*
X5138Y14494D2*
X5157Y14513D1*
X5186Y14523D1*
X5224D1*
X5253Y14513D1*
X5272Y14494D1*
Y14475D1*
X5262Y14456D1*
X5253Y14446D1*
X5234Y14437D1*
X5176Y14418D1*
X5157Y14408D1*
X5147Y14398D1*
X5138Y14379D1*
Y14351D1*
X5157Y14332D1*
X5186Y14322D1*
X5224D1*
X5253Y14332D1*
X5272Y14351D1*
X5076Y14484D2*
X5057Y14494D1*
X5028Y14523D1*
Y14322D1*
X8091Y11417D2*
Y11273D1*
X8081Y11244D1*
X8062Y11225D1*
X8033Y11216D1*
X8014D1*
X7986Y11225D1*
X7966Y11244D1*
X7957Y11273D1*
Y11417D1*
X7885Y11369D2*
Y11378D1*
X7876Y11397D1*
X7866Y11407D1*
X7847Y11416D1*
X7809D1*
X7790Y11407D1*
X7780Y11397D1*
X7771Y11378D1*
Y11359D1*
X7780Y11340D1*
X7799Y11311D1*
X7895Y11216D1*
X7761D1*
X5315Y13063D2*
Y12919D1*
X5305Y12891D1*
X5286Y12872D1*
X5257Y12862D1*
X5238D1*
X5210Y12872D1*
X5190Y12891D1*
X5181Y12919D1*
Y13063D1*
X5004D2*
X5100D1*
X5109Y12977D1*
X5100Y12986D1*
X5071Y12996D1*
X5043D1*
X5014Y12986D1*
X4995Y12967D1*
X4985Y12938D1*
Y12919D1*
X4995Y12891D1*
X5014Y12871D1*
X5043Y12862D1*
X5071D1*
X5100Y12871D1*
X5109Y12881D1*
X5119Y12900D1*
X3308Y7884D2*
Y7740D1*
X3298Y7712D1*
X3279Y7693D1*
X3250Y7683D1*
X3231D1*
X3203Y7693D1*
X3183Y7712D1*
X3174Y7740D1*
Y7884D1*
X3074Y7683D2*
X2978Y7884D1*
X3112D1*
M02*
