G04 DipTrace 2.3.1.0*
%INBottom Layer.gbr*%
%MOIN*%
%ADD10C,0.0098*%
%ADD11C,0.0055*%
%ADD18C,0.006*%
%ADD19R,0.1181X0.063*%
%ADD20C,0.008*%
%ADD22C,0.002*%
%ADD23C,0.004*%
%ADD25R,0.0394X0.0433*%
%ADD26R,0.0433X0.0394*%
%ADD27R,0.0315X0.0472*%
%ADD31R,0.06X0.16*%
%ADD34C,0.001*%
%ADD35R,0.071X0.041*%
%ADD36R,0.049X0.024*%
%ADD41R,0.0551X0.0394*%
%FSLAX44Y44*%
G04*
G70*
G90*
G75*
G01*
%LNBotAssy*%
%LPD*%
X439Y8475D2*
D10*
X1621D1*
Y2845D1*
X439D1*
Y8475D1*
D19*
X1030Y6160D3*
Y7160D3*
Y8160D3*
Y5160D3*
Y4160D3*
Y3160D3*
X11719Y9362D2*
D10*
Y9738D1*
X12226Y9314D2*
D18*
X12462D1*
X12226Y9786D2*
X12462D1*
X11719D2*
D10*
X12856D1*
Y9314D1*
X11719D1*
Y9786D1*
D27*
X11990Y9550D3*
X12699D3*
X4627Y6405D2*
D22*
Y7565D1*
X3853D1*
Y6405D1*
X4627D1*
X4410Y6845D2*
D23*
Y7125D1*
X4075Y6845D2*
Y7125D1*
G36*
X4055Y6655D2*
X4429D1*
Y6851D1*
X4055D1*
Y6655D1*
G37*
G36*
Y7115D2*
X4429D1*
Y7311D1*
X4055D1*
Y7115D1*
G37*
G36*
X4090Y6895D2*
X4390D1*
Y7075D1*
X4090D1*
Y6895D1*
G37*
X3853Y7565D2*
D10*
X4627D1*
Y6405D1*
X3853D1*
Y7565D1*
D25*
X4240Y6650D3*
Y7319D3*
X2235Y2753D2*
D22*
X3395D1*
Y3527D1*
X2235D1*
Y2753D1*
X2675Y2970D2*
D23*
X2955D1*
X2675Y3305D2*
X2955D1*
G36*
X2485Y3325D2*
X2681D1*
Y2951D1*
X2485D1*
Y3325D1*
G37*
G36*
X2945D2*
X3141D1*
Y2951D1*
X2945D1*
Y3325D1*
G37*
G36*
X2725Y3290D2*
X2905D1*
Y2990D1*
X2725D1*
Y3290D1*
G37*
X2235Y3527D2*
D10*
X3395D1*
Y2753D1*
X2235D1*
Y3527D1*
D26*
X2480Y3140D3*
X3149D3*
X3595Y4873D2*
D22*
X4755D1*
Y5647D1*
X3595D1*
Y4873D1*
X4035Y5090D2*
D23*
X4315D1*
X4035Y5425D2*
X4315D1*
G36*
X3845Y5445D2*
X4041D1*
Y5071D1*
X3845D1*
Y5445D1*
G37*
G36*
X4305D2*
X4501D1*
Y5071D1*
X4305D1*
Y5445D1*
G37*
G36*
X4085Y5410D2*
X4265D1*
Y5110D1*
X4085D1*
Y5410D1*
G37*
X3595Y5647D2*
D10*
X4755D1*
Y4873D1*
X3595D1*
Y5647D1*
D26*
X3840Y5260D3*
X4509D3*
X3850Y14230D2*
D10*
X6450D1*
Y12630D1*
X3850D1*
Y14230D1*
D31*
X6150Y13430D3*
X5150D3*
X4150D3*
X4776Y10730D2*
D20*
Y4431D1*
X11076D2*
Y10730D1*
X7276Y6793D2*
X9245D1*
X7276D2*
Y5533D1*
X9245D1*
X8517Y8564D2*
Y7186D1*
X9894D1*
Y8564D1*
X8517D1*
X9245Y6793D2*
Y5533D1*
X4776Y10730D2*
X11076D1*
Y4431D2*
X4776D1*
Y11124D2*
D10*
X11076D1*
Y4037D1*
X4776D1*
Y11124D1*
G36*
X5426D2*
X4914D1*
Y10336D1*
X5426D1*
Y11124D1*
G37*
G36*
X6213D2*
X5701D1*
Y10336D1*
X6213D1*
Y11124D1*
G37*
G36*
X7001D2*
X6489D1*
Y10336D1*
X7001D1*
Y11124D1*
G37*
G36*
X7788D2*
X7276D1*
Y10336D1*
X7788D1*
Y11124D1*
G37*
G36*
X8576D2*
X8064D1*
Y10336D1*
X8576D1*
Y11124D1*
G37*
G36*
X9363D2*
X8851D1*
Y10336D1*
X9363D1*
Y11124D1*
G37*
G36*
X10150D2*
X9639D1*
Y10336D1*
X10150D1*
Y11124D1*
G37*
G36*
X10938D2*
X10426D1*
Y10336D1*
X10938D1*
Y11124D1*
G37*
G36*
Y4824D2*
X10426D1*
Y4037D1*
X10938D1*
Y4824D1*
G37*
G36*
X10150D2*
X9639D1*
Y4037D1*
X10150D1*
Y4824D1*
G37*
G36*
X9363D2*
X8851D1*
Y4037D1*
X9363D1*
Y4824D1*
G37*
G36*
X8576D2*
X8064D1*
Y4037D1*
X8576D1*
Y4824D1*
G37*
G36*
X7788D2*
X7276D1*
Y4037D1*
X7788D1*
Y4824D1*
G37*
G36*
X7001D2*
X6489D1*
Y4037D1*
X7001D1*
Y4824D1*
G37*
G36*
X6213D2*
X5701D1*
Y4037D1*
X6213D1*
Y4824D1*
G37*
G36*
X5426D2*
X4914D1*
Y4037D1*
X5426D1*
Y4824D1*
G37*
X4790Y12770D2*
D34*
X5510D1*
Y11070D1*
X4790D1*
Y12770D1*
X4535D2*
D10*
X5765D1*
Y11070D1*
X4535D1*
Y12770D1*
D35*
X5150Y12560D3*
Y11280D3*
D36*
X4780Y11920D3*
X5520D3*
X2883Y6460D2*
D18*
X3403D1*
Y7580D1*
X2883D1*
Y6460D1*
G36*
X2863Y7110D2*
X2633D1*
Y6930D1*
X2863D1*
Y7110D1*
G37*
G36*
X3653Y6740D2*
X3423D1*
Y6560D1*
X3653D1*
Y6740D1*
G37*
G36*
Y7480D2*
X3423D1*
Y7300D1*
X3653D1*
Y7480D1*
G37*
X2434Y7591D2*
D10*
X3852D1*
Y6449D1*
X2434D1*
Y7591D1*
D41*
X2710Y7020D3*
X3576Y6646D3*
Y7394D3*
G36*
X8819Y12113D2*
Y12687D1*
X9607D1*
Y12113D1*
X8819D1*
G37*
G36*
X9538Y12786D2*
X8819D1*
Y13061D1*
X9026D1*
Y14026D1*
X9538D1*
Y12786D1*
G37*
G36*
X11683Y13061D2*
X11890D1*
Y12786D1*
X11172D1*
Y14026D1*
X11683D1*
Y13061D1*
G37*
G36*
X11890Y12687D2*
Y12113D1*
X11103D1*
Y12687D1*
X11890D1*
G37*
X1438Y227D2*
D11*
X13249D1*
G03X14431Y1408I0J1181D01*
G01*
Y13219D1*
G03X13249Y14401I-1181J0D01*
G01*
X1438D1*
G03X257Y13219I0J-1181D01*
G01*
Y1408D1*
G03X1438Y227I1181J0D01*
G01*
M02*
