G04 DipTrace 2.3.1.0*
%INTop Solder Mask.gbr*%
%MOIN*%
%ADD21R,0.05X0.025*%
%ADD25R,0.0394X0.0433*%
%ADD26R,0.0433X0.0394*%
%ADD27R,0.0315X0.0472*%
%ADD28R,0.0472X0.0472*%
%ADD29R,0.025X0.05*%
%ADD30R,0.0217X0.0472*%
%ADD31R,0.06X0.16*%
%ADD32R,0.05X0.022*%
%ADD33R,0.022X0.05*%
%ADD47C,0.1181*%
%ADD51R,0.0236X0.0768*%
%ADD53R,0.064X0.1063*%
%ADD55R,0.1457X0.1457*%
%ADD59R,0.0669X0.0669*%
%ADD61O,0.0197X0.0413*%
%ADD63O,0.0413X0.0197*%
%ADD83R,0.0512X0.0472*%
%ADD85R,0.0472X0.0512*%
%ADD89R,0.126X0.0709*%
%FSLAX44Y44*%
G04*
G70*
G90*
G75*
G01*
%LNTopMask*%
%LPD*%
D21*
X2820Y4894D3*
Y4540D3*
D89*
X1030Y11550D3*
Y10550D3*
D25*
X1990Y10640D3*
Y11309D3*
X5480Y11420D3*
Y10751D3*
D26*
X12230Y8760D3*
X11561D3*
D25*
X5560Y7050D3*
Y7719D3*
X12160Y6340D3*
Y5671D3*
D26*
X2810Y5410D3*
X2141D3*
D25*
X7520Y10560D3*
Y11229D3*
X4210Y2110D3*
Y2779D3*
D27*
X5560Y5810D3*
X6269D3*
X6270Y3630D3*
X5561D3*
D85*
X12160Y11210D3*
Y10541D3*
X12790Y11640D3*
Y10971D3*
X13340Y11640D3*
Y10971D3*
D27*
X2890Y7140D3*
X2181D3*
D28*
X8920Y970D3*
X9747D3*
X8120D3*
X7293D3*
D83*
X3430Y2110D3*
X2761D3*
X2760Y2720D3*
X3429D3*
D28*
X1830Y9770D3*
X1003D3*
X1830Y9040D3*
X1003D3*
D29*
X4000Y7130D3*
X3646D3*
D47*
X1340Y1310D3*
Y13318D3*
X13348D3*
Y1310D3*
D21*
X2830Y3660D3*
Y3306D3*
D30*
X6800Y11570D3*
X6426D3*
X6052D3*
Y10546D3*
X6800D3*
D89*
X1020Y8160D3*
Y7160D3*
Y6160D3*
D25*
X7520Y8810D3*
Y9479D3*
D85*
X2710Y12270D3*
Y11601D3*
D26*
X8070Y1640D3*
X7401D3*
X8960Y1620D3*
X9629D3*
D25*
X6460Y7710D3*
Y7041D3*
D26*
X2090Y8240D3*
X2759D3*
X3730Y4140D3*
X4399D3*
D85*
X4410Y11610D3*
Y12279D3*
X5830Y8890D3*
Y9559D3*
X6540Y8890D3*
Y9559D3*
X8070Y12230D3*
Y12899D3*
X3360Y11590D3*
Y12259D3*
D89*
X1040Y3170D3*
Y4170D3*
Y5170D3*
D31*
X6150Y13430D3*
X4150D3*
D89*
X13660Y6790D3*
Y7790D3*
Y8790D3*
D32*
X7760Y7290D3*
Y6975D3*
Y6660D3*
Y6345D3*
Y6030D3*
Y5715D3*
Y5400D3*
Y5085D3*
D33*
X8348Y4498D3*
X8663D3*
X8978D3*
X9293D3*
X9607D3*
X9922D3*
X10237D3*
X10552D3*
D32*
X11140Y5085D3*
Y5400D3*
Y5715D3*
Y6030D3*
Y6345D3*
Y6660D3*
Y6975D3*
Y7290D3*
D33*
X10552Y7878D3*
X10237D3*
X9922D3*
X9607D3*
X9293D3*
X8978D3*
X8663D3*
X8348D3*
D63*
X3090Y10560D3*
Y10363D3*
Y10166D3*
Y9969D3*
D61*
X3366Y9694D3*
X3562D3*
X3759D3*
X3956D3*
D63*
X4232Y9969D3*
Y10166D3*
Y10363D3*
Y10560D3*
D61*
X3956Y10836D3*
X3759D3*
X3562D3*
X3366D3*
D59*
X3661Y10265D3*
D63*
X10520Y9680D3*
Y9877D3*
Y10074D3*
Y10271D3*
Y10467D3*
Y10664D3*
Y10861D3*
D61*
X10126Y11255D3*
X9929D3*
X9733D3*
X9536D3*
X9339D3*
X9142D3*
X8945D3*
D63*
X8551Y10861D3*
Y10664D3*
Y10467D3*
Y10271D3*
Y10074D3*
Y9877D3*
Y9680D3*
D61*
X8945Y9286D3*
X9142D3*
X9339D3*
X9536D3*
X9733D3*
X9929D3*
X10126D3*
D55*
X9536Y10271D3*
G36*
X8780Y12073D2*
Y12727D1*
X9646D1*
Y12073D1*
X8780D1*
G37*
G36*
X9577Y12746D2*
X8780D1*
Y13101D1*
X8987D1*
Y14065D1*
X9577D1*
Y12746D1*
G37*
G36*
X11723Y13101D2*
X11930D1*
Y12746D1*
X11132D1*
Y14065D1*
X11723D1*
Y13101D1*
G37*
D53*
X10745Y13703D3*
X9965D3*
D51*
X10355Y12481D3*
X10099D3*
X10611D3*
X9843D3*
X10867D3*
G36*
X11930Y12727D2*
Y12073D1*
X11063D1*
Y12727D1*
X11930D1*
G37*
G36*
X5974Y5456D2*
X6446D1*
Y4904D1*
X5974D1*
Y5456D1*
G37*
G36*
X5344D2*
X5816D1*
Y4904D1*
X5344D1*
Y5456D1*
G37*
G36*
Y4589D2*
X5816D1*
Y4038D1*
X5344D1*
Y4589D1*
G37*
G36*
X5974D2*
X6446D1*
Y4038D1*
X5974D1*
Y4589D1*
G37*
M02*
