G04 DipTrace 2.3.1.0*
%INTop Layer.gbr*%
%MOIN*%
%ADD10C,0.0098*%
%ADD11C,0.0055*%
%ADD12C,0.003*%
%ADD18C,0.006*%
%ADD19R,0.1181X0.063*%
%ADD20C,0.008*%
%ADD21R,0.05X0.025*%
%ADD22C,0.002*%
%ADD23C,0.004*%
%ADD24C,0.022*%
%ADD25R,0.0394X0.0433*%
%ADD26R,0.0433X0.0394*%
%ADD27R,0.0315X0.0472*%
%ADD28R,0.0472X0.0472*%
%ADD29R,0.025X0.05*%
%ADD30R,0.0217X0.0472*%
%ADD31R,0.06X0.16*%
%ADD32R,0.05X0.022*%
%ADD33R,0.022X0.05*%
%ADD34C,0.001*%
%ADD35R,0.071X0.041*%
%ADD36R,0.049X0.024*%
%ADD37C,0.0118*%
%ADD38O,0.0335X0.0118*%
%ADD39O,0.0118X0.0335*%
%ADD40R,0.0591X0.0591*%
%ADD41R,0.0551X0.0394*%
%ADD42R,0.1378X0.1378*%
%ADD43R,0.0561X0.0984*%
%ADD44R,0.0157X0.0689*%
%ADD45C,0.005*%
%ADD47C,0.1181*%
%ADD51R,0.0236X0.0768*%
%ADD53R,0.064X0.1063*%
%ADD55R,0.1457X0.1457*%
%ADD59R,0.0669X0.0669*%
%ADD61O,0.0197X0.0413*%
%ADD63O,0.0413X0.0197*%
%ADD65R,0.0569X0.0319*%
%ADD67R,0.0789X0.0489*%
%ADD83R,0.0512X0.0472*%
%ADD85R,0.0472X0.0512*%
%ADD89R,0.126X0.0709*%
%ADD91C,0.0015*%
%FSLAX44Y44*%
G04*
G70*
G90*
G75*
G01*
%LNTopAssy*%
%LPD*%
X2426Y4402D2*
D20*
Y5032D1*
X3214Y4402D2*
G02X3096Y4323I-99J20D01*
G01*
Y5111D2*
G02X3214Y5032I20J-99D01*
G01*
X2544Y5111D2*
G03X2426Y5032I-20J-99D01*
G01*
Y4402D2*
G03X2544Y4323I99J20D01*
G01*
X3214Y5032D2*
Y4402D1*
X2426Y5113D2*
D10*
X3214D1*
Y4321D1*
X2426D1*
Y5113D1*
D21*
X2820Y4894D3*
Y4540D3*
X439Y11865D2*
D10*
X1621D1*
Y10235D1*
X439D1*
Y11865D1*
D19*
X1030Y11550D3*
Y10550D3*
X1820Y10835D2*
D23*
Y11115D1*
X2155Y10835D2*
Y11115D1*
X1978Y10975D2*
D24*
X2002D1*
G36*
X2175Y10645D2*
X1801D1*
Y10841D1*
X2175D1*
Y10645D1*
G37*
G36*
Y11105D2*
X1801D1*
Y11301D1*
X2175D1*
Y11105D1*
G37*
X1603Y11555D2*
D10*
X2377D1*
Y10395D1*
X1603D1*
Y11555D1*
D25*
X1990Y10640D3*
Y11309D3*
X5650Y11225D2*
D23*
Y10945D1*
X5315Y11225D2*
Y10945D1*
X5492Y11085D2*
D24*
X5468D1*
G36*
X5295Y11415D2*
X5669D1*
Y11219D1*
X5295D1*
Y11415D1*
G37*
G36*
Y10955D2*
X5669D1*
Y10759D1*
X5295D1*
Y10955D1*
G37*
X5093Y11665D2*
D10*
X5867D1*
Y10505D1*
X5093D1*
Y11665D1*
D25*
X5480Y11420D3*
Y10751D3*
X12035Y8590D2*
D23*
X11755D1*
X12035Y8925D2*
X11755D1*
X11895Y8748D2*
D24*
Y8772D1*
G36*
X12225Y8945D2*
X12029D1*
Y8571D1*
X12225D1*
Y8945D1*
G37*
G36*
X11765D2*
X11569D1*
Y8571D1*
X11765D1*
Y8945D1*
G37*
X11315Y9147D2*
D10*
X12475D1*
Y8373D1*
X11315D1*
Y9147D1*
D26*
X12230Y8760D3*
X11561D3*
X5390Y7245D2*
D23*
Y7525D1*
X5725Y7245D2*
Y7525D1*
X5548Y7385D2*
D24*
X5572D1*
G36*
X5745Y7055D2*
X5371D1*
Y7251D1*
X5745D1*
Y7055D1*
G37*
G36*
Y7515D2*
X5371D1*
Y7711D1*
X5745D1*
Y7515D1*
G37*
X5173Y7965D2*
D10*
X5947D1*
Y6805D1*
X5173D1*
Y7965D1*
D25*
X5560Y7050D3*
Y7719D3*
X12330Y6145D2*
D23*
Y5865D1*
X11995Y6145D2*
Y5865D1*
X12172Y6005D2*
D24*
X12148D1*
G36*
X11975Y6335D2*
X12349D1*
Y6139D1*
X11975D1*
Y6335D1*
G37*
G36*
Y5875D2*
X12349D1*
Y5679D1*
X11975D1*
Y5875D1*
G37*
X11773Y6585D2*
D10*
X12547D1*
Y5425D1*
X11773D1*
Y6585D1*
D25*
X12160Y6340D3*
Y5671D3*
X2615Y5240D2*
D23*
X2335D1*
X2615Y5575D2*
X2335D1*
X2475Y5398D2*
D24*
Y5422D1*
G36*
X2805Y5595D2*
X2609D1*
Y5221D1*
X2805D1*
Y5595D1*
G37*
G36*
X2345D2*
X2149D1*
Y5221D1*
X2345D1*
Y5595D1*
G37*
X1895Y5797D2*
D10*
X3055D1*
Y5023D1*
X1895D1*
Y5797D1*
D26*
X2810Y5410D3*
X2141D3*
X7350Y10755D2*
D23*
Y11035D1*
X7685Y10755D2*
Y11035D1*
X7508Y10895D2*
D24*
X7532D1*
G36*
X7705Y10565D2*
X7331D1*
Y10761D1*
X7705D1*
Y10565D1*
G37*
G36*
Y11025D2*
X7331D1*
Y11221D1*
X7705D1*
Y11025D1*
G37*
X7133Y11475D2*
D10*
X7907D1*
Y10315D1*
X7133D1*
Y11475D1*
D25*
X7520Y10560D3*
Y11229D3*
X4040Y2305D2*
D23*
Y2585D1*
X4375Y2305D2*
Y2585D1*
X4198Y2445D2*
D24*
X4222D1*
G36*
X4395Y2115D2*
X4021D1*
Y2311D1*
X4395D1*
Y2115D1*
G37*
G36*
Y2575D2*
X4021D1*
Y2771D1*
X4395D1*
Y2575D1*
G37*
X3823Y3025D2*
D10*
X4597D1*
Y1865D1*
X3823D1*
Y3025D1*
D25*
X4210Y2110D3*
Y2779D3*
X5796Y6046D2*
D18*
X6032D1*
X5796Y5574D2*
X6032D1*
X5403Y6046D2*
D10*
X6426D1*
Y5574D1*
X5403D1*
Y6046D1*
D27*
X5560Y5810D3*
X6269D3*
X6034Y3394D2*
D18*
X5798D1*
X6034Y3866D2*
X5798D1*
X5404D2*
D10*
X6427D1*
Y3394D1*
X5404D1*
Y3866D1*
D27*
X6270Y3630D3*
X5561D3*
X11963Y11427D2*
D10*
X12357D1*
Y10324D1*
X11963D1*
Y11427D1*
D25*
X12160Y11210D3*
Y10541D3*
X12593Y11857D2*
D10*
X12987D1*
Y10754D1*
X12593D1*
Y11857D1*
D25*
X12790Y11640D3*
Y10971D3*
X13143Y11857D2*
D10*
X13537D1*
Y10754D1*
X13143D1*
Y11857D1*
D25*
X13340Y11640D3*
Y10971D3*
X3161Y6952D2*
D10*
Y7328D1*
X2654Y6904D2*
D18*
X2418D1*
X2654Y7376D2*
X2418D1*
X2024D2*
D10*
X3161D1*
Y6904D1*
X2024D1*
Y7376D1*
D27*
X2890Y7140D3*
X2181D3*
X9156Y724D2*
D23*
X9511D1*
X9156Y1216D2*
X9520D1*
G36*
X9333Y704D2*
X9215D1*
Y763D1*
X9333D1*
Y704D1*
G37*
G36*
Y1177D2*
X9215D1*
Y1236D1*
X9333D1*
Y1177D1*
G37*
G36*
Y911D2*
X9215D1*
Y1029D1*
X9333D1*
Y911D1*
G37*
G36*
X9156Y704D2*
X8920D1*
Y1236D1*
X9156D1*
Y704D1*
G37*
G36*
X9747D2*
X9511D1*
Y1236D1*
X9747D1*
Y704D1*
G37*
X8684Y1236D2*
D10*
X9983D1*
Y704D1*
X8684D1*
Y1236D1*
D28*
X8920Y970D3*
X9747D3*
X7884Y1216D2*
D23*
X7529D1*
X7884Y724D2*
X7520D1*
G36*
X7707Y1236D2*
X7825D1*
Y1177D1*
X7707D1*
Y1236D1*
G37*
G36*
Y763D2*
X7825D1*
Y704D1*
X7707D1*
Y763D1*
G37*
G36*
Y1029D2*
X7825D1*
Y911D1*
X7707D1*
Y1029D1*
G37*
G36*
X7884Y1236D2*
X8120D1*
Y704D1*
X7884D1*
Y1236D1*
G37*
G36*
X7293D2*
X7529D1*
Y704D1*
X7293D1*
Y1236D1*
G37*
X7057D2*
D10*
X8356D1*
Y704D1*
X7057D1*
Y1236D1*
D28*
X8120Y970D3*
X7293D3*
X3765Y2267D2*
D10*
Y1953D1*
X2544Y2307D2*
X3765D1*
Y1913D1*
X2544D1*
Y2307D1*
D26*
X3430Y2110D3*
X2761D3*
X2425Y2563D2*
D10*
Y2877D1*
Y2917D2*
X3646D1*
Y2523D1*
X2425D1*
Y2917D1*
D26*
X2760Y2720D3*
X3429D3*
X1594Y10016D2*
D23*
X1239D1*
X1594Y9524D2*
X1230D1*
G36*
X1417Y10036D2*
X1535D1*
Y9977D1*
X1417D1*
Y10036D1*
G37*
G36*
Y9563D2*
X1535D1*
Y9504D1*
X1417D1*
Y9563D1*
G37*
G36*
Y9829D2*
X1535D1*
Y9711D1*
X1417D1*
Y9829D1*
G37*
G36*
X1594Y10036D2*
X1830D1*
Y9504D1*
X1594D1*
Y10036D1*
G37*
G36*
X1003D2*
X1239D1*
Y9504D1*
X1003D1*
Y10036D1*
G37*
X767D2*
D10*
X2066D1*
Y9504D1*
X767D1*
Y10036D1*
D28*
X1830Y9770D3*
X1003D3*
X1594Y9286D2*
D23*
X1239D1*
X1594Y8794D2*
X1230D1*
G36*
X1417Y9306D2*
X1535D1*
Y9247D1*
X1417D1*
Y9306D1*
G37*
G36*
Y8833D2*
X1535D1*
Y8774D1*
X1417D1*
Y8833D1*
G37*
G36*
Y9099D2*
X1535D1*
Y8981D1*
X1417D1*
Y9099D1*
G37*
G36*
X1594Y9306D2*
X1830D1*
Y8774D1*
X1594D1*
Y9306D1*
G37*
G36*
X1003D2*
X1239D1*
Y8774D1*
X1003D1*
Y9306D1*
G37*
X767D2*
D10*
X2066D1*
Y8774D1*
X767D1*
Y9306D1*
D28*
X1830Y9040D3*
X1003D3*
X3508Y7524D2*
D20*
X4138D1*
X3508Y6736D2*
G02X3429Y6854I20J99D01*
G01*
X4217D2*
G02X4138Y6736I-99J-20D01*
G01*
X4217Y7406D2*
G03X4138Y7524I-99J20D01*
G01*
X3508D2*
G03X3429Y7406I20J-99D01*
G01*
X4138Y6736D2*
X3508D1*
X3427Y7524D2*
D10*
X4219D1*
Y6736D1*
X3427D1*
Y7524D1*
D29*
X4000Y7130D3*
X3646D3*
X2436Y3168D2*
D20*
Y3798D1*
X3224Y3168D2*
G02X3106Y3089I-99J20D01*
G01*
Y3877D2*
G02X3224Y3798I20J-99D01*
G01*
X2554Y3877D2*
G03X2436Y3798I-20J-99D01*
G01*
Y3168D2*
G03X2554Y3089I99J20D01*
G01*
X3224Y3798D2*
Y3168D1*
X2436Y3879D2*
D10*
X3224D1*
Y3087D1*
X2436D1*
Y3879D1*
D21*
X2830Y3660D3*
Y3306D3*
X5866Y10889D2*
D20*
Y11227D1*
X5875Y11373D2*
D18*
X6977D1*
X6986Y11227D2*
D20*
Y10889D1*
X6977Y10743D2*
D18*
X5875D1*
X6532Y10739D2*
D20*
X6320D1*
X5875Y10743D2*
D18*
Y11373D1*
X6977Y10743D2*
Y11373D1*
G36*
X6898Y11649D2*
X6702D1*
Y11393D1*
X6898D1*
Y11649D1*
G37*
G36*
X6524D2*
X6328D1*
Y11393D1*
X6524D1*
Y11649D1*
G37*
G36*
X6150D2*
X5954D1*
Y11393D1*
X6150D1*
Y11649D1*
G37*
G36*
Y10724D2*
X5954D1*
Y10468D1*
X6150D1*
Y10724D1*
G37*
G36*
X6898D2*
X6702D1*
Y10468D1*
X6898D1*
Y10724D1*
G37*
X5866Y11806D2*
D10*
X6986D1*
Y10310D1*
X5866D1*
Y11806D1*
D30*
X6800Y11570D3*
X6426D3*
X6052D3*
Y10546D3*
X6800D3*
X429Y8475D2*
D10*
X1611D1*
Y5845D1*
X429D1*
Y8475D1*
D19*
X1020Y8160D3*
Y7160D3*
Y6160D3*
X7350Y9005D2*
D23*
Y9285D1*
X7685Y9005D2*
Y9285D1*
G36*
X7705Y8815D2*
X7331D1*
Y9011D1*
X7705D1*
Y8815D1*
G37*
G36*
Y9275D2*
X7331D1*
Y9471D1*
X7705D1*
Y9275D1*
G37*
G36*
X7670Y9055D2*
X7370D1*
Y9235D1*
X7670D1*
Y9055D1*
G37*
X7133Y9725D2*
D10*
X7907D1*
Y8565D1*
X7133D1*
Y9725D1*
D25*
X7520Y8810D3*
Y9479D3*
X2513Y12487D2*
D10*
X2907D1*
Y11384D1*
X2513D1*
Y12487D1*
D25*
X2710Y12270D3*
Y11601D3*
X7875Y1470D2*
D23*
X7595D1*
X7875Y1805D2*
X7595D1*
G36*
X8065Y1825D2*
X7869D1*
Y1451D1*
X8065D1*
Y1825D1*
G37*
G36*
X7605D2*
X7409D1*
Y1451D1*
X7605D1*
Y1825D1*
G37*
G36*
X7825Y1790D2*
X7645D1*
Y1490D1*
X7825D1*
Y1790D1*
G37*
X7155Y2027D2*
D10*
X8315D1*
Y1253D1*
X7155D1*
Y2027D1*
D26*
X8070Y1640D3*
X7401D3*
X9155Y1790D2*
D23*
X9435D1*
X9155Y1455D2*
X9435D1*
G36*
X8965Y1435D2*
X9161D1*
Y1809D1*
X8965D1*
Y1435D1*
G37*
G36*
X9425D2*
X9621D1*
Y1809D1*
X9425D1*
Y1435D1*
G37*
G36*
X9205Y1470D2*
X9385D1*
Y1770D1*
X9205D1*
Y1470D1*
G37*
X8715Y2007D2*
D10*
X9875D1*
Y1233D1*
X8715D1*
Y2007D1*
D26*
X8960Y1620D3*
X9629D3*
X6630Y7515D2*
D23*
Y7235D1*
X6295Y7515D2*
Y7235D1*
G36*
X6275Y7705D2*
X6649D1*
Y7509D1*
X6275D1*
Y7705D1*
G37*
G36*
Y7245D2*
X6649D1*
Y7049D1*
X6275D1*
Y7245D1*
G37*
G36*
X6310Y7465D2*
X6610D1*
Y7285D1*
X6310D1*
Y7465D1*
G37*
X6073Y7955D2*
D10*
X6847D1*
Y6795D1*
X6073D1*
Y7955D1*
D25*
X6460Y7710D3*
Y7041D3*
X2285Y8410D2*
D23*
X2565D1*
X2285Y8075D2*
X2565D1*
G36*
X2095Y8055D2*
X2291D1*
Y8429D1*
X2095D1*
Y8055D1*
G37*
G36*
X2555D2*
X2751D1*
Y8429D1*
X2555D1*
Y8055D1*
G37*
G36*
X2335Y8090D2*
X2515D1*
Y8390D1*
X2335D1*
Y8090D1*
G37*
X1845Y8627D2*
D10*
X3005D1*
Y7853D1*
X1845D1*
Y8627D1*
D26*
X2090Y8240D3*
X2759D3*
X3925Y4310D2*
D23*
X4205D1*
X3925Y3975D2*
X4205D1*
G36*
X3735Y3955D2*
X3931D1*
Y4329D1*
X3735D1*
Y3955D1*
G37*
G36*
X4195D2*
X4391D1*
Y4329D1*
X4195D1*
Y3955D1*
G37*
G36*
X3975Y3990D2*
X4155D1*
Y4290D1*
X3975D1*
Y3990D1*
G37*
X3485Y4527D2*
D10*
X4645D1*
Y3753D1*
X3485D1*
Y4527D1*
D26*
X3730Y4140D3*
X4399D3*
X4213Y12496D2*
D10*
X4607D1*
Y11393D1*
X4213D1*
Y12496D1*
D25*
X4410Y11610D3*
Y12279D3*
X5633Y9776D2*
D10*
X6027D1*
Y8673D1*
X5633D1*
Y9776D1*
D25*
X5830Y8890D3*
Y9559D3*
X6343Y9776D2*
D10*
X6737D1*
Y8673D1*
X6343D1*
Y9776D1*
D25*
X6540Y8890D3*
Y9559D3*
X7873Y13116D2*
D10*
X8267D1*
Y12013D1*
X7873D1*
Y13116D1*
D25*
X8070Y12230D3*
Y12899D3*
X3163Y12476D2*
D10*
X3557D1*
Y11373D1*
X3163D1*
Y12476D1*
D25*
X3360Y11590D3*
Y12259D3*
X449Y5485D2*
D10*
X1631D1*
Y2855D1*
X449D1*
Y5485D1*
D19*
X1040Y3170D3*
Y4170D3*
Y5170D3*
D31*
X6150Y13430D3*
X4150D3*
X13069Y9105D2*
D10*
X14251D1*
Y6475D1*
X13069D1*
Y9105D1*
D19*
X13660Y6790D3*
Y7790D3*
Y8790D3*
X10830Y7568D2*
D18*
Y4808D1*
X8070D1*
Y7428D1*
X8210Y7568D2*
X10830D1*
X8210D2*
X8070Y7428D1*
X8229Y7268D2*
G02X8229Y7268I141J0D01*
G01*
G36*
X7660Y7200D2*
X8050D1*
Y7380D1*
X7660D1*
Y7200D1*
G37*
G36*
Y6885D2*
X8050D1*
Y7065D1*
X7660D1*
Y6885D1*
G37*
G36*
Y6570D2*
X8050D1*
Y6750D1*
X7660D1*
Y6570D1*
G37*
G36*
Y6255D2*
X8050D1*
Y6435D1*
X7660D1*
Y6255D1*
G37*
G36*
Y5940D2*
X8050D1*
Y6121D1*
X7660D1*
Y5940D1*
G37*
G36*
Y5625D2*
X8050D1*
Y5805D1*
X7660D1*
Y5625D1*
G37*
G36*
Y5310D2*
X8050D1*
Y5490D1*
X7660D1*
Y5310D1*
G37*
G36*
Y4995D2*
X8050D1*
Y5175D1*
X7660D1*
Y4995D1*
G37*
G36*
X8258Y4398D2*
X8438D1*
Y4787D1*
X8258D1*
Y4398D1*
G37*
G36*
X8573D2*
X8753D1*
Y4787D1*
X8573D1*
Y4398D1*
G37*
G36*
X8887D2*
X9068D1*
Y4787D1*
X8887D1*
Y4398D1*
G37*
G36*
X9202D2*
X9383D1*
Y4787D1*
X9202D1*
Y4398D1*
G37*
G36*
X9517D2*
X9698D1*
Y4787D1*
X9517D1*
Y4398D1*
G37*
G36*
X9832D2*
X10013D1*
Y4787D1*
X9832D1*
Y4398D1*
G37*
G36*
X10147D2*
X10327D1*
Y4787D1*
X10147D1*
Y4398D1*
G37*
G36*
X10462D2*
X10642D1*
Y4787D1*
X10462D1*
Y4398D1*
G37*
G36*
X10850Y4995D2*
X11240D1*
Y5175D1*
X10850D1*
Y4995D1*
G37*
G36*
Y5310D2*
X11240D1*
Y5490D1*
X10850D1*
Y5310D1*
G37*
G36*
Y5625D2*
X11240D1*
Y5805D1*
X10850D1*
Y5625D1*
G37*
G36*
Y5940D2*
X11240D1*
Y6121D1*
X10850D1*
Y5940D1*
G37*
G36*
Y6255D2*
X11240D1*
Y6435D1*
X10850D1*
Y6255D1*
G37*
G36*
Y6570D2*
X11240D1*
Y6750D1*
X10850D1*
Y6570D1*
G37*
G36*
Y6885D2*
X11240D1*
Y7065D1*
X10850D1*
Y6885D1*
G37*
G36*
Y7200D2*
X11240D1*
Y7380D1*
X10850D1*
Y7200D1*
G37*
G36*
X10462Y7588D2*
X10642D1*
Y7977D1*
X10462D1*
Y7588D1*
G37*
G36*
X10147D2*
X10327D1*
Y7977D1*
X10147D1*
Y7588D1*
G37*
G36*
X9832D2*
X10013D1*
Y7977D1*
X9832D1*
Y7588D1*
G37*
G36*
X9517D2*
X9698D1*
Y7977D1*
X9517D1*
Y7588D1*
G37*
G36*
X9202D2*
X9383D1*
Y7977D1*
X9202D1*
Y7588D1*
G37*
G36*
X8887D2*
X9068D1*
Y7977D1*
X8887D1*
Y7588D1*
G37*
G36*
X8573D2*
X8753D1*
Y7977D1*
X8573D1*
Y7588D1*
G37*
G36*
X8258D2*
X8438D1*
Y7977D1*
X8258D1*
Y7588D1*
G37*
X7510Y8128D2*
D10*
X11390D1*
Y4248D1*
X7510D1*
Y8128D1*
D32*
X7760Y7290D3*
Y6975D3*
Y6660D3*
Y6345D3*
Y6030D3*
Y5715D3*
Y5400D3*
Y5085D3*
D33*
X8348Y4498D3*
X8663D3*
X8978D3*
X9293D3*
X9607D3*
X9922D3*
X10237D3*
X10552D3*
D32*
X11140Y5085D3*
Y5400D3*
Y5715D3*
Y6030D3*
Y6345D3*
Y6660D3*
Y6975D3*
Y7290D3*
D33*
X10552Y7878D3*
X10237D3*
X9922D3*
X9607D3*
X9293D3*
X8978D3*
X8663D3*
X8348D3*
X4133Y10855D2*
D10*
X4251D1*
Y10737D1*
X4133Y9674D2*
X4251D1*
Y9792D2*
Y9674D1*
X3070D2*
X3188D1*
X3070Y9792D2*
Y9674D1*
D37*
X2814Y10560D3*
X3188Y10855D2*
D10*
X3070Y10737D1*
X2755Y11003D2*
X4399D1*
Y9527D1*
X2755D1*
Y11003D1*
D38*
X3090Y10560D3*
Y10363D3*
Y10166D3*
Y9969D3*
D39*
X3366Y9694D3*
X3562D3*
X3759D3*
X3956D3*
D38*
X4232Y9969D3*
Y10166D3*
Y10363D3*
Y10560D3*
D39*
X3956Y10836D3*
X3759D3*
X3562D3*
X3366D3*
D40*
X3661Y10265D3*
X8748Y9286D2*
D10*
X8551D1*
Y9483D1*
X8748Y11255D2*
X8551D1*
Y11058D2*
Y11255D1*
X10520D2*
X10323D1*
X10520Y11058D2*
Y11255D1*
D37*
X10815Y9680D3*
X10323Y9286D2*
D10*
X10520Y9483D1*
X8384Y11422D2*
X10873D1*
Y9119D1*
X8384D1*
Y11422D1*
D38*
X10520Y9680D3*
Y9877D3*
Y10074D3*
Y10271D3*
Y10467D3*
Y10664D3*
Y10861D3*
D39*
X10126Y11255D3*
X9929D3*
X9733D3*
X9536D3*
X9339D3*
X9142D3*
X8945D3*
D38*
X8551Y10861D3*
Y10664D3*
Y10467D3*
Y10271D3*
Y10074D3*
Y9877D3*
Y9680D3*
D39*
X8945Y9286D3*
X9142D3*
X9339D3*
X9536D3*
X9733D3*
X9929D3*
X10126D3*
D42*
X9536Y10271D3*
X11831Y12294D2*
D23*
X8878D1*
Y14262D1*
X11831D1*
Y12294D1*
X8819Y14443D2*
D10*
X11890D1*
Y12113D1*
X8819D1*
Y14443D1*
G36*
Y12113D2*
Y12687D1*
X9607D1*
Y12113D1*
X8819D1*
G37*
G36*
X9538Y12786D2*
X8819D1*
Y13061D1*
X9026D1*
Y14026D1*
X9538D1*
Y12786D1*
G37*
G36*
X11683Y13061D2*
X11890D1*
Y12786D1*
X11172D1*
Y14026D1*
X11683D1*
Y13061D1*
G37*
D43*
X10745Y13703D3*
X9965D3*
D44*
X10355Y12481D3*
X10099D3*
X10611D3*
X9843D3*
X10867D3*
G36*
X11890Y12687D2*
Y12113D1*
X11103D1*
Y12687D1*
X11890D1*
G37*
X6368Y5377D2*
D45*
X5423D1*
Y4117D1*
X6368D1*
Y5377D1*
X6164Y5298D2*
G02X6289Y5173I0J-125D01*
G01*
Y4321D1*
G02X6164Y4196I-125J0D01*
G01*
X5626D1*
G02X5501Y4321I0J125D01*
G01*
Y5173D1*
G02X5626Y5298I125J0D01*
G01*
X6164D1*
X5344Y5456D2*
D10*
X6446D1*
Y4038D1*
X5344D1*
Y5456D1*
G36*
X5974D2*
X6446D1*
Y4904D1*
X5974D1*
Y5456D1*
G37*
G36*
X5344D2*
X5816D1*
Y4904D1*
X5344D1*
Y5456D1*
G37*
G36*
Y4589D2*
X5816D1*
Y4038D1*
X5344D1*
Y4589D1*
G37*
G36*
X5974D2*
X6446D1*
Y4038D1*
X5974D1*
Y4589D1*
G37*
X2334Y3992D2*
D12*
X2133Y3915D1*
X2334Y3839D1*
X2267Y3867D2*
Y3963D1*
X2133Y4188D2*
X2334D1*
X2133Y4054D1*
X2334D1*
Y4403D2*
X2133Y4326D1*
X2334Y4249D1*
X2267Y4278D2*
Y4374D1*
X2133Y4464D2*
X2334D1*
Y4579D1*
X2133Y4698D2*
X2143Y4679D1*
X2162Y4660D1*
X2181Y4650D1*
X2210Y4641D1*
X2258D1*
X2286Y4650D1*
X2306Y4660D1*
X2325Y4679D1*
X2334Y4698D1*
Y4737D1*
X2325Y4756D1*
X2306Y4775D1*
X2286Y4784D1*
X2258Y4794D1*
X2210D1*
X2181Y4784D1*
X2162Y4775D1*
X2143Y4756D1*
X2133Y4737D1*
Y4698D1*
X2181Y4999D2*
X2162Y4989D1*
X2143Y4970D1*
X2133Y4951D1*
Y4913D1*
X2143Y4894D1*
X2162Y4875D1*
X2181Y4865D1*
X2210Y4856D1*
X2258D1*
X2286Y4865D1*
X2306Y4875D1*
X2325Y4894D1*
X2334Y4913D1*
Y4951D1*
X2325Y4970D1*
X2306Y4989D1*
X2286Y4999D1*
X2258D1*
Y4951D1*
X2368Y5061D2*
Y5242D1*
X2133Y5400D2*
X2286D1*
X2315Y5390D1*
X2325Y5381D1*
X2334Y5362D1*
Y5342D1*
X2325Y5323D1*
X2315Y5314D1*
X2286Y5304D1*
X2267D1*
X2239Y5462D2*
Y5548D1*
X2229Y5576D1*
X2219Y5586D1*
X2200Y5596D1*
X2172D1*
X2153Y5586D1*
X2143Y5576D1*
X2133Y5548D1*
Y5462D1*
X2334D1*
X660Y12158D2*
Y11957D1*
X746D1*
X775Y11967D1*
X784Y11976D1*
X794Y11995D1*
Y12024D1*
X784Y12043D1*
X775Y12053D1*
X746Y12062D1*
X775Y12072D1*
X784Y12081D1*
X794Y12100D1*
Y12120D1*
X784Y12139D1*
X775Y12148D1*
X746Y12158D1*
X660D1*
Y12062D2*
X746D1*
X1009Y11957D2*
X932Y12158D1*
X856Y11957D1*
X884Y12024D2*
X980D1*
X1137Y12158D2*
Y11957D1*
X1070Y12158D2*
X1204D1*
X1333D2*
Y11957D1*
X1266Y12158D2*
X1400D1*
X2007Y11800D2*
X1997Y11819D1*
X1978Y11838D1*
X1959Y11847D1*
X1921D1*
X1902Y11838D1*
X1883Y11819D1*
X1873Y11800D1*
X1863Y11771D1*
Y11723D1*
X1873Y11694D1*
X1883Y11675D1*
X1902Y11656D1*
X1921Y11646D1*
X1959D1*
X1978Y11656D1*
X1997Y11675D1*
X2007Y11694D1*
X2069Y11809D2*
X2088Y11819D1*
X2117Y11847D1*
Y11646D1*
X5459Y11910D2*
X5449Y11929D1*
X5430Y11949D1*
X5411Y11958D1*
X5373D1*
X5354Y11949D1*
X5334Y11929D1*
X5325Y11910D1*
X5315Y11882D1*
Y11834D1*
X5325Y11805D1*
X5334Y11786D1*
X5354Y11767D1*
X5373Y11757D1*
X5411D1*
X5430Y11767D1*
X5449Y11786D1*
X5459Y11805D1*
X5635Y11929D2*
X5626Y11948D1*
X5597Y11958D1*
X5578D1*
X5549Y11948D1*
X5530Y11920D1*
X5520Y11872D1*
Y11824D1*
X5530Y11786D1*
X5549Y11767D1*
X5578Y11757D1*
X5587D1*
X5616Y11767D1*
X5635Y11786D1*
X5645Y11815D1*
Y11824D1*
X5635Y11853D1*
X5616Y11872D1*
X5587Y11881D1*
X5578D1*
X5549Y11872D1*
X5530Y11853D1*
X5520Y11824D1*
X11869Y9392D2*
X11860Y9411D1*
X11840Y9430D1*
X11821Y9440D1*
X11783D1*
X11764Y9430D1*
X11745Y9411D1*
X11735Y9392D1*
X11726Y9363D1*
Y9315D1*
X11735Y9287D1*
X11745Y9268D1*
X11764Y9249D1*
X11783Y9239D1*
X11821D1*
X11840Y9249D1*
X11860Y9268D1*
X11869Y9287D1*
X11969Y9239D2*
X12065Y9440D1*
X11931D1*
X5534Y8210D2*
X5524Y8229D1*
X5505Y8248D1*
X5486Y8257D1*
X5448D1*
X5429Y8248D1*
X5410Y8229D1*
X5400Y8210D1*
X5391Y8181D1*
Y8133D1*
X5400Y8104D1*
X5410Y8085D1*
X5429Y8066D1*
X5448Y8056D1*
X5486D1*
X5505Y8066D1*
X5524Y8085D1*
X5534Y8104D1*
X5643Y8257D2*
X5615Y8248D1*
X5605Y8229D1*
Y8209D1*
X5615Y8190D1*
X5634Y8181D1*
X5672Y8171D1*
X5701Y8162D1*
X5720Y8142D1*
X5729Y8123D1*
Y8095D1*
X5720Y8076D1*
X5710Y8066D1*
X5682Y8056D1*
X5643D1*
X5615Y8066D1*
X5605Y8076D1*
X5596Y8095D1*
Y8123D1*
X5605Y8142D1*
X5624Y8162D1*
X5653Y8171D1*
X5691Y8181D1*
X5710Y8190D1*
X5720Y8209D1*
Y8229D1*
X5710Y8248D1*
X5682Y8257D1*
X5643D1*
X12139Y6830D2*
X12129Y6849D1*
X12110Y6869D1*
X12091Y6878D1*
X12053D1*
X12033Y6869D1*
X12014Y6849D1*
X12005Y6830D1*
X11995Y6802D1*
Y6754D1*
X12005Y6725D1*
X12014Y6706D1*
X12033Y6687D1*
X12053Y6677D1*
X12091D1*
X12110Y6687D1*
X12129Y6706D1*
X12139Y6725D1*
X12325Y6811D2*
X12315Y6782D1*
X12296Y6763D1*
X12267Y6754D1*
X12258D1*
X12229Y6763D1*
X12210Y6782D1*
X12200Y6811D1*
Y6821D1*
X12210Y6849D1*
X12229Y6868D1*
X12258Y6878D1*
X12267D1*
X12296Y6868D1*
X12315Y6849D1*
X12325Y6811D1*
Y6763D1*
X12315Y6715D1*
X12296Y6687D1*
X12267Y6677D1*
X12248D1*
X12220Y6687D1*
X12210Y6706D1*
X2394Y6042D2*
X2385Y6061D1*
X2366Y6080D1*
X2347Y6090D1*
X2308D1*
X2289Y6080D1*
X2270Y6061D1*
X2260Y6042D1*
X2251Y6013D1*
Y5965D1*
X2260Y5937D1*
X2270Y5918D1*
X2289Y5899D1*
X2308Y5889D1*
X2347D1*
X2366Y5899D1*
X2385Y5918D1*
X2394Y5937D1*
X2456Y6051D2*
X2475Y6061D1*
X2504Y6090D1*
Y5889D1*
X2576Y6042D2*
Y6051D1*
X2585Y6071D1*
X2595Y6080D1*
X2614Y6090D1*
X2652D1*
X2671Y6080D1*
X2681Y6071D1*
X2690Y6051D1*
Y6032D1*
X2681Y6013D1*
X2662Y5985D1*
X2566Y5889D1*
X2700D1*
X7439Y11720D2*
X7430Y11739D1*
X7410Y11758D1*
X7391Y11767D1*
X7353D1*
X7334Y11758D1*
X7315Y11739D1*
X7305Y11720D1*
X7296Y11691D1*
Y11643D1*
X7305Y11614D1*
X7315Y11595D1*
X7334Y11576D1*
X7353Y11566D1*
X7391D1*
X7410Y11576D1*
X7430Y11595D1*
X7439Y11614D1*
X7501Y11729D2*
X7520Y11739D1*
X7549Y11767D1*
Y11566D1*
X7630Y11767D2*
X7735D1*
X7677Y11691D1*
X7706D1*
X7725Y11681D1*
X7735Y11672D1*
X7744Y11643D1*
Y11624D1*
X7735Y11595D1*
X7716Y11576D1*
X7687Y11566D1*
X7658D1*
X7630Y11576D1*
X7620Y11586D1*
X7610Y11605D1*
X4124Y3270D2*
X4115Y3289D1*
X4096Y3308D1*
X4077Y3317D1*
X4038D1*
X4019Y3308D1*
X4000Y3289D1*
X3990Y3270D1*
X3981Y3241D1*
Y3193D1*
X3990Y3164D1*
X4000Y3145D1*
X4019Y3126D1*
X4038Y3116D1*
X4077D1*
X4096Y3126D1*
X4115Y3145D1*
X4124Y3164D1*
X4186Y3279D2*
X4205Y3289D1*
X4234Y3317D1*
Y3116D1*
X4391D2*
Y3317D1*
X4296Y3183D1*
X4439D1*
X5833Y6291D2*
X5824Y6310D1*
X5805Y6330D1*
X5786Y6339D1*
X5747D1*
X5728Y6330D1*
X5709Y6310D1*
X5699Y6291D1*
X5690Y6263D1*
Y6215D1*
X5699Y6186D1*
X5709Y6167D1*
X5728Y6148D1*
X5747Y6138D1*
X5786D1*
X5805Y6148D1*
X5824Y6167D1*
X5833Y6186D1*
X5895Y6301D2*
X5914Y6310D1*
X5943Y6339D1*
Y6138D1*
X6120Y6339D2*
X6024D1*
X6015Y6253D1*
X6024Y6262D1*
X6053Y6272D1*
X6081D1*
X6110Y6262D1*
X6129Y6243D1*
X6139Y6215D1*
Y6196D1*
X6129Y6167D1*
X6110Y6148D1*
X6081Y6138D1*
X6053D1*
X6024Y6148D1*
X6015Y6157D1*
X6005Y6176D1*
X5840Y4111D2*
X5830Y4130D1*
X5811Y4150D1*
X5792Y4159D1*
X5754D1*
X5734Y4150D1*
X5715Y4130D1*
X5706Y4111D1*
X5696Y4083D1*
Y4035D1*
X5706Y4006D1*
X5715Y3987D1*
X5734Y3968D1*
X5754Y3958D1*
X5792D1*
X5811Y3968D1*
X5830Y3987D1*
X5840Y4006D1*
X5901Y4121D2*
X5921Y4130D1*
X5949Y4159D1*
Y3958D1*
X6126Y4130D2*
X6116Y4149D1*
X6088Y4159D1*
X6069D1*
X6040Y4149D1*
X6021Y4121D1*
X6011Y4073D1*
Y4025D1*
X6021Y3987D1*
X6040Y3968D1*
X6069Y3958D1*
X6078D1*
X6107Y3968D1*
X6126Y3987D1*
X6135Y4016D1*
Y4025D1*
X6126Y4054D1*
X6107Y4073D1*
X6078Y4082D1*
X6069D1*
X6040Y4073D1*
X6021Y4054D1*
X6011Y4025D1*
X11718Y10794D2*
X11699Y10785D1*
X11680Y10766D1*
X11670Y10747D1*
Y10708D1*
X11680Y10689D1*
X11699Y10670D1*
X11718Y10660D1*
X11747Y10651D1*
X11795D1*
X11823Y10660D1*
X11842Y10670D1*
X11861Y10689D1*
X11871Y10708D1*
Y10747D1*
X11861Y10766D1*
X11842Y10785D1*
X11823Y10794D1*
X11709Y10856D2*
X11699Y10875D1*
X11670Y10904D1*
X11871D1*
Y11004D2*
X11670Y11100D1*
Y10966D1*
X12348Y11224D2*
X12329Y11215D1*
X12310Y11196D1*
X12300Y11177D1*
Y11138D1*
X12310Y11119D1*
X12329Y11100D1*
X12348Y11091D1*
X12377Y11081D1*
X12425D1*
X12453Y11091D1*
X12472Y11100D1*
X12491Y11119D1*
X12501Y11138D1*
Y11177D1*
X12491Y11196D1*
X12472Y11215D1*
X12453Y11224D1*
X12339Y11286D2*
X12329Y11305D1*
X12300Y11334D1*
X12501D1*
X12300Y11444D2*
X12310Y11415D1*
X12329Y11405D1*
X12348D1*
X12367Y11415D1*
X12377Y11434D1*
X12386Y11472D1*
X12396Y11501D1*
X12415Y11520D1*
X12434Y11530D1*
X12463D1*
X12482Y11520D1*
X12492Y11511D1*
X12501Y11482D1*
Y11444D1*
X12492Y11415D1*
X12482Y11405D1*
X12463Y11396D1*
X12434D1*
X12415Y11405D1*
X12396Y11425D1*
X12386Y11453D1*
X12377Y11491D1*
X12367Y11511D1*
X12348Y11520D1*
X12329D1*
X12310Y11511D1*
X12300Y11482D1*
Y11444D1*
X12898Y11229D2*
X12879Y11220D1*
X12860Y11200D1*
X12850Y11181D1*
Y11143D1*
X12860Y11124D1*
X12879Y11105D1*
X12898Y11095D1*
X12927Y11086D1*
X12975D1*
X13003Y11095D1*
X13022Y11105D1*
X13041Y11124D1*
X13051Y11143D1*
Y11181D1*
X13041Y11200D1*
X13022Y11220D1*
X13003Y11229D1*
X12889Y11291D2*
X12879Y11310D1*
X12850Y11339D1*
X13051D1*
X12917Y11525D2*
X12946Y11515D1*
X12965Y11496D1*
X12975Y11468D1*
Y11458D1*
X12965Y11429D1*
X12946Y11410D1*
X12917Y11401D1*
X12908D1*
X12879Y11410D1*
X12860Y11429D1*
X12850Y11458D1*
Y11468D1*
X12860Y11496D1*
X12879Y11515D1*
X12917Y11525D1*
X12965D1*
X13013Y11515D1*
X13042Y11496D1*
X13051Y11468D1*
Y11449D1*
X13042Y11420D1*
X13022Y11410D1*
X2470Y7669D2*
Y7468D1*
X2537D1*
X2566Y7478D1*
X2585Y7497D1*
X2595Y7516D1*
X2604Y7545D1*
Y7593D1*
X2595Y7621D1*
X2585Y7640D1*
X2566Y7660D1*
X2537Y7669D1*
X2470D1*
X2666Y7631D2*
X2685Y7640D1*
X2714Y7669D1*
Y7468D1*
X9169Y1529D2*
Y1328D1*
X9236D1*
X9264Y1337D1*
X9283Y1356D1*
X9293Y1376D1*
X9303Y1404D1*
Y1452D1*
X9293Y1481D1*
X9283Y1500D1*
X9264Y1519D1*
X9236Y1529D1*
X9169D1*
X9374Y1481D2*
Y1490D1*
X9383Y1509D1*
X9393Y1519D1*
X9412Y1528D1*
X9450D1*
X9469Y1519D1*
X9479Y1509D1*
X9489Y1490D1*
Y1471D1*
X9479Y1452D1*
X9460Y1423D1*
X9364Y1328D1*
X9498D1*
X7542Y1529D2*
Y1328D1*
X7609D1*
X7637Y1337D1*
X7657Y1356D1*
X7666Y1376D1*
X7676Y1404D1*
Y1452D1*
X7666Y1481D1*
X7657Y1500D1*
X7637Y1519D1*
X7609Y1529D1*
X7542D1*
X7757Y1528D2*
X7862D1*
X7804Y1452D1*
X7833D1*
X7852Y1442D1*
X7862Y1433D1*
X7871Y1404D1*
Y1385D1*
X7862Y1356D1*
X7843Y1337D1*
X7814Y1328D1*
X7785D1*
X7757Y1337D1*
X7747Y1347D1*
X7737Y1366D1*
X2985Y2600D2*
Y2399D1*
X3052D1*
X3081Y2409D1*
X3100Y2428D1*
X3109Y2447D1*
X3119Y2475D1*
Y2523D1*
X3109Y2552D1*
X3100Y2571D1*
X3081Y2590D1*
X3052Y2600D1*
X2985D1*
X3276Y2399D2*
Y2600D1*
X3181Y2466D1*
X3324D1*
X2876Y3210D2*
Y3009D1*
X2943D1*
X2971Y3019D1*
X2991Y3038D1*
X3000Y3057D1*
X3010Y3085D1*
Y3133D1*
X3000Y3162D1*
X2991Y3181D1*
X2971Y3200D1*
X2943Y3210D1*
X2876D1*
X3186Y3181D2*
X3177Y3200D1*
X3148Y3210D1*
X3129D1*
X3100Y3200D1*
X3081Y3171D1*
X3071Y3124D1*
Y3076D1*
X3081Y3038D1*
X3100Y3018D1*
X3129Y3009D1*
X3138D1*
X3167Y3018D1*
X3186Y3038D1*
X3196Y3066D1*
Y3076D1*
X3186Y3105D1*
X3167Y3124D1*
X3138Y3133D1*
X3129D1*
X3100Y3124D1*
X3081Y3105D1*
X3071Y3076D1*
X1252Y10329D2*
Y10128D1*
X1319D1*
X1347Y10137D1*
X1367Y10156D1*
X1376Y10176D1*
X1386Y10204D1*
Y10252D1*
X1376Y10281D1*
X1367Y10300D1*
X1347Y10319D1*
X1319Y10329D1*
X1252D1*
X1486Y10128D2*
X1581Y10328D1*
X1447D1*
X1252Y9599D2*
Y9398D1*
X1319D1*
X1348Y9407D1*
X1367Y9426D1*
X1376Y9446D1*
X1386Y9474D1*
Y9522D1*
X1376Y9551D1*
X1367Y9570D1*
X1348Y9589D1*
X1319Y9599D1*
X1252D1*
X1495Y9598D2*
X1467Y9589D1*
X1457Y9570D1*
Y9551D1*
X1467Y9532D1*
X1486Y9522D1*
X1524Y9512D1*
X1553Y9503D1*
X1572Y9484D1*
X1581Y9465D1*
Y9436D1*
X1572Y9417D1*
X1562Y9407D1*
X1534Y9398D1*
X1495D1*
X1467Y9407D1*
X1457Y9417D1*
X1448Y9436D1*
Y9465D1*
X1457Y9484D1*
X1476Y9503D1*
X1505Y9512D1*
X1543Y9522D1*
X1562Y9532D1*
X1572Y9551D1*
Y9570D1*
X1562Y9589D1*
X1534Y9598D1*
X1495D1*
X2718Y7817D2*
Y7616D1*
X2785D1*
X2814Y7625D1*
X2833Y7644D1*
X2842Y7664D1*
X2852Y7692D1*
Y7740D1*
X2842Y7769D1*
X2833Y7788D1*
X2814Y7807D1*
X2785Y7817D1*
X2718D1*
X2914D2*
Y7616D1*
X3109Y7788D2*
X3090Y7807D1*
X3062Y7817D1*
X3023D1*
X2995Y7807D1*
X2975Y7788D1*
Y7769D1*
X2985Y7750D1*
X2995Y7740D1*
X3014Y7731D1*
X3071Y7711D1*
X3090Y7702D1*
X3100Y7692D1*
X3109Y7673D1*
Y7644D1*
X3090Y7625D1*
X3062Y7616D1*
X3023D1*
X2995Y7625D1*
X2975Y7644D1*
X3324Y7616D2*
X3248Y7817D1*
X3171Y7616D1*
X3200Y7683D2*
X3295D1*
X3386Y7817D2*
Y7616D1*
X3472D1*
X3501Y7625D1*
X3510Y7635D1*
X3520Y7654D1*
Y7683D1*
X3510Y7702D1*
X3501Y7711D1*
X3472Y7721D1*
X3501Y7731D1*
X3510Y7740D1*
X3520Y7759D1*
Y7778D1*
X3510Y7797D1*
X3501Y7807D1*
X3472Y7817D1*
X3386D1*
Y7721D2*
X3472D1*
X3582Y7817D2*
Y7616D1*
X3696D1*
X3882Y7817D2*
X3758D1*
Y7616D1*
X3882D1*
X3758Y7721D2*
X3835D1*
X3944Y7582D2*
X4126D1*
X4188Y7817D2*
Y7616D1*
X4255D1*
X4283Y7625D1*
X4303Y7644D1*
X4312Y7664D1*
X4322Y7692D1*
Y7740D1*
X4312Y7769D1*
X4303Y7788D1*
X4283Y7807D1*
X4255Y7817D1*
X4188D1*
X4383Y7711D2*
X4470D1*
X4498Y7721D1*
X4508Y7731D1*
X4517Y7750D1*
Y7778D1*
X4508Y7797D1*
X4498Y7807D1*
X4470Y7817D1*
X4383D1*
Y7616D1*
X4579Y7711D2*
X4665D1*
X4694Y7721D1*
X4704Y7731D1*
X4713Y7750D1*
Y7778D1*
X4704Y7797D1*
X4694Y7807D1*
X4665Y7817D1*
X4579D1*
Y7616D1*
X4928D2*
Y7817D1*
X4851Y7616D1*
X4775Y7817D1*
Y7616D1*
X2143Y2745D2*
X2344D1*
Y2860D1*
X2143Y2922D2*
X2344D1*
Y3008D1*
X2335Y3037D1*
X2325Y3046D1*
X2306Y3056D1*
X2277D1*
X2258Y3046D1*
X2249Y3037D1*
X2239Y3008D1*
X2229Y3037D1*
X2220Y3046D1*
X2201Y3056D1*
X2182D1*
X2163Y3046D1*
X2153Y3037D1*
X2143Y3008D1*
Y2922D1*
X2239D2*
Y3008D1*
X2143Y3242D2*
Y3118D1*
X2344D1*
Y3242D1*
X2239Y3118D2*
Y3194D1*
X2143Y3428D2*
Y3304D1*
X2344D1*
Y3428D1*
X2239Y3304D2*
Y3380D1*
X2249Y3490D2*
Y3576D1*
X2239Y3604D1*
X2229Y3614D1*
X2210Y3624D1*
X2182D1*
X2163Y3614D1*
X2153Y3604D1*
X2143Y3576D1*
Y3490D1*
X2344D1*
X2378Y3685D2*
Y3867D1*
X2143Y4025D2*
X2296D1*
X2325Y4015D1*
X2335Y4005D1*
X2344Y3986D1*
Y3967D1*
X2335Y3948D1*
X2325Y3939D1*
X2296Y3929D1*
X2277D1*
X2249Y4086D2*
Y4173D1*
X2239Y4201D1*
X2229Y4211D1*
X2210Y4220D1*
X2182D1*
X2163Y4211D1*
X2153Y4201D1*
X2143Y4173D1*
Y4086D1*
X2344D1*
X6216Y12099D2*
Y11898D1*
X6331D1*
X6392Y11994D2*
X6479D1*
X6507Y12003D1*
X6517Y12013D1*
X6526Y12032D1*
Y12061D1*
X6517Y12080D1*
X6507Y12090D1*
X6479Y12099D1*
X6392D1*
Y11898D1*
X6588Y12061D2*
X6607Y12070D1*
X6636Y12099D1*
Y11898D1*
X693Y8663D2*
X779D1*
X808Y8672D1*
X817Y8682D1*
X827Y8701D1*
Y8730D1*
X817Y8749D1*
X808Y8758D1*
X779Y8768D1*
X693D1*
Y8567D1*
X889Y8663D2*
X975D1*
X1003Y8672D1*
X1013Y8682D1*
X1023Y8701D1*
Y8730D1*
X1013Y8749D1*
X1003Y8758D1*
X975Y8768D1*
X889D1*
Y8567D1*
X1237D2*
Y8768D1*
X1161Y8567D1*
X1084Y8768D1*
Y8567D1*
X1299Y8729D2*
X1318Y8739D1*
X1347Y8768D1*
Y8567D1*
X7398Y9922D2*
X7484D1*
X7513Y9931D1*
X7523Y9941D1*
X7532Y9960D1*
Y9979D1*
X7523Y9998D1*
X7513Y10008D1*
X7484Y10017D1*
X7398D1*
Y9816D1*
X7465Y9922D2*
X7532Y9816D1*
X7594Y9979D2*
X7613Y9989D1*
X7642Y10017D1*
Y9816D1*
X2316Y11771D2*
Y11857D1*
X2306Y11885D1*
X2297Y11895D1*
X2278Y11904D1*
X2259D1*
X2239Y11895D1*
X2230Y11885D1*
X2220Y11857D1*
Y11771D1*
X2421D1*
X2316Y11837D2*
X2421Y11904D1*
X2220Y11985D2*
Y12090D1*
X2297Y12033D1*
Y12062D1*
X2306Y12081D1*
X2316Y12090D1*
X2345Y12100D1*
X2364D1*
X2392Y12090D1*
X2412Y12071D1*
X2421Y12043D1*
Y12014D1*
X2412Y11985D1*
X2402Y11976D1*
X2383Y11966D1*
X7575Y2224D2*
X7661D1*
X7690Y2234D1*
X7700Y2243D1*
X7709Y2262D1*
Y2282D1*
X7700Y2301D1*
X7690Y2310D1*
X7661Y2320D1*
X7575D1*
Y2119D1*
X7642Y2224D2*
X7709Y2119D1*
X7886Y2291D2*
X7876Y2310D1*
X7848Y2320D1*
X7829D1*
X7800Y2310D1*
X7781Y2281D1*
X7771Y2234D1*
Y2186D1*
X7781Y2148D1*
X7800Y2128D1*
X7829Y2119D1*
X7838D1*
X7867Y2128D1*
X7886Y2148D1*
X7895Y2176D1*
Y2186D1*
X7886Y2215D1*
X7867Y2234D1*
X7838Y2243D1*
X7829D1*
X7800Y2234D1*
X7781Y2215D1*
X7771Y2186D1*
X9130Y2204D2*
X9216D1*
X9245Y2214D1*
X9254Y2223D1*
X9264Y2242D1*
Y2262D1*
X9254Y2281D1*
X9245Y2290D1*
X9216Y2300D1*
X9130D1*
Y2099D1*
X9197Y2204D2*
X9264Y2099D1*
X9364D2*
X9459Y2300D1*
X9326D1*
X6295Y8152D2*
X6381D1*
X6410Y8162D1*
X6420Y8172D1*
X6429Y8191D1*
Y8210D1*
X6420Y8229D1*
X6410Y8239D1*
X6381Y8248D1*
X6295D1*
Y8047D1*
X6362Y8152D2*
X6429Y8047D1*
X6539Y8248D2*
X6510Y8238D1*
X6500Y8219D1*
Y8200D1*
X6510Y8181D1*
X6529Y8171D1*
X6567Y8162D1*
X6596Y8152D1*
X6615Y8133D1*
X6625Y8114D1*
Y8085D1*
X6615Y8066D1*
X6606Y8057D1*
X6577Y8047D1*
X6539D1*
X6510Y8057D1*
X6500Y8066D1*
X6491Y8085D1*
Y8114D1*
X6500Y8133D1*
X6520Y8152D1*
X6548Y8162D1*
X6586Y8171D1*
X6606Y8181D1*
X6615Y8200D1*
Y8219D1*
X6606Y8238D1*
X6577Y8248D1*
X6539D1*
X2265Y8824D2*
X2351D1*
X2379Y8834D1*
X2389Y8843D1*
X2399Y8862D1*
Y8882D1*
X2389Y8901D1*
X2379Y8910D1*
X2351Y8920D1*
X2265D1*
Y8719D1*
X2332Y8824D2*
X2399Y8719D1*
X2585Y8853D2*
X2575Y8824D1*
X2556Y8805D1*
X2527Y8795D1*
X2518D1*
X2489Y8805D1*
X2470Y8824D1*
X2460Y8853D1*
Y8862D1*
X2470Y8891D1*
X2489Y8910D1*
X2518Y8920D1*
X2527D1*
X2556Y8910D1*
X2575Y8891D1*
X2585Y8853D1*
Y8805D1*
X2575Y8757D1*
X2556Y8728D1*
X2527Y8719D1*
X2508D1*
X2480Y8728D1*
X2470Y8748D1*
X3845Y4724D2*
X3931D1*
X3960Y4734D1*
X3969Y4743D1*
X3979Y4762D1*
Y4782D1*
X3969Y4801D1*
X3960Y4810D1*
X3931Y4820D1*
X3845D1*
Y4619D1*
X3912Y4724D2*
X3979Y4619D1*
X4041Y4781D2*
X4060Y4791D1*
X4089Y4820D1*
Y4619D1*
X4208Y4820D2*
X4179Y4810D1*
X4160Y4781D1*
X4150Y4734D1*
Y4705D1*
X4160Y4657D1*
X4179Y4628D1*
X4208Y4619D1*
X4227D1*
X4256Y4628D1*
X4275Y4657D1*
X4284Y4705D1*
Y4734D1*
X4275Y4781D1*
X4256Y4810D1*
X4227Y4820D1*
X4208D1*
X4275Y4781D2*
X4160Y4657D1*
X5436Y9005D2*
Y9091D1*
X5426Y9120D1*
X5417Y9129D1*
X5398Y9139D1*
X5379D1*
X5359Y9129D1*
X5350Y9120D1*
X5340Y9091D1*
Y9005D1*
X5541D1*
X5436Y9072D2*
X5541Y9139D1*
X5379Y9201D2*
X5369Y9220D1*
X5340Y9249D1*
X5541D1*
X5388Y9320D2*
X5379D1*
X5359Y9330D1*
X5350Y9339D1*
X5340Y9358D1*
Y9397D1*
X5350Y9416D1*
X5359Y9425D1*
X5379Y9435D1*
X5398D1*
X5417Y9425D1*
X5445Y9406D1*
X5541Y9310D1*
Y9444D1*
X6146Y9005D2*
Y9091D1*
X6136Y9120D1*
X6127Y9129D1*
X6108Y9139D1*
X6089D1*
X6069Y9129D1*
X6060Y9120D1*
X6050Y9091D1*
Y9005D1*
X6251D1*
X6146Y9072D2*
X6251Y9139D1*
X6089Y9201D2*
X6079Y9220D1*
X6050Y9249D1*
X6251D1*
X6050Y9330D2*
Y9435D1*
X6127Y9377D1*
Y9406D1*
X6136Y9425D1*
X6146Y9435D1*
X6175Y9444D1*
X6194D1*
X6222Y9435D1*
X6242Y9416D1*
X6251Y9387D1*
Y9358D1*
X6242Y9330D1*
X6232Y9320D1*
X6213Y9310D1*
X7676Y12340D2*
Y12426D1*
X7666Y12455D1*
X7657Y12465D1*
X7638Y12474D1*
X7619D1*
X7599Y12465D1*
X7590Y12455D1*
X7580Y12426D1*
Y12340D1*
X7781D1*
X7676Y12407D2*
X7781Y12474D1*
X7619Y12536D2*
X7609Y12555D1*
X7580Y12584D1*
X7781D1*
Y12741D2*
X7580D1*
X7714Y12646D1*
Y12789D1*
X2966Y11705D2*
Y11791D1*
X2956Y11820D1*
X2947Y11829D1*
X2928Y11839D1*
X2909D1*
X2889Y11829D1*
X2880Y11820D1*
X2870Y11791D1*
Y11705D1*
X3071D1*
X2966Y11772D2*
X3071Y11839D1*
X2909Y11901D2*
X2899Y11920D1*
X2870Y11949D1*
X3071D1*
X2870Y12125D2*
Y12030D1*
X2956Y12020D1*
X2947Y12030D1*
X2937Y12058D1*
Y12087D1*
X2947Y12116D1*
X2966Y12135D1*
X2995Y12144D1*
X3014D1*
X3042Y12135D1*
X3062Y12116D1*
X3071Y12087D1*
Y12058D1*
X3062Y12030D1*
X3052Y12020D1*
X3033Y12010D1*
X746Y5682D2*
X832D1*
X861Y5692D1*
X871Y5701D1*
X880Y5720D1*
Y5740D1*
X871Y5759D1*
X861Y5768D1*
X832Y5778D1*
X746D1*
Y5577D1*
X813Y5682D2*
X880Y5577D1*
X1076Y5749D2*
X1057Y5768D1*
X1028Y5778D1*
X990D1*
X961Y5768D1*
X942Y5749D1*
Y5730D1*
X952Y5711D1*
X961Y5701D1*
X980Y5692D1*
X1038Y5673D1*
X1057Y5663D1*
X1067Y5653D1*
X1076Y5634D1*
Y5606D1*
X1057Y5587D1*
X1028Y5577D1*
X990D1*
X961Y5587D1*
X942Y5606D1*
X1272Y5749D2*
X1253Y5768D1*
X1224Y5778D1*
X1186D1*
X1157Y5768D1*
X1138Y5749D1*
Y5730D1*
X1148Y5711D1*
X1157Y5701D1*
X1176Y5692D1*
X1234Y5673D1*
X1253Y5663D1*
X1262Y5653D1*
X1272Y5634D1*
Y5606D1*
X1253Y5587D1*
X1224Y5577D1*
X1186D1*
X1157Y5587D1*
X1138Y5606D1*
X1334Y5778D2*
Y5577D1*
X12805Y7440D2*
X12786Y7420D1*
X12777Y7392D1*
Y7354D1*
X12786Y7325D1*
X12805Y7306D1*
X12824D1*
X12844Y7315D1*
X12853Y7325D1*
X12863Y7344D1*
X12882Y7401D1*
X12891Y7420D1*
X12901Y7430D1*
X12920Y7440D1*
X12949D1*
X12968Y7420D1*
X12978Y7392D1*
Y7354D1*
X12968Y7325D1*
X12949Y7306D1*
X12777Y7626D2*
Y7501D1*
X12978D1*
Y7626D1*
X12872Y7501D2*
Y7578D1*
Y7687D2*
Y7773D1*
X12863Y7802D1*
X12853Y7812D1*
X12834Y7821D1*
X12815D1*
X12796Y7812D1*
X12786Y7802D1*
X12777Y7773D1*
Y7687D1*
X12978D1*
X12872Y7754D2*
X12978Y7821D1*
X12777Y7883D2*
X12978D1*
Y8098D2*
X12777Y8021D1*
X12978Y7945D1*
X12911Y7973D2*
Y8069D1*
X12777Y8160D2*
X12978D1*
Y8274D1*
X9285Y8421D2*
Y8277D1*
X9295Y8248D1*
X9314Y8229D1*
X9343Y8220D1*
X9362D1*
X9390Y8229D1*
X9410Y8248D1*
X9419Y8277D1*
Y8421D1*
X9500Y8420D2*
X9605D1*
X9548Y8344D1*
X9577D1*
X9596Y8334D1*
X9605Y8325D1*
X9615Y8296D1*
Y8277D1*
X9605Y8248D1*
X9586Y8229D1*
X9557Y8220D1*
X9529D1*
X9500Y8229D1*
X9491Y8239D1*
X9481Y8258D1*
X3417Y11296D2*
Y11152D1*
X3427Y11124D1*
X3446Y11105D1*
X3475Y11095D1*
X3494D1*
X3522Y11105D1*
X3542Y11124D1*
X3551Y11152D1*
Y11296D1*
X3728Y11267D2*
X3718Y11286D1*
X3689Y11296D1*
X3670D1*
X3642Y11286D1*
X3622Y11257D1*
X3613Y11210D1*
Y11162D1*
X3622Y11124D1*
X3642Y11104D1*
X3670Y11095D1*
X3680D1*
X3708Y11104D1*
X3728Y11124D1*
X3737Y11152D1*
Y11162D1*
X3728Y11191D1*
X3708Y11210D1*
X3680Y11219D1*
X3670D1*
X3642Y11210D1*
X3622Y11191D1*
X3613Y11162D1*
X9469Y11715D2*
Y11572D1*
X9478Y11543D1*
X9497Y11524D1*
X9526Y11514D1*
X9545D1*
X9574Y11524D1*
X9593Y11543D1*
X9603Y11572D1*
Y11715D1*
X9789Y11648D2*
X9779Y11619D1*
X9760Y11600D1*
X9731Y11591D1*
X9722D1*
X9693Y11600D1*
X9674Y11619D1*
X9664Y11648D1*
Y11658D1*
X9674Y11686D1*
X9693Y11705D1*
X9722Y11715D1*
X9731D1*
X9760Y11705D1*
X9779Y11686D1*
X9789Y11648D1*
Y11600D1*
X9779Y11552D1*
X9760Y11524D1*
X9731Y11514D1*
X9712D1*
X9684Y11524D1*
X9674Y11543D1*
X10135Y14736D2*
Y14593D1*
X10145Y14564D1*
X10164Y14545D1*
X10192Y14535D1*
X10212D1*
X10240Y14545D1*
X10259Y14564D1*
X10269Y14593D1*
Y14736D1*
X10331Y14698D2*
X10350Y14707D1*
X10379Y14736D1*
Y14535D1*
X10498Y14736D2*
X10469Y14726D1*
X10450Y14698D1*
X10440Y14650D1*
Y14621D1*
X10450Y14573D1*
X10469Y14545D1*
X10498Y14535D1*
X10517D1*
X10546Y14545D1*
X10565Y14573D1*
X10574Y14621D1*
Y14650D1*
X10565Y14698D1*
X10546Y14726D1*
X10517Y14736D1*
X10498D1*
X10565Y14698D2*
X10450Y14573D1*
X5773Y5748D2*
X5907Y5548D1*
Y5748D2*
X5773Y5548D1*
X5969Y5710D2*
X5988Y5720D1*
X6017Y5748D1*
Y5548D1*
X9317Y14117D2*
D91*
Y14217D1*
Y14165D2*
X9307Y14155D1*
X9298Y14150D1*
X9284D1*
X9274Y14155D1*
X9264Y14165D1*
X9260Y14179D1*
Y14189D1*
X9264Y14203D1*
X9274Y14212D1*
X9284Y14217D1*
X9298D1*
X9307Y14212D1*
X9317Y14203D1*
X9205Y14150D2*
X9214Y14155D1*
X9224Y14165D1*
X9229Y14179D1*
Y14189D1*
X9224Y14203D1*
X9214Y14212D1*
X9205Y14217D1*
X9191D1*
X9181Y14212D1*
X9171Y14203D1*
X9167Y14189D1*
Y14179D1*
X9171Y14165D1*
X9181Y14155D1*
X9191Y14150D1*
X9205D1*
X9078D2*
Y14217D1*
Y14165D2*
X9088Y14155D1*
X9097Y14150D1*
X9112D1*
X9121Y14155D1*
X9131Y14165D1*
X9136Y14179D1*
Y14189D1*
X9131Y14203D1*
X9121Y14212D1*
X9112Y14217D1*
X9097D1*
X9088Y14212D1*
X9078Y14203D1*
X9047Y14150D2*
Y14217D1*
Y14179D2*
X9043Y14165D1*
X9033Y14155D1*
X9023Y14150D1*
X9009D1*
X8921Y14117D2*
Y14217D1*
Y14165D2*
X8930Y14155D1*
X8940Y14150D1*
X8954D1*
X8964Y14155D1*
X8973Y14165D1*
X8978Y14179D1*
Y14189D1*
X8973Y14203D1*
X8964Y14212D1*
X8954Y14217D1*
X8940D1*
X8930Y14212D1*
X8921Y14203D1*
X9267Y14359D2*
X9210D1*
Y14349D1*
X9214Y14340D1*
X9219Y14335D1*
X9229Y14330D1*
X9243D1*
X9253Y14335D1*
X9262Y14345D1*
X9267Y14359D1*
Y14369D1*
X9262Y14383D1*
X9253Y14392D1*
X9243Y14397D1*
X9229D1*
X9219Y14392D1*
X9210Y14383D1*
X9121Y14297D2*
Y14397D1*
Y14345D2*
X9131Y14335D1*
X9140Y14330D1*
X9155D1*
X9164Y14335D1*
X9174Y14345D1*
X9179Y14359D1*
Y14369D1*
X9174Y14383D1*
X9164Y14392D1*
X9155Y14397D1*
X9140D1*
X9131Y14392D1*
X9121Y14383D1*
X9033Y14335D2*
Y14412D1*
X9038Y14426D1*
X9043Y14431D1*
X9052Y14436D1*
X9067D1*
X9076Y14431D1*
X9033Y14349D2*
X9043Y14340D1*
X9052Y14335D1*
X9067D1*
X9076Y14340D1*
X9086Y14349D1*
X9090Y14364D1*
Y14373D1*
X9086Y14388D1*
X9076Y14397D1*
X9067Y14402D1*
X9052D1*
X9043Y14397D1*
X9033Y14388D1*
X9002Y14359D2*
X8945D1*
Y14349D1*
X8950Y14340D1*
X8954Y14335D1*
X8964Y14330D1*
X8978D1*
X8988Y14335D1*
X8997Y14345D1*
X9002Y14359D1*
Y14369D1*
X8997Y14383D1*
X8988Y14392D1*
X8978Y14397D1*
X8964D1*
X8954Y14392D1*
X8945Y14383D1*
X1438Y227D2*
D11*
X13249D1*
G03X14431Y1408I0J1181D01*
G01*
Y13219D1*
G03X13249Y14401I-1181J0D01*
G01*
X1438D1*
G03X257Y13219I0J-1181D01*
G01*
Y1408D1*
G03X1438Y227I1181J0D01*
G01*
%LNTopSilk*%
X2426Y4402D2*
D20*
Y5032D1*
X3214Y4402D2*
G02X3096Y4323I-99J20D01*
G01*
Y5111D2*
G02X3214Y5032I20J-99D01*
G01*
X2544Y5111D2*
G03X2426Y5032I-20J-99D01*
G01*
Y4402D2*
G03X2544Y4323I99J20D01*
G01*
X3214Y5032D2*
Y4402D1*
X1978Y10975D2*
D24*
X2002D1*
X5492Y11085D2*
X5468D1*
X11895Y8748D2*
Y8772D1*
X5548Y7385D2*
X5572D1*
X12172Y6005D2*
X12148D1*
X2475Y5398D2*
Y5422D1*
X7508Y10895D2*
X7532D1*
X4198Y2445D2*
X4222D1*
X5796Y6046D2*
D18*
X6032D1*
X5796Y5574D2*
X6032D1*
X6034Y3394D2*
X5798D1*
X6034Y3866D2*
X5798D1*
X3161Y6952D2*
D10*
Y7328D1*
X2654Y6904D2*
D18*
X2418D1*
X2654Y7376D2*
X2418D1*
G36*
X9333Y704D2*
X9215D1*
Y763D1*
X9333D1*
Y704D1*
G37*
G36*
Y1177D2*
X9215D1*
Y1236D1*
X9333D1*
Y1177D1*
G37*
G36*
Y911D2*
X9215D1*
Y1029D1*
X9333D1*
Y911D1*
G37*
G36*
X7707Y1236D2*
X7825D1*
Y1177D1*
X7707D1*
Y1236D1*
G37*
G36*
Y763D2*
X7825D1*
Y704D1*
X7707D1*
Y763D1*
G37*
G36*
Y1029D2*
X7825D1*
Y911D1*
X7707D1*
Y1029D1*
G37*
X3765Y2267D2*
D10*
Y1953D1*
X2425Y2563D2*
Y2877D1*
G36*
X1417Y10036D2*
X1535D1*
Y9977D1*
X1417D1*
Y10036D1*
G37*
G36*
Y9563D2*
X1535D1*
Y9504D1*
X1417D1*
Y9563D1*
G37*
G36*
Y9829D2*
X1535D1*
Y9711D1*
X1417D1*
Y9829D1*
G37*
G36*
Y9306D2*
X1535D1*
Y9247D1*
X1417D1*
Y9306D1*
G37*
G36*
Y8833D2*
X1535D1*
Y8774D1*
X1417D1*
Y8833D1*
G37*
G36*
Y9099D2*
X1535D1*
Y8981D1*
X1417D1*
Y9099D1*
G37*
X3508Y7524D2*
D20*
X4138D1*
X3508Y6736D2*
G02X3429Y6854I20J99D01*
G01*
X4217D2*
G02X4138Y6736I-99J-20D01*
G01*
X4217Y7406D2*
G03X4138Y7524I-99J20D01*
G01*
X3508D2*
G03X3429Y7406I20J-99D01*
G01*
X4138Y6736D2*
X3508D1*
X2436Y3168D2*
Y3798D1*
X3224Y3168D2*
G02X3106Y3089I-99J20D01*
G01*
Y3877D2*
G02X3224Y3798I20J-99D01*
G01*
X2554Y3877D2*
G03X2436Y3798I-20J-99D01*
G01*
Y3168D2*
G03X2554Y3089I99J20D01*
G01*
X3224Y3798D2*
Y3168D1*
X5866Y10889D2*
Y11227D1*
X6986D2*
Y10889D1*
X6532Y10739D2*
X6320D1*
G36*
X7670Y9055D2*
X7370D1*
Y9235D1*
X7670D1*
Y9055D1*
G37*
G36*
X7825Y1790D2*
X7645D1*
Y1490D1*
X7825D1*
Y1790D1*
G37*
G36*
X9205Y1470D2*
X9385D1*
Y1770D1*
X9205D1*
Y1470D1*
G37*
G36*
X6310Y7465D2*
X6610D1*
Y7285D1*
X6310D1*
Y7465D1*
G37*
G36*
X2335Y8090D2*
X2515D1*
Y8390D1*
X2335D1*
Y8090D1*
G37*
G36*
X3975Y3990D2*
X4155D1*
Y4290D1*
X3975D1*
Y3990D1*
G37*
X10830Y7568D2*
D18*
Y4808D1*
X8070D1*
Y7428D1*
X8210Y7568D2*
X10830D1*
X8210D2*
X8070Y7428D1*
X8229Y7268D2*
G02X8229Y7268I141J0D01*
G01*
X4133Y10855D2*
D10*
X4251D1*
Y10737D1*
X4133Y9674D2*
X4251D1*
Y9792D2*
Y9674D1*
X3070D2*
X3188D1*
X3070Y9792D2*
Y9674D1*
D37*
X2814Y10560D3*
X3188Y10855D2*
D10*
X3070Y10737D1*
X8748Y9286D2*
X8551D1*
Y9483D1*
X8748Y11255D2*
X8551D1*
Y11058D2*
Y11255D1*
X10520D2*
X10323D1*
X10520Y11058D2*
Y11255D1*
D37*
X10815Y9680D3*
X10323Y9286D2*
D10*
X10520Y9483D1*
X6368Y5377D2*
D45*
X5423D1*
Y4117D1*
X6368D1*
Y5377D1*
X6164Y5298D2*
G02X6289Y5173I0J-125D01*
G01*
Y4321D1*
G02X6164Y4196I-125J0D01*
G01*
X5626D1*
G02X5501Y4321I0J125D01*
G01*
Y5173D1*
G02X5626Y5298I125J0D01*
G01*
X6164D1*
X2334Y3992D2*
D12*
X2133Y3915D1*
X2334Y3839D1*
X2267Y3867D2*
Y3963D1*
X2133Y4188D2*
X2334D1*
X2133Y4054D1*
X2334D1*
Y4403D2*
X2133Y4326D1*
X2334Y4249D1*
X2267Y4278D2*
Y4374D1*
X2133Y4464D2*
X2334D1*
Y4579D1*
X2133Y4698D2*
X2143Y4679D1*
X2162Y4660D1*
X2181Y4650D1*
X2210Y4641D1*
X2258D1*
X2286Y4650D1*
X2306Y4660D1*
X2325Y4679D1*
X2334Y4698D1*
Y4737D1*
X2325Y4756D1*
X2306Y4775D1*
X2286Y4784D1*
X2258Y4794D1*
X2210D1*
X2181Y4784D1*
X2162Y4775D1*
X2143Y4756D1*
X2133Y4737D1*
Y4698D1*
X2181Y4999D2*
X2162Y4989D1*
X2143Y4970D1*
X2133Y4951D1*
Y4913D1*
X2143Y4894D1*
X2162Y4875D1*
X2181Y4865D1*
X2210Y4856D1*
X2258D1*
X2286Y4865D1*
X2306Y4875D1*
X2325Y4894D1*
X2334Y4913D1*
Y4951D1*
X2325Y4970D1*
X2306Y4989D1*
X2286Y4999D1*
X2258D1*
Y4951D1*
X2368Y5061D2*
Y5242D1*
X2133Y5400D2*
X2286D1*
X2315Y5390D1*
X2325Y5381D1*
X2334Y5362D1*
Y5342D1*
X2325Y5323D1*
X2315Y5314D1*
X2286Y5304D1*
X2267D1*
X2239Y5462D2*
Y5548D1*
X2229Y5576D1*
X2219Y5586D1*
X2200Y5596D1*
X2172D1*
X2153Y5586D1*
X2143Y5576D1*
X2133Y5548D1*
Y5462D1*
X2334D1*
X660Y12158D2*
Y11957D1*
X746D1*
X775Y11967D1*
X784Y11976D1*
X794Y11995D1*
Y12024D1*
X784Y12043D1*
X775Y12053D1*
X746Y12062D1*
X775Y12072D1*
X784Y12081D1*
X794Y12100D1*
Y12120D1*
X784Y12139D1*
X775Y12148D1*
X746Y12158D1*
X660D1*
Y12062D2*
X746D1*
X1009Y11957D2*
X932Y12158D1*
X856Y11957D1*
X884Y12024D2*
X980D1*
X1137Y12158D2*
Y11957D1*
X1070Y12158D2*
X1204D1*
X1333D2*
Y11957D1*
X1266Y12158D2*
X1400D1*
X2007Y11800D2*
X1997Y11819D1*
X1978Y11838D1*
X1959Y11847D1*
X1921D1*
X1902Y11838D1*
X1883Y11819D1*
X1873Y11800D1*
X1863Y11771D1*
Y11723D1*
X1873Y11694D1*
X1883Y11675D1*
X1902Y11656D1*
X1921Y11646D1*
X1959D1*
X1978Y11656D1*
X1997Y11675D1*
X2007Y11694D1*
X2069Y11809D2*
X2088Y11819D1*
X2117Y11847D1*
Y11646D1*
X5459Y11910D2*
X5449Y11929D1*
X5430Y11949D1*
X5411Y11958D1*
X5373D1*
X5354Y11949D1*
X5334Y11929D1*
X5325Y11910D1*
X5315Y11882D1*
Y11834D1*
X5325Y11805D1*
X5334Y11786D1*
X5354Y11767D1*
X5373Y11757D1*
X5411D1*
X5430Y11767D1*
X5449Y11786D1*
X5459Y11805D1*
X5635Y11929D2*
X5626Y11948D1*
X5597Y11958D1*
X5578D1*
X5549Y11948D1*
X5530Y11920D1*
X5520Y11872D1*
Y11824D1*
X5530Y11786D1*
X5549Y11767D1*
X5578Y11757D1*
X5587D1*
X5616Y11767D1*
X5635Y11786D1*
X5645Y11815D1*
Y11824D1*
X5635Y11853D1*
X5616Y11872D1*
X5587Y11881D1*
X5578D1*
X5549Y11872D1*
X5530Y11853D1*
X5520Y11824D1*
X11869Y9392D2*
X11860Y9411D1*
X11840Y9430D1*
X11821Y9440D1*
X11783D1*
X11764Y9430D1*
X11745Y9411D1*
X11735Y9392D1*
X11726Y9363D1*
Y9315D1*
X11735Y9287D1*
X11745Y9268D1*
X11764Y9249D1*
X11783Y9239D1*
X11821D1*
X11840Y9249D1*
X11860Y9268D1*
X11869Y9287D1*
X11969Y9239D2*
X12065Y9440D1*
X11931D1*
X5534Y8210D2*
X5524Y8229D1*
X5505Y8248D1*
X5486Y8257D1*
X5448D1*
X5429Y8248D1*
X5410Y8229D1*
X5400Y8210D1*
X5391Y8181D1*
Y8133D1*
X5400Y8104D1*
X5410Y8085D1*
X5429Y8066D1*
X5448Y8056D1*
X5486D1*
X5505Y8066D1*
X5524Y8085D1*
X5534Y8104D1*
X5643Y8257D2*
X5615Y8248D1*
X5605Y8229D1*
Y8209D1*
X5615Y8190D1*
X5634Y8181D1*
X5672Y8171D1*
X5701Y8162D1*
X5720Y8142D1*
X5729Y8123D1*
Y8095D1*
X5720Y8076D1*
X5710Y8066D1*
X5682Y8056D1*
X5643D1*
X5615Y8066D1*
X5605Y8076D1*
X5596Y8095D1*
Y8123D1*
X5605Y8142D1*
X5624Y8162D1*
X5653Y8171D1*
X5691Y8181D1*
X5710Y8190D1*
X5720Y8209D1*
Y8229D1*
X5710Y8248D1*
X5682Y8257D1*
X5643D1*
X12139Y6830D2*
X12129Y6849D1*
X12110Y6869D1*
X12091Y6878D1*
X12053D1*
X12033Y6869D1*
X12014Y6849D1*
X12005Y6830D1*
X11995Y6802D1*
Y6754D1*
X12005Y6725D1*
X12014Y6706D1*
X12033Y6687D1*
X12053Y6677D1*
X12091D1*
X12110Y6687D1*
X12129Y6706D1*
X12139Y6725D1*
X12325Y6811D2*
X12315Y6782D1*
X12296Y6763D1*
X12267Y6754D1*
X12258D1*
X12229Y6763D1*
X12210Y6782D1*
X12200Y6811D1*
Y6821D1*
X12210Y6849D1*
X12229Y6868D1*
X12258Y6878D1*
X12267D1*
X12296Y6868D1*
X12315Y6849D1*
X12325Y6811D1*
Y6763D1*
X12315Y6715D1*
X12296Y6687D1*
X12267Y6677D1*
X12248D1*
X12220Y6687D1*
X12210Y6706D1*
X2394Y6042D2*
X2385Y6061D1*
X2366Y6080D1*
X2347Y6090D1*
X2308D1*
X2289Y6080D1*
X2270Y6061D1*
X2260Y6042D1*
X2251Y6013D1*
Y5965D1*
X2260Y5937D1*
X2270Y5918D1*
X2289Y5899D1*
X2308Y5889D1*
X2347D1*
X2366Y5899D1*
X2385Y5918D1*
X2394Y5937D1*
X2456Y6051D2*
X2475Y6061D1*
X2504Y6090D1*
Y5889D1*
X2576Y6042D2*
Y6051D1*
X2585Y6071D1*
X2595Y6080D1*
X2614Y6090D1*
X2652D1*
X2671Y6080D1*
X2681Y6071D1*
X2690Y6051D1*
Y6032D1*
X2681Y6013D1*
X2662Y5985D1*
X2566Y5889D1*
X2700D1*
X7439Y11720D2*
X7430Y11739D1*
X7410Y11758D1*
X7391Y11767D1*
X7353D1*
X7334Y11758D1*
X7315Y11739D1*
X7305Y11720D1*
X7296Y11691D1*
Y11643D1*
X7305Y11614D1*
X7315Y11595D1*
X7334Y11576D1*
X7353Y11566D1*
X7391D1*
X7410Y11576D1*
X7430Y11595D1*
X7439Y11614D1*
X7501Y11729D2*
X7520Y11739D1*
X7549Y11767D1*
Y11566D1*
X7630Y11767D2*
X7735D1*
X7677Y11691D1*
X7706D1*
X7725Y11681D1*
X7735Y11672D1*
X7744Y11643D1*
Y11624D1*
X7735Y11595D1*
X7716Y11576D1*
X7687Y11566D1*
X7658D1*
X7630Y11576D1*
X7620Y11586D1*
X7610Y11605D1*
X4124Y3270D2*
X4115Y3289D1*
X4096Y3308D1*
X4077Y3317D1*
X4038D1*
X4019Y3308D1*
X4000Y3289D1*
X3990Y3270D1*
X3981Y3241D1*
Y3193D1*
X3990Y3164D1*
X4000Y3145D1*
X4019Y3126D1*
X4038Y3116D1*
X4077D1*
X4096Y3126D1*
X4115Y3145D1*
X4124Y3164D1*
X4186Y3279D2*
X4205Y3289D1*
X4234Y3317D1*
Y3116D1*
X4391D2*
Y3317D1*
X4296Y3183D1*
X4439D1*
X5833Y6291D2*
X5824Y6310D1*
X5805Y6330D1*
X5786Y6339D1*
X5747D1*
X5728Y6330D1*
X5709Y6310D1*
X5699Y6291D1*
X5690Y6263D1*
Y6215D1*
X5699Y6186D1*
X5709Y6167D1*
X5728Y6148D1*
X5747Y6138D1*
X5786D1*
X5805Y6148D1*
X5824Y6167D1*
X5833Y6186D1*
X5895Y6301D2*
X5914Y6310D1*
X5943Y6339D1*
Y6138D1*
X6120Y6339D2*
X6024D1*
X6015Y6253D1*
X6024Y6262D1*
X6053Y6272D1*
X6081D1*
X6110Y6262D1*
X6129Y6243D1*
X6139Y6215D1*
Y6196D1*
X6129Y6167D1*
X6110Y6148D1*
X6081Y6138D1*
X6053D1*
X6024Y6148D1*
X6015Y6157D1*
X6005Y6176D1*
X5840Y4111D2*
X5830Y4130D1*
X5811Y4150D1*
X5792Y4159D1*
X5754D1*
X5734Y4150D1*
X5715Y4130D1*
X5706Y4111D1*
X5696Y4083D1*
Y4035D1*
X5706Y4006D1*
X5715Y3987D1*
X5734Y3968D1*
X5754Y3958D1*
X5792D1*
X5811Y3968D1*
X5830Y3987D1*
X5840Y4006D1*
X5901Y4121D2*
X5921Y4130D1*
X5949Y4159D1*
Y3958D1*
X6126Y4130D2*
X6116Y4149D1*
X6088Y4159D1*
X6069D1*
X6040Y4149D1*
X6021Y4121D1*
X6011Y4073D1*
Y4025D1*
X6021Y3987D1*
X6040Y3968D1*
X6069Y3958D1*
X6078D1*
X6107Y3968D1*
X6126Y3987D1*
X6135Y4016D1*
Y4025D1*
X6126Y4054D1*
X6107Y4073D1*
X6078Y4082D1*
X6069D1*
X6040Y4073D1*
X6021Y4054D1*
X6011Y4025D1*
X11718Y10794D2*
X11699Y10785D1*
X11680Y10766D1*
X11670Y10747D1*
Y10708D1*
X11680Y10689D1*
X11699Y10670D1*
X11718Y10660D1*
X11747Y10651D1*
X11795D1*
X11823Y10660D1*
X11842Y10670D1*
X11861Y10689D1*
X11871Y10708D1*
Y10747D1*
X11861Y10766D1*
X11842Y10785D1*
X11823Y10794D1*
X11709Y10856D2*
X11699Y10875D1*
X11670Y10904D1*
X11871D1*
Y11004D2*
X11670Y11100D1*
Y10966D1*
X12348Y11224D2*
X12329Y11215D1*
X12310Y11196D1*
X12300Y11177D1*
Y11138D1*
X12310Y11119D1*
X12329Y11100D1*
X12348Y11091D1*
X12377Y11081D1*
X12425D1*
X12453Y11091D1*
X12472Y11100D1*
X12491Y11119D1*
X12501Y11138D1*
Y11177D1*
X12491Y11196D1*
X12472Y11215D1*
X12453Y11224D1*
X12339Y11286D2*
X12329Y11305D1*
X12300Y11334D1*
X12501D1*
X12300Y11444D2*
X12310Y11415D1*
X12329Y11405D1*
X12348D1*
X12367Y11415D1*
X12377Y11434D1*
X12386Y11472D1*
X12396Y11501D1*
X12415Y11520D1*
X12434Y11530D1*
X12463D1*
X12482Y11520D1*
X12492Y11511D1*
X12501Y11482D1*
Y11444D1*
X12492Y11415D1*
X12482Y11405D1*
X12463Y11396D1*
X12434D1*
X12415Y11405D1*
X12396Y11425D1*
X12386Y11453D1*
X12377Y11491D1*
X12367Y11511D1*
X12348Y11520D1*
X12329D1*
X12310Y11511D1*
X12300Y11482D1*
Y11444D1*
X12898Y11229D2*
X12879Y11220D1*
X12860Y11200D1*
X12850Y11181D1*
Y11143D1*
X12860Y11124D1*
X12879Y11105D1*
X12898Y11095D1*
X12927Y11086D1*
X12975D1*
X13003Y11095D1*
X13022Y11105D1*
X13041Y11124D1*
X13051Y11143D1*
Y11181D1*
X13041Y11200D1*
X13022Y11220D1*
X13003Y11229D1*
X12889Y11291D2*
X12879Y11310D1*
X12850Y11339D1*
X13051D1*
X12917Y11525D2*
X12946Y11515D1*
X12965Y11496D1*
X12975Y11468D1*
Y11458D1*
X12965Y11429D1*
X12946Y11410D1*
X12917Y11401D1*
X12908D1*
X12879Y11410D1*
X12860Y11429D1*
X12850Y11458D1*
Y11468D1*
X12860Y11496D1*
X12879Y11515D1*
X12917Y11525D1*
X12965D1*
X13013Y11515D1*
X13042Y11496D1*
X13051Y11468D1*
Y11449D1*
X13042Y11420D1*
X13022Y11410D1*
X2470Y7669D2*
Y7468D1*
X2537D1*
X2566Y7478D1*
X2585Y7497D1*
X2595Y7516D1*
X2604Y7545D1*
Y7593D1*
X2595Y7621D1*
X2585Y7640D1*
X2566Y7660D1*
X2537Y7669D1*
X2470D1*
X2666Y7631D2*
X2685Y7640D1*
X2714Y7669D1*
Y7468D1*
X9169Y1529D2*
Y1328D1*
X9236D1*
X9264Y1337D1*
X9283Y1356D1*
X9293Y1376D1*
X9303Y1404D1*
Y1452D1*
X9293Y1481D1*
X9283Y1500D1*
X9264Y1519D1*
X9236Y1529D1*
X9169D1*
X9374Y1481D2*
Y1490D1*
X9383Y1509D1*
X9393Y1519D1*
X9412Y1528D1*
X9450D1*
X9469Y1519D1*
X9479Y1509D1*
X9489Y1490D1*
Y1471D1*
X9479Y1452D1*
X9460Y1423D1*
X9364Y1328D1*
X9498D1*
X7542Y1529D2*
Y1328D1*
X7609D1*
X7637Y1337D1*
X7657Y1356D1*
X7666Y1376D1*
X7676Y1404D1*
Y1452D1*
X7666Y1481D1*
X7657Y1500D1*
X7637Y1519D1*
X7609Y1529D1*
X7542D1*
X7757Y1528D2*
X7862D1*
X7804Y1452D1*
X7833D1*
X7852Y1442D1*
X7862Y1433D1*
X7871Y1404D1*
Y1385D1*
X7862Y1356D1*
X7843Y1337D1*
X7814Y1328D1*
X7785D1*
X7757Y1337D1*
X7747Y1347D1*
X7737Y1366D1*
X2985Y2600D2*
Y2399D1*
X3052D1*
X3081Y2409D1*
X3100Y2428D1*
X3109Y2447D1*
X3119Y2475D1*
Y2523D1*
X3109Y2552D1*
X3100Y2571D1*
X3081Y2590D1*
X3052Y2600D1*
X2985D1*
X3276Y2399D2*
Y2600D1*
X3181Y2466D1*
X3324D1*
X2876Y3210D2*
Y3009D1*
X2943D1*
X2971Y3019D1*
X2991Y3038D1*
X3000Y3057D1*
X3010Y3085D1*
Y3133D1*
X3000Y3162D1*
X2991Y3181D1*
X2971Y3200D1*
X2943Y3210D1*
X2876D1*
X3186Y3181D2*
X3177Y3200D1*
X3148Y3210D1*
X3129D1*
X3100Y3200D1*
X3081Y3171D1*
X3071Y3124D1*
Y3076D1*
X3081Y3038D1*
X3100Y3018D1*
X3129Y3009D1*
X3138D1*
X3167Y3018D1*
X3186Y3038D1*
X3196Y3066D1*
Y3076D1*
X3186Y3105D1*
X3167Y3124D1*
X3138Y3133D1*
X3129D1*
X3100Y3124D1*
X3081Y3105D1*
X3071Y3076D1*
X1252Y10329D2*
Y10128D1*
X1319D1*
X1347Y10137D1*
X1367Y10156D1*
X1376Y10176D1*
X1386Y10204D1*
Y10252D1*
X1376Y10281D1*
X1367Y10300D1*
X1347Y10319D1*
X1319Y10329D1*
X1252D1*
X1486Y10128D2*
X1581Y10328D1*
X1447D1*
X1252Y9599D2*
Y9398D1*
X1319D1*
X1348Y9407D1*
X1367Y9426D1*
X1376Y9446D1*
X1386Y9474D1*
Y9522D1*
X1376Y9551D1*
X1367Y9570D1*
X1348Y9589D1*
X1319Y9599D1*
X1252D1*
X1495Y9598D2*
X1467Y9589D1*
X1457Y9570D1*
Y9551D1*
X1467Y9532D1*
X1486Y9522D1*
X1524Y9512D1*
X1553Y9503D1*
X1572Y9484D1*
X1581Y9465D1*
Y9436D1*
X1572Y9417D1*
X1562Y9407D1*
X1534Y9398D1*
X1495D1*
X1467Y9407D1*
X1457Y9417D1*
X1448Y9436D1*
Y9465D1*
X1457Y9484D1*
X1476Y9503D1*
X1505Y9512D1*
X1543Y9522D1*
X1562Y9532D1*
X1572Y9551D1*
Y9570D1*
X1562Y9589D1*
X1534Y9598D1*
X1495D1*
X2718Y7817D2*
Y7616D1*
X2785D1*
X2814Y7625D1*
X2833Y7644D1*
X2842Y7664D1*
X2852Y7692D1*
Y7740D1*
X2842Y7769D1*
X2833Y7788D1*
X2814Y7807D1*
X2785Y7817D1*
X2718D1*
X2914D2*
Y7616D1*
X3109Y7788D2*
X3090Y7807D1*
X3062Y7817D1*
X3023D1*
X2995Y7807D1*
X2975Y7788D1*
Y7769D1*
X2985Y7750D1*
X2995Y7740D1*
X3014Y7731D1*
X3071Y7711D1*
X3090Y7702D1*
X3100Y7692D1*
X3109Y7673D1*
Y7644D1*
X3090Y7625D1*
X3062Y7616D1*
X3023D1*
X2995Y7625D1*
X2975Y7644D1*
X3324Y7616D2*
X3248Y7817D1*
X3171Y7616D1*
X3200Y7683D2*
X3295D1*
X3386Y7817D2*
Y7616D1*
X3472D1*
X3501Y7625D1*
X3510Y7635D1*
X3520Y7654D1*
Y7683D1*
X3510Y7702D1*
X3501Y7711D1*
X3472Y7721D1*
X3501Y7731D1*
X3510Y7740D1*
X3520Y7759D1*
Y7778D1*
X3510Y7797D1*
X3501Y7807D1*
X3472Y7817D1*
X3386D1*
Y7721D2*
X3472D1*
X3582Y7817D2*
Y7616D1*
X3696D1*
X3882Y7817D2*
X3758D1*
Y7616D1*
X3882D1*
X3758Y7721D2*
X3835D1*
X3944Y7582D2*
X4126D1*
X4188Y7817D2*
Y7616D1*
X4255D1*
X4283Y7625D1*
X4303Y7644D1*
X4312Y7664D1*
X4322Y7692D1*
Y7740D1*
X4312Y7769D1*
X4303Y7788D1*
X4283Y7807D1*
X4255Y7817D1*
X4188D1*
X4383Y7711D2*
X4470D1*
X4498Y7721D1*
X4508Y7731D1*
X4517Y7750D1*
Y7778D1*
X4508Y7797D1*
X4498Y7807D1*
X4470Y7817D1*
X4383D1*
Y7616D1*
X4579Y7711D2*
X4665D1*
X4694Y7721D1*
X4704Y7731D1*
X4713Y7750D1*
Y7778D1*
X4704Y7797D1*
X4694Y7807D1*
X4665Y7817D1*
X4579D1*
Y7616D1*
X4928D2*
Y7817D1*
X4851Y7616D1*
X4775Y7817D1*
Y7616D1*
X2143Y2745D2*
X2344D1*
Y2860D1*
X2143Y2922D2*
X2344D1*
Y3008D1*
X2335Y3037D1*
X2325Y3046D1*
X2306Y3056D1*
X2277D1*
X2258Y3046D1*
X2249Y3037D1*
X2239Y3008D1*
X2229Y3037D1*
X2220Y3046D1*
X2201Y3056D1*
X2182D1*
X2163Y3046D1*
X2153Y3037D1*
X2143Y3008D1*
Y2922D1*
X2239D2*
Y3008D1*
X2143Y3242D2*
Y3118D1*
X2344D1*
Y3242D1*
X2239Y3118D2*
Y3194D1*
X2143Y3428D2*
Y3304D1*
X2344D1*
Y3428D1*
X2239Y3304D2*
Y3380D1*
X2249Y3490D2*
Y3576D1*
X2239Y3604D1*
X2229Y3614D1*
X2210Y3624D1*
X2182D1*
X2163Y3614D1*
X2153Y3604D1*
X2143Y3576D1*
Y3490D1*
X2344D1*
X2378Y3685D2*
Y3867D1*
X2143Y4025D2*
X2296D1*
X2325Y4015D1*
X2335Y4005D1*
X2344Y3986D1*
Y3967D1*
X2335Y3948D1*
X2325Y3939D1*
X2296Y3929D1*
X2277D1*
X2249Y4086D2*
Y4173D1*
X2239Y4201D1*
X2229Y4211D1*
X2210Y4220D1*
X2182D1*
X2163Y4211D1*
X2153Y4201D1*
X2143Y4173D1*
Y4086D1*
X2344D1*
X6216Y12099D2*
Y11898D1*
X6331D1*
X6392Y11994D2*
X6479D1*
X6507Y12003D1*
X6517Y12013D1*
X6526Y12032D1*
Y12061D1*
X6517Y12080D1*
X6507Y12090D1*
X6479Y12099D1*
X6392D1*
Y11898D1*
X6588Y12061D2*
X6607Y12070D1*
X6636Y12099D1*
Y11898D1*
X693Y8663D2*
X779D1*
X808Y8672D1*
X817Y8682D1*
X827Y8701D1*
Y8730D1*
X817Y8749D1*
X808Y8758D1*
X779Y8768D1*
X693D1*
Y8567D1*
X889Y8663D2*
X975D1*
X1003Y8672D1*
X1013Y8682D1*
X1023Y8701D1*
Y8730D1*
X1013Y8749D1*
X1003Y8758D1*
X975Y8768D1*
X889D1*
Y8567D1*
X1237D2*
Y8768D1*
X1161Y8567D1*
X1084Y8768D1*
Y8567D1*
X1299Y8729D2*
X1318Y8739D1*
X1347Y8768D1*
Y8567D1*
X7398Y9922D2*
X7484D1*
X7513Y9931D1*
X7523Y9941D1*
X7532Y9960D1*
Y9979D1*
X7523Y9998D1*
X7513Y10008D1*
X7484Y10017D1*
X7398D1*
Y9816D1*
X7465Y9922D2*
X7532Y9816D1*
X7594Y9979D2*
X7613Y9989D1*
X7642Y10017D1*
Y9816D1*
X2316Y11771D2*
Y11857D1*
X2306Y11885D1*
X2297Y11895D1*
X2278Y11904D1*
X2259D1*
X2239Y11895D1*
X2230Y11885D1*
X2220Y11857D1*
Y11771D1*
X2421D1*
X2316Y11837D2*
X2421Y11904D1*
X2220Y11985D2*
Y12090D1*
X2297Y12033D1*
Y12062D1*
X2306Y12081D1*
X2316Y12090D1*
X2345Y12100D1*
X2364D1*
X2392Y12090D1*
X2412Y12071D1*
X2421Y12043D1*
Y12014D1*
X2412Y11985D1*
X2402Y11976D1*
X2383Y11966D1*
X7575Y2224D2*
X7661D1*
X7690Y2234D1*
X7700Y2243D1*
X7709Y2262D1*
Y2282D1*
X7700Y2301D1*
X7690Y2310D1*
X7661Y2320D1*
X7575D1*
Y2119D1*
X7642Y2224D2*
X7709Y2119D1*
X7886Y2291D2*
X7876Y2310D1*
X7848Y2320D1*
X7829D1*
X7800Y2310D1*
X7781Y2281D1*
X7771Y2234D1*
Y2186D1*
X7781Y2148D1*
X7800Y2128D1*
X7829Y2119D1*
X7838D1*
X7867Y2128D1*
X7886Y2148D1*
X7895Y2176D1*
Y2186D1*
X7886Y2215D1*
X7867Y2234D1*
X7838Y2243D1*
X7829D1*
X7800Y2234D1*
X7781Y2215D1*
X7771Y2186D1*
X9130Y2204D2*
X9216D1*
X9245Y2214D1*
X9254Y2223D1*
X9264Y2242D1*
Y2262D1*
X9254Y2281D1*
X9245Y2290D1*
X9216Y2300D1*
X9130D1*
Y2099D1*
X9197Y2204D2*
X9264Y2099D1*
X9364D2*
X9459Y2300D1*
X9326D1*
X6295Y8152D2*
X6381D1*
X6410Y8162D1*
X6420Y8172D1*
X6429Y8191D1*
Y8210D1*
X6420Y8229D1*
X6410Y8239D1*
X6381Y8248D1*
X6295D1*
Y8047D1*
X6362Y8152D2*
X6429Y8047D1*
X6539Y8248D2*
X6510Y8238D1*
X6500Y8219D1*
Y8200D1*
X6510Y8181D1*
X6529Y8171D1*
X6567Y8162D1*
X6596Y8152D1*
X6615Y8133D1*
X6625Y8114D1*
Y8085D1*
X6615Y8066D1*
X6606Y8057D1*
X6577Y8047D1*
X6539D1*
X6510Y8057D1*
X6500Y8066D1*
X6491Y8085D1*
Y8114D1*
X6500Y8133D1*
X6520Y8152D1*
X6548Y8162D1*
X6586Y8171D1*
X6606Y8181D1*
X6615Y8200D1*
Y8219D1*
X6606Y8238D1*
X6577Y8248D1*
X6539D1*
X2265Y8824D2*
X2351D1*
X2379Y8834D1*
X2389Y8843D1*
X2399Y8862D1*
Y8882D1*
X2389Y8901D1*
X2379Y8910D1*
X2351Y8920D1*
X2265D1*
Y8719D1*
X2332Y8824D2*
X2399Y8719D1*
X2585Y8853D2*
X2575Y8824D1*
X2556Y8805D1*
X2527Y8795D1*
X2518D1*
X2489Y8805D1*
X2470Y8824D1*
X2460Y8853D1*
Y8862D1*
X2470Y8891D1*
X2489Y8910D1*
X2518Y8920D1*
X2527D1*
X2556Y8910D1*
X2575Y8891D1*
X2585Y8853D1*
Y8805D1*
X2575Y8757D1*
X2556Y8728D1*
X2527Y8719D1*
X2508D1*
X2480Y8728D1*
X2470Y8748D1*
X3845Y4724D2*
X3931D1*
X3960Y4734D1*
X3969Y4743D1*
X3979Y4762D1*
Y4782D1*
X3969Y4801D1*
X3960Y4810D1*
X3931Y4820D1*
X3845D1*
Y4619D1*
X3912Y4724D2*
X3979Y4619D1*
X4041Y4781D2*
X4060Y4791D1*
X4089Y4820D1*
Y4619D1*
X4208Y4820D2*
X4179Y4810D1*
X4160Y4781D1*
X4150Y4734D1*
Y4705D1*
X4160Y4657D1*
X4179Y4628D1*
X4208Y4619D1*
X4227D1*
X4256Y4628D1*
X4275Y4657D1*
X4284Y4705D1*
Y4734D1*
X4275Y4781D1*
X4256Y4810D1*
X4227Y4820D1*
X4208D1*
X4275Y4781D2*
X4160Y4657D1*
X5436Y9005D2*
Y9091D1*
X5426Y9120D1*
X5417Y9129D1*
X5398Y9139D1*
X5379D1*
X5359Y9129D1*
X5350Y9120D1*
X5340Y9091D1*
Y9005D1*
X5541D1*
X5436Y9072D2*
X5541Y9139D1*
X5379Y9201D2*
X5369Y9220D1*
X5340Y9249D1*
X5541D1*
X5388Y9320D2*
X5379D1*
X5359Y9330D1*
X5350Y9339D1*
X5340Y9358D1*
Y9397D1*
X5350Y9416D1*
X5359Y9425D1*
X5379Y9435D1*
X5398D1*
X5417Y9425D1*
X5445Y9406D1*
X5541Y9310D1*
Y9444D1*
X6146Y9005D2*
Y9091D1*
X6136Y9120D1*
X6127Y9129D1*
X6108Y9139D1*
X6089D1*
X6069Y9129D1*
X6060Y9120D1*
X6050Y9091D1*
Y9005D1*
X6251D1*
X6146Y9072D2*
X6251Y9139D1*
X6089Y9201D2*
X6079Y9220D1*
X6050Y9249D1*
X6251D1*
X6050Y9330D2*
Y9435D1*
X6127Y9377D1*
Y9406D1*
X6136Y9425D1*
X6146Y9435D1*
X6175Y9444D1*
X6194D1*
X6222Y9435D1*
X6242Y9416D1*
X6251Y9387D1*
Y9358D1*
X6242Y9330D1*
X6232Y9320D1*
X6213Y9310D1*
X7676Y12340D2*
Y12426D1*
X7666Y12455D1*
X7657Y12465D1*
X7638Y12474D1*
X7619D1*
X7599Y12465D1*
X7590Y12455D1*
X7580Y12426D1*
Y12340D1*
X7781D1*
X7676Y12407D2*
X7781Y12474D1*
X7619Y12536D2*
X7609Y12555D1*
X7580Y12584D1*
X7781D1*
Y12741D2*
X7580D1*
X7714Y12646D1*
Y12789D1*
X2966Y11705D2*
Y11791D1*
X2956Y11820D1*
X2947Y11829D1*
X2928Y11839D1*
X2909D1*
X2889Y11829D1*
X2880Y11820D1*
X2870Y11791D1*
Y11705D1*
X3071D1*
X2966Y11772D2*
X3071Y11839D1*
X2909Y11901D2*
X2899Y11920D1*
X2870Y11949D1*
X3071D1*
X2870Y12125D2*
Y12030D1*
X2956Y12020D1*
X2947Y12030D1*
X2937Y12058D1*
Y12087D1*
X2947Y12116D1*
X2966Y12135D1*
X2995Y12144D1*
X3014D1*
X3042Y12135D1*
X3062Y12116D1*
X3071Y12087D1*
Y12058D1*
X3062Y12030D1*
X3052Y12020D1*
X3033Y12010D1*
X746Y5682D2*
X832D1*
X861Y5692D1*
X871Y5701D1*
X880Y5720D1*
Y5740D1*
X871Y5759D1*
X861Y5768D1*
X832Y5778D1*
X746D1*
Y5577D1*
X813Y5682D2*
X880Y5577D1*
X1076Y5749D2*
X1057Y5768D1*
X1028Y5778D1*
X990D1*
X961Y5768D1*
X942Y5749D1*
Y5730D1*
X952Y5711D1*
X961Y5701D1*
X980Y5692D1*
X1038Y5673D1*
X1057Y5663D1*
X1067Y5653D1*
X1076Y5634D1*
Y5606D1*
X1057Y5587D1*
X1028Y5577D1*
X990D1*
X961Y5587D1*
X942Y5606D1*
X1272Y5749D2*
X1253Y5768D1*
X1224Y5778D1*
X1186D1*
X1157Y5768D1*
X1138Y5749D1*
Y5730D1*
X1148Y5711D1*
X1157Y5701D1*
X1176Y5692D1*
X1234Y5673D1*
X1253Y5663D1*
X1262Y5653D1*
X1272Y5634D1*
Y5606D1*
X1253Y5587D1*
X1224Y5577D1*
X1186D1*
X1157Y5587D1*
X1138Y5606D1*
X1334Y5778D2*
Y5577D1*
X12805Y7440D2*
X12786Y7420D1*
X12777Y7392D1*
Y7354D1*
X12786Y7325D1*
X12805Y7306D1*
X12824D1*
X12844Y7315D1*
X12853Y7325D1*
X12863Y7344D1*
X12882Y7401D1*
X12891Y7420D1*
X12901Y7430D1*
X12920Y7440D1*
X12949D1*
X12968Y7420D1*
X12978Y7392D1*
Y7354D1*
X12968Y7325D1*
X12949Y7306D1*
X12777Y7626D2*
Y7501D1*
X12978D1*
Y7626D1*
X12872Y7501D2*
Y7578D1*
Y7687D2*
Y7773D1*
X12863Y7802D1*
X12853Y7812D1*
X12834Y7821D1*
X12815D1*
X12796Y7812D1*
X12786Y7802D1*
X12777Y7773D1*
Y7687D1*
X12978D1*
X12872Y7754D2*
X12978Y7821D1*
X12777Y7883D2*
X12978D1*
Y8098D2*
X12777Y8021D1*
X12978Y7945D1*
X12911Y7973D2*
Y8069D1*
X12777Y8160D2*
X12978D1*
Y8274D1*
X9285Y8421D2*
Y8277D1*
X9295Y8248D1*
X9314Y8229D1*
X9343Y8220D1*
X9362D1*
X9390Y8229D1*
X9410Y8248D1*
X9419Y8277D1*
Y8421D1*
X9500Y8420D2*
X9605D1*
X9548Y8344D1*
X9577D1*
X9596Y8334D1*
X9605Y8325D1*
X9615Y8296D1*
Y8277D1*
X9605Y8248D1*
X9586Y8229D1*
X9557Y8220D1*
X9529D1*
X9500Y8229D1*
X9491Y8239D1*
X9481Y8258D1*
X3417Y11296D2*
Y11152D1*
X3427Y11124D1*
X3446Y11105D1*
X3475Y11095D1*
X3494D1*
X3522Y11105D1*
X3542Y11124D1*
X3551Y11152D1*
Y11296D1*
X3728Y11267D2*
X3718Y11286D1*
X3689Y11296D1*
X3670D1*
X3642Y11286D1*
X3622Y11257D1*
X3613Y11210D1*
Y11162D1*
X3622Y11124D1*
X3642Y11104D1*
X3670Y11095D1*
X3680D1*
X3708Y11104D1*
X3728Y11124D1*
X3737Y11152D1*
Y11162D1*
X3728Y11191D1*
X3708Y11210D1*
X3680Y11219D1*
X3670D1*
X3642Y11210D1*
X3622Y11191D1*
X3613Y11162D1*
X9469Y11715D2*
Y11572D1*
X9478Y11543D1*
X9497Y11524D1*
X9526Y11514D1*
X9545D1*
X9574Y11524D1*
X9593Y11543D1*
X9603Y11572D1*
Y11715D1*
X9789Y11648D2*
X9779Y11619D1*
X9760Y11600D1*
X9731Y11591D1*
X9722D1*
X9693Y11600D1*
X9674Y11619D1*
X9664Y11648D1*
Y11658D1*
X9674Y11686D1*
X9693Y11705D1*
X9722Y11715D1*
X9731D1*
X9760Y11705D1*
X9779Y11686D1*
X9789Y11648D1*
Y11600D1*
X9779Y11552D1*
X9760Y11524D1*
X9731Y11514D1*
X9712D1*
X9684Y11524D1*
X9674Y11543D1*
X10135Y14736D2*
Y14593D1*
X10145Y14564D1*
X10164Y14545D1*
X10192Y14535D1*
X10212D1*
X10240Y14545D1*
X10259Y14564D1*
X10269Y14593D1*
Y14736D1*
X10331Y14698D2*
X10350Y14707D1*
X10379Y14736D1*
Y14535D1*
X10498Y14736D2*
X10469Y14726D1*
X10450Y14698D1*
X10440Y14650D1*
Y14621D1*
X10450Y14573D1*
X10469Y14545D1*
X10498Y14535D1*
X10517D1*
X10546Y14545D1*
X10565Y14573D1*
X10574Y14621D1*
Y14650D1*
X10565Y14698D1*
X10546Y14726D1*
X10517Y14736D1*
X10498D1*
X10565Y14698D2*
X10450Y14573D1*
X5773Y5748D2*
X5907Y5548D1*
Y5748D2*
X5773Y5548D1*
X5969Y5710D2*
X5988Y5720D1*
X6017Y5748D1*
Y5548D1*
%LNTopMask*%
D21*
X2820Y4894D3*
Y4540D3*
D89*
X1030Y11550D3*
Y10550D3*
D25*
X1990Y10640D3*
Y11309D3*
X5480Y11420D3*
Y10751D3*
D26*
X12230Y8760D3*
X11561D3*
D25*
X5560Y7050D3*
Y7719D3*
X12160Y6340D3*
Y5671D3*
D26*
X2810Y5410D3*
X2141D3*
D25*
X7520Y10560D3*
Y11229D3*
X4210Y2110D3*
Y2779D3*
D27*
X5560Y5810D3*
X6269D3*
X6270Y3630D3*
X5561D3*
D85*
X12160Y11210D3*
Y10541D3*
X12790Y11640D3*
Y10971D3*
X13340Y11640D3*
Y10971D3*
D27*
X2890Y7140D3*
X2181D3*
D28*
X8920Y970D3*
X9747D3*
X8120D3*
X7293D3*
D83*
X3430Y2110D3*
X2761D3*
X2760Y2720D3*
X3429D3*
D28*
X1830Y9770D3*
X1003D3*
X1830Y9040D3*
X1003D3*
D29*
X4000Y7130D3*
X3646D3*
D47*
X1340Y1310D3*
Y13318D3*
X13348D3*
Y1310D3*
D21*
X2830Y3660D3*
Y3306D3*
D30*
X6800Y11570D3*
X6426D3*
X6052D3*
Y10546D3*
X6800D3*
D89*
X1020Y8160D3*
Y7160D3*
Y6160D3*
D25*
X7520Y8810D3*
Y9479D3*
D85*
X2710Y12270D3*
Y11601D3*
D26*
X8070Y1640D3*
X7401D3*
X8960Y1620D3*
X9629D3*
D25*
X6460Y7710D3*
Y7041D3*
D26*
X2090Y8240D3*
X2759D3*
X3730Y4140D3*
X4399D3*
D85*
X4410Y11610D3*
Y12279D3*
X5830Y8890D3*
Y9559D3*
X6540Y8890D3*
Y9559D3*
X8070Y12230D3*
Y12899D3*
X3360Y11590D3*
Y12259D3*
D89*
X1040Y3170D3*
Y4170D3*
Y5170D3*
D31*
X6150Y13430D3*
X4150D3*
D89*
X13660Y6790D3*
Y7790D3*
Y8790D3*
D32*
X7760Y7290D3*
Y6975D3*
Y6660D3*
Y6345D3*
Y6030D3*
Y5715D3*
Y5400D3*
Y5085D3*
D33*
X8348Y4498D3*
X8663D3*
X8978D3*
X9293D3*
X9607D3*
X9922D3*
X10237D3*
X10552D3*
D32*
X11140Y5085D3*
Y5400D3*
Y5715D3*
Y6030D3*
Y6345D3*
Y6660D3*
Y6975D3*
Y7290D3*
D33*
X10552Y7878D3*
X10237D3*
X9922D3*
X9607D3*
X9293D3*
X8978D3*
X8663D3*
X8348D3*
D63*
X3090Y10560D3*
Y10363D3*
Y10166D3*
Y9969D3*
D61*
X3366Y9694D3*
X3562D3*
X3759D3*
X3956D3*
D63*
X4232Y9969D3*
Y10166D3*
Y10363D3*
Y10560D3*
D61*
X3956Y10836D3*
X3759D3*
X3562D3*
X3366D3*
D59*
X3661Y10265D3*
D63*
X10520Y9680D3*
Y9877D3*
Y10074D3*
Y10271D3*
Y10467D3*
Y10664D3*
Y10861D3*
D61*
X10126Y11255D3*
X9929D3*
X9733D3*
X9536D3*
X9339D3*
X9142D3*
X8945D3*
D63*
X8551Y10861D3*
Y10664D3*
Y10467D3*
Y10271D3*
Y10074D3*
Y9877D3*
Y9680D3*
D61*
X8945Y9286D3*
X9142D3*
X9339D3*
X9536D3*
X9733D3*
X9929D3*
X10126D3*
D55*
X9536Y10271D3*
G36*
X8780Y12073D2*
Y12727D1*
X9646D1*
Y12073D1*
X8780D1*
G37*
G36*
X9577Y12746D2*
X8780D1*
Y13101D1*
X8987D1*
Y14065D1*
X9577D1*
Y12746D1*
G37*
G36*
X11723Y13101D2*
X11930D1*
Y12746D1*
X11132D1*
Y14065D1*
X11723D1*
Y13101D1*
G37*
D53*
X10745Y13703D3*
X9965D3*
D51*
X10355Y12481D3*
X10099D3*
X10611D3*
X9843D3*
X10867D3*
G36*
X11930Y12727D2*
Y12073D1*
X11063D1*
Y12727D1*
X11930D1*
G37*
G36*
X5974Y5456D2*
X6446D1*
Y4904D1*
X5974D1*
Y5456D1*
G37*
G36*
X5344D2*
X5816D1*
Y4904D1*
X5344D1*
Y5456D1*
G37*
G36*
Y4589D2*
X5816D1*
Y4038D1*
X5344D1*
Y4589D1*
G37*
G36*
X5974D2*
X6446D1*
Y4038D1*
X5974D1*
Y4589D1*
G37*
%LNBotMask*%
D89*
X1030Y6160D3*
Y7160D3*
Y8160D3*
Y5160D3*
Y4160D3*
Y3160D3*
D27*
X11990Y9550D3*
X12699D3*
D47*
X1340Y1310D3*
Y13318D3*
X13348D3*
Y1310D3*
D25*
X4240Y6650D3*
Y7319D3*
D26*
X2480Y3140D3*
X3149D3*
X3840Y5260D3*
X4509D3*
D31*
X6150Y13430D3*
X5150D3*
X4150D3*
G36*
X5426Y11124D2*
X4914D1*
Y10336D1*
X5426D1*
Y11124D1*
G37*
G36*
X6213D2*
X5701D1*
Y10336D1*
X6213D1*
Y11124D1*
G37*
G36*
X7001D2*
X6489D1*
Y10336D1*
X7001D1*
Y11124D1*
G37*
G36*
X7788D2*
X7276D1*
Y10336D1*
X7788D1*
Y11124D1*
G37*
G36*
X8576D2*
X8064D1*
Y10336D1*
X8576D1*
Y11124D1*
G37*
G36*
X9363D2*
X8851D1*
Y10336D1*
X9363D1*
Y11124D1*
G37*
G36*
X10150D2*
X9639D1*
Y10336D1*
X10150D1*
Y11124D1*
G37*
G36*
X10938D2*
X10426D1*
Y10336D1*
X10938D1*
Y11124D1*
G37*
G36*
Y4824D2*
X10426D1*
Y4037D1*
X10938D1*
Y4824D1*
G37*
G36*
X10150D2*
X9639D1*
Y4037D1*
X10150D1*
Y4824D1*
G37*
G36*
X9363D2*
X8851D1*
Y4037D1*
X9363D1*
Y4824D1*
G37*
G36*
X8576D2*
X8064D1*
Y4037D1*
X8576D1*
Y4824D1*
G37*
G36*
X7788D2*
X7276D1*
Y4037D1*
X7788D1*
Y4824D1*
G37*
G36*
X7001D2*
X6489D1*
Y4037D1*
X7001D1*
Y4824D1*
G37*
G36*
X6213D2*
X5701D1*
Y4037D1*
X6213D1*
Y4824D1*
G37*
G36*
X5426D2*
X4914D1*
Y4037D1*
X5426D1*
Y4824D1*
G37*
D67*
X5150Y12560D3*
Y11280D3*
D65*
X4780Y11920D3*
X5520D3*
D41*
X2710Y7020D3*
X3576Y6646D3*
Y7394D3*
G36*
X8780Y12073D2*
Y12727D1*
X9646D1*
Y12073D1*
X8780D1*
G37*
G36*
X9577Y12746D2*
X8780D1*
Y13101D1*
X8987D1*
Y14065D1*
X9577D1*
Y12746D1*
G37*
G36*
X11723Y13101D2*
X11930D1*
Y12746D1*
X11132D1*
Y14065D1*
X11723D1*
Y13101D1*
G37*
G36*
X11930Y12727D2*
Y12073D1*
X11063D1*
Y12727D1*
X11930D1*
G37*
%LNBotSilk*%
X11719Y9362D2*
D10*
Y9738D1*
X12226Y9314D2*
D18*
X12462D1*
X12226Y9786D2*
X12462D1*
G36*
X4090Y6895D2*
X4390D1*
Y7075D1*
X4090D1*
Y6895D1*
G37*
G36*
X2725Y3290D2*
X2905D1*
Y2990D1*
X2725D1*
Y3290D1*
G37*
G36*
X4085Y5410D2*
X4265D1*
Y5110D1*
X4085D1*
Y5410D1*
G37*
X4776Y10730D2*
D20*
Y4431D1*
X11076D2*
Y10730D1*
X7276Y6793D2*
X9245D1*
X7276D2*
Y5533D1*
X9245D1*
X8517Y8564D2*
Y7186D1*
X9894D1*
Y8564D1*
X8517D1*
X9245Y6793D2*
Y5533D1*
X2883Y6460D2*
D18*
X3403D1*
Y7580D1*
X2883D1*
Y6460D1*
X175Y6264D2*
D12*
X156Y6273D1*
X147Y6302D1*
Y6321D1*
X156Y6350D1*
X185Y6369D1*
X233Y6378D1*
X281D1*
X319Y6369D1*
X338Y6350D1*
X348Y6321D1*
Y6311D1*
X338Y6283D1*
X319Y6264D1*
X290Y6254D1*
X281D1*
X252Y6264D1*
X233Y6283D1*
X223Y6311D1*
Y6321D1*
X233Y6350D1*
X252Y6369D1*
X281Y6378D1*
X252Y6192D2*
Y6106D1*
X242Y6078D1*
X233Y6068D1*
X214Y6058D1*
X185D1*
X166Y6068D1*
X156Y6078D1*
X147Y6106D1*
Y6192D1*
X348D1*
Y5843D2*
X147Y5920D1*
X348Y5997D1*
X281Y5968D2*
Y5872D1*
X147Y5782D2*
X348D1*
Y5715D1*
X338Y5686D1*
X319Y5667D1*
X300Y5657D1*
X271Y5648D1*
X223D1*
X194Y5657D1*
X175Y5667D1*
X156Y5686D1*
X147Y5715D1*
Y5782D1*
X381Y5586D2*
Y5404D1*
X147Y5343D2*
X348D1*
X195Y5271D2*
X185D1*
X166Y5262D1*
X156Y5252D1*
X147Y5233D1*
Y5195D1*
X156Y5176D1*
X166Y5166D1*
X185Y5156D1*
X204D1*
X223Y5166D1*
X252Y5185D1*
X348Y5281D1*
Y5147D1*
X194Y4942D2*
X175Y4951D1*
X156Y4970D1*
X147Y4989D1*
Y5028D1*
X156Y5047D1*
X175Y5066D1*
X194Y5076D1*
X223Y5085D1*
X271D1*
X300Y5076D1*
X319Y5066D1*
X338Y5047D1*
X348Y5028D1*
Y4989D1*
X338Y4970D1*
X319Y4951D1*
X300Y4942D1*
X12453Y10079D2*
Y9878D1*
X12386D1*
X12357Y9888D1*
X12338Y9907D1*
X12328Y9926D1*
X12319Y9955D1*
Y10003D1*
X12328Y10031D1*
X12338Y10050D1*
X12357Y10070D1*
X12386Y10079D1*
X12453D1*
X12142D2*
X12238D1*
X12247Y9993D1*
X12238Y10002D1*
X12209Y10012D1*
X12180D1*
X12152Y10002D1*
X12132Y9983D1*
X12123Y9955D1*
Y9936D1*
X12132Y9907D1*
X12152Y9888D1*
X12180Y9878D1*
X12209D1*
X12238Y9888D1*
X12247Y9897D1*
X12257Y9916D1*
X4405Y7762D2*
X4319D1*
X4290Y7771D1*
X4280Y7781D1*
X4271Y7800D1*
Y7819D1*
X4280Y7838D1*
X4290Y7848D1*
X4319Y7857D1*
X4405D1*
Y7656D1*
X4338Y7762D2*
X4271Y7656D1*
X4199Y7809D2*
Y7819D1*
X4190Y7838D1*
X4180Y7848D1*
X4161Y7857D1*
X4123D1*
X4104Y7848D1*
X4094Y7838D1*
X4085Y7819D1*
Y7800D1*
X4094Y7781D1*
X4113Y7752D1*
X4209Y7656D1*
X4075D1*
X2984Y3724D2*
X2898D1*
X2870Y3734D1*
X2860Y3743D1*
X2850Y3762D1*
Y3782D1*
X2860Y3801D1*
X2870Y3810D1*
X2898Y3820D1*
X2984D1*
Y3619D1*
X2917Y3724D2*
X2850Y3619D1*
X2693D2*
Y3820D1*
X2789Y3686D1*
X2645D1*
X4339Y5844D2*
X4253D1*
X4225Y5854D1*
X4215Y5863D1*
X4206Y5882D1*
Y5902D1*
X4215Y5921D1*
X4225Y5930D1*
X4253Y5940D1*
X4339D1*
Y5739D1*
X4273Y5844D2*
X4206Y5739D1*
X4029Y5940D2*
X4125D1*
X4134Y5854D1*
X4125Y5863D1*
X4096Y5873D1*
X4067D1*
X4039Y5863D1*
X4019Y5844D1*
X4010Y5815D1*
Y5796D1*
X4019Y5768D1*
X4039Y5748D1*
X4067Y5739D1*
X4096D1*
X4125Y5748D1*
X4134Y5758D1*
X4144Y5777D1*
X5138Y14494D2*
X5157Y14513D1*
X5186Y14523D1*
X5224D1*
X5253Y14513D1*
X5272Y14494D1*
Y14475D1*
X5262Y14456D1*
X5253Y14446D1*
X5234Y14437D1*
X5176Y14418D1*
X5157Y14408D1*
X5147Y14398D1*
X5138Y14379D1*
Y14351D1*
X5157Y14332D1*
X5186Y14322D1*
X5224D1*
X5253Y14332D1*
X5272Y14351D1*
X5076Y14484D2*
X5057Y14494D1*
X5028Y14523D1*
Y14322D1*
X8091Y11417D2*
Y11273D1*
X8081Y11244D1*
X8062Y11225D1*
X8033Y11216D1*
X8014D1*
X7986Y11225D1*
X7966Y11244D1*
X7957Y11273D1*
Y11417D1*
X7885Y11369D2*
Y11378D1*
X7876Y11397D1*
X7866Y11407D1*
X7847Y11416D1*
X7809D1*
X7790Y11407D1*
X7780Y11397D1*
X7771Y11378D1*
Y11359D1*
X7780Y11340D1*
X7799Y11311D1*
X7895Y11216D1*
X7761D1*
X5315Y13063D2*
Y12919D1*
X5305Y12891D1*
X5286Y12872D1*
X5257Y12862D1*
X5238D1*
X5210Y12872D1*
X5190Y12891D1*
X5181Y12919D1*
Y13063D1*
X5004D2*
X5100D1*
X5109Y12977D1*
X5100Y12986D1*
X5071Y12996D1*
X5043D1*
X5014Y12986D1*
X4995Y12967D1*
X4985Y12938D1*
Y12919D1*
X4995Y12891D1*
X5014Y12871D1*
X5043Y12862D1*
X5071D1*
X5100Y12871D1*
X5109Y12881D1*
X5119Y12900D1*
X3308Y7884D2*
Y7740D1*
X3298Y7712D1*
X3279Y7693D1*
X3250Y7683D1*
X3231D1*
X3203Y7693D1*
X3183Y7712D1*
X3174Y7740D1*
Y7884D1*
X3074Y7683D2*
X2978Y7884D1*
X3112D1*
%LNBotAssy*%
X439Y8475D2*
D10*
X1621D1*
Y2845D1*
X439D1*
Y8475D1*
D19*
X1030Y6160D3*
Y7160D3*
Y8160D3*
Y5160D3*
Y4160D3*
Y3160D3*
X11719Y9362D2*
D10*
Y9738D1*
X12226Y9314D2*
D18*
X12462D1*
X12226Y9786D2*
X12462D1*
X11719D2*
D10*
X12856D1*
Y9314D1*
X11719D1*
Y9786D1*
D27*
X11990Y9550D3*
X12699D3*
X4627Y6405D2*
D22*
Y7565D1*
X3853D1*
Y6405D1*
X4627D1*
X4410Y6845D2*
D23*
Y7125D1*
X4075Y6845D2*
Y7125D1*
G36*
X4055Y6655D2*
X4429D1*
Y6851D1*
X4055D1*
Y6655D1*
G37*
G36*
Y7115D2*
X4429D1*
Y7311D1*
X4055D1*
Y7115D1*
G37*
G36*
X4090Y6895D2*
X4390D1*
Y7075D1*
X4090D1*
Y6895D1*
G37*
X3853Y7565D2*
D10*
X4627D1*
Y6405D1*
X3853D1*
Y7565D1*
D25*
X4240Y6650D3*
Y7319D3*
X2235Y2753D2*
D22*
X3395D1*
Y3527D1*
X2235D1*
Y2753D1*
X2675Y2970D2*
D23*
X2955D1*
X2675Y3305D2*
X2955D1*
G36*
X2485Y3325D2*
X2681D1*
Y2951D1*
X2485D1*
Y3325D1*
G37*
G36*
X2945D2*
X3141D1*
Y2951D1*
X2945D1*
Y3325D1*
G37*
G36*
X2725Y3290D2*
X2905D1*
Y2990D1*
X2725D1*
Y3290D1*
G37*
X2235Y3527D2*
D10*
X3395D1*
Y2753D1*
X2235D1*
Y3527D1*
D26*
X2480Y3140D3*
X3149D3*
X3595Y4873D2*
D22*
X4755D1*
Y5647D1*
X3595D1*
Y4873D1*
X4035Y5090D2*
D23*
X4315D1*
X4035Y5425D2*
X4315D1*
G36*
X3845Y5445D2*
X4041D1*
Y5071D1*
X3845D1*
Y5445D1*
G37*
G36*
X4305D2*
X4501D1*
Y5071D1*
X4305D1*
Y5445D1*
G37*
G36*
X4085Y5410D2*
X4265D1*
Y5110D1*
X4085D1*
Y5410D1*
G37*
X3595Y5647D2*
D10*
X4755D1*
Y4873D1*
X3595D1*
Y5647D1*
D26*
X3840Y5260D3*
X4509D3*
X3850Y14230D2*
D10*
X6450D1*
Y12630D1*
X3850D1*
Y14230D1*
D31*
X6150Y13430D3*
X5150D3*
X4150D3*
X4776Y10730D2*
D20*
Y4431D1*
X11076D2*
Y10730D1*
X7276Y6793D2*
X9245D1*
X7276D2*
Y5533D1*
X9245D1*
X8517Y8564D2*
Y7186D1*
X9894D1*
Y8564D1*
X8517D1*
X9245Y6793D2*
Y5533D1*
X4776Y10730D2*
X11076D1*
Y4431D2*
X4776D1*
Y11124D2*
D10*
X11076D1*
Y4037D1*
X4776D1*
Y11124D1*
G36*
X5426D2*
X4914D1*
Y10336D1*
X5426D1*
Y11124D1*
G37*
G36*
X6213D2*
X5701D1*
Y10336D1*
X6213D1*
Y11124D1*
G37*
G36*
X7001D2*
X6489D1*
Y10336D1*
X7001D1*
Y11124D1*
G37*
G36*
X7788D2*
X7276D1*
Y10336D1*
X7788D1*
Y11124D1*
G37*
G36*
X8576D2*
X8064D1*
Y10336D1*
X8576D1*
Y11124D1*
G37*
G36*
X9363D2*
X8851D1*
Y10336D1*
X9363D1*
Y11124D1*
G37*
G36*
X10150D2*
X9639D1*
Y10336D1*
X10150D1*
Y11124D1*
G37*
G36*
X10938D2*
X10426D1*
Y10336D1*
X10938D1*
Y11124D1*
G37*
G36*
Y4824D2*
X10426D1*
Y4037D1*
X10938D1*
Y4824D1*
G37*
G36*
X10150D2*
X9639D1*
Y4037D1*
X10150D1*
Y4824D1*
G37*
G36*
X9363D2*
X8851D1*
Y4037D1*
X9363D1*
Y4824D1*
G37*
G36*
X8576D2*
X8064D1*
Y4037D1*
X8576D1*
Y4824D1*
G37*
G36*
X7788D2*
X7276D1*
Y4037D1*
X7788D1*
Y4824D1*
G37*
G36*
X7001D2*
X6489D1*
Y4037D1*
X7001D1*
Y4824D1*
G37*
G36*
X6213D2*
X5701D1*
Y4037D1*
X6213D1*
Y4824D1*
G37*
G36*
X5426D2*
X4914D1*
Y4037D1*
X5426D1*
Y4824D1*
G37*
X4790Y12770D2*
D34*
X5510D1*
Y11070D1*
X4790D1*
Y12770D1*
X4535D2*
D10*
X5765D1*
Y11070D1*
X4535D1*
Y12770D1*
D35*
X5150Y12560D3*
Y11280D3*
D36*
X4780Y11920D3*
X5520D3*
X2883Y6460D2*
D18*
X3403D1*
Y7580D1*
X2883D1*
Y6460D1*
G36*
X2863Y7110D2*
X2633D1*
Y6930D1*
X2863D1*
Y7110D1*
G37*
G36*
X3653Y6740D2*
X3423D1*
Y6560D1*
X3653D1*
Y6740D1*
G37*
G36*
Y7480D2*
X3423D1*
Y7300D1*
X3653D1*
Y7480D1*
G37*
X2434Y7591D2*
D10*
X3852D1*
Y6449D1*
X2434D1*
Y7591D1*
D41*
X2710Y7020D3*
X3576Y6646D3*
Y7394D3*
G36*
X8819Y12113D2*
Y12687D1*
X9607D1*
Y12113D1*
X8819D1*
G37*
G36*
X9538Y12786D2*
X8819D1*
Y13061D1*
X9026D1*
Y14026D1*
X9538D1*
Y12786D1*
G37*
G36*
X11683Y13061D2*
X11890D1*
Y12786D1*
X11172D1*
Y14026D1*
X11683D1*
Y13061D1*
G37*
G36*
X11890Y12687D2*
Y12113D1*
X11103D1*
Y12687D1*
X11890D1*
G37*
X175Y6264D2*
D12*
X156Y6273D1*
X147Y6302D1*
Y6321D1*
X156Y6350D1*
X185Y6369D1*
X233Y6378D1*
X281D1*
X319Y6369D1*
X338Y6350D1*
X348Y6321D1*
Y6311D1*
X338Y6283D1*
X319Y6264D1*
X290Y6254D1*
X281D1*
X252Y6264D1*
X233Y6283D1*
X223Y6311D1*
Y6321D1*
X233Y6350D1*
X252Y6369D1*
X281Y6378D1*
X252Y6192D2*
Y6106D1*
X242Y6078D1*
X233Y6068D1*
X214Y6058D1*
X185D1*
X166Y6068D1*
X156Y6078D1*
X147Y6106D1*
Y6192D1*
X348D1*
Y5843D2*
X147Y5920D1*
X348Y5997D1*
X281Y5968D2*
Y5872D1*
X147Y5782D2*
X348D1*
Y5715D1*
X338Y5686D1*
X319Y5667D1*
X300Y5657D1*
X271Y5648D1*
X223D1*
X194Y5657D1*
X175Y5667D1*
X156Y5686D1*
X147Y5715D1*
Y5782D1*
X381Y5586D2*
Y5404D1*
X147Y5343D2*
X348D1*
X195Y5271D2*
X185D1*
X166Y5262D1*
X156Y5252D1*
X147Y5233D1*
Y5195D1*
X156Y5176D1*
X166Y5166D1*
X185Y5156D1*
X204D1*
X223Y5166D1*
X252Y5185D1*
X348Y5281D1*
Y5147D1*
X194Y4942D2*
X175Y4951D1*
X156Y4970D1*
X147Y4989D1*
Y5028D1*
X156Y5047D1*
X175Y5066D1*
X194Y5076D1*
X223Y5085D1*
X271D1*
X300Y5076D1*
X319Y5066D1*
X338Y5047D1*
X348Y5028D1*
Y4989D1*
X338Y4970D1*
X319Y4951D1*
X300Y4942D1*
X12453Y10079D2*
Y9878D1*
X12386D1*
X12357Y9888D1*
X12338Y9907D1*
X12328Y9926D1*
X12319Y9955D1*
Y10003D1*
X12328Y10031D1*
X12338Y10050D1*
X12357Y10070D1*
X12386Y10079D1*
X12453D1*
X12142D2*
X12238D1*
X12247Y9993D1*
X12238Y10002D1*
X12209Y10012D1*
X12180D1*
X12152Y10002D1*
X12132Y9983D1*
X12123Y9955D1*
Y9936D1*
X12132Y9907D1*
X12152Y9888D1*
X12180Y9878D1*
X12209D1*
X12238Y9888D1*
X12247Y9897D1*
X12257Y9916D1*
X4405Y7762D2*
X4319D1*
X4290Y7771D1*
X4280Y7781D1*
X4271Y7800D1*
Y7819D1*
X4280Y7838D1*
X4290Y7848D1*
X4319Y7857D1*
X4405D1*
Y7656D1*
X4338Y7762D2*
X4271Y7656D1*
X4199Y7809D2*
Y7819D1*
X4190Y7838D1*
X4180Y7848D1*
X4161Y7857D1*
X4123D1*
X4104Y7848D1*
X4094Y7838D1*
X4085Y7819D1*
Y7800D1*
X4094Y7781D1*
X4113Y7752D1*
X4209Y7656D1*
X4075D1*
X2984Y3724D2*
X2898D1*
X2870Y3734D1*
X2860Y3743D1*
X2850Y3762D1*
Y3782D1*
X2860Y3801D1*
X2870Y3810D1*
X2898Y3820D1*
X2984D1*
Y3619D1*
X2917Y3724D2*
X2850Y3619D1*
X2693D2*
Y3820D1*
X2789Y3686D1*
X2645D1*
X4339Y5844D2*
X4253D1*
X4225Y5854D1*
X4215Y5863D1*
X4206Y5882D1*
Y5902D1*
X4215Y5921D1*
X4225Y5930D1*
X4253Y5940D1*
X4339D1*
Y5739D1*
X4273Y5844D2*
X4206Y5739D1*
X4029Y5940D2*
X4125D1*
X4134Y5854D1*
X4125Y5863D1*
X4096Y5873D1*
X4067D1*
X4039Y5863D1*
X4019Y5844D1*
X4010Y5815D1*
Y5796D1*
X4019Y5768D1*
X4039Y5748D1*
X4067Y5739D1*
X4096D1*
X4125Y5748D1*
X4134Y5758D1*
X4144Y5777D1*
X5138Y14494D2*
X5157Y14513D1*
X5186Y14523D1*
X5224D1*
X5253Y14513D1*
X5272Y14494D1*
Y14475D1*
X5262Y14456D1*
X5253Y14446D1*
X5234Y14437D1*
X5176Y14418D1*
X5157Y14408D1*
X5147Y14398D1*
X5138Y14379D1*
Y14351D1*
X5157Y14332D1*
X5186Y14322D1*
X5224D1*
X5253Y14332D1*
X5272Y14351D1*
X5076Y14484D2*
X5057Y14494D1*
X5028Y14523D1*
Y14322D1*
X8091Y11417D2*
Y11273D1*
X8081Y11244D1*
X8062Y11225D1*
X8033Y11216D1*
X8014D1*
X7986Y11225D1*
X7966Y11244D1*
X7957Y11273D1*
Y11417D1*
X7885Y11369D2*
Y11378D1*
X7876Y11397D1*
X7866Y11407D1*
X7847Y11416D1*
X7809D1*
X7790Y11407D1*
X7780Y11397D1*
X7771Y11378D1*
Y11359D1*
X7780Y11340D1*
X7799Y11311D1*
X7895Y11216D1*
X7761D1*
X5315Y13063D2*
Y12919D1*
X5305Y12891D1*
X5286Y12872D1*
X5257Y12862D1*
X5238D1*
X5210Y12872D1*
X5190Y12891D1*
X5181Y12919D1*
Y13063D1*
X5004D2*
X5100D1*
X5109Y12977D1*
X5100Y12986D1*
X5071Y12996D1*
X5043D1*
X5014Y12986D1*
X4995Y12967D1*
X4985Y12938D1*
Y12919D1*
X4995Y12891D1*
X5014Y12871D1*
X5043Y12862D1*
X5071D1*
X5100Y12871D1*
X5109Y12881D1*
X5119Y12900D1*
X3308Y7884D2*
Y7740D1*
X3298Y7712D1*
X3279Y7693D1*
X3250Y7683D1*
X3231D1*
X3203Y7693D1*
X3183Y7712D1*
X3174Y7740D1*
Y7884D1*
X3074Y7683D2*
X2978Y7884D1*
X3112D1*
X1438Y227D2*
D11*
X13249D1*
G03X14431Y1408I0J1181D01*
G01*
Y13219D1*
G03X13249Y14401I-1181J0D01*
G01*
X1438D1*
G03X257Y13219I0J-1181D01*
G01*
Y1408D1*
G03X1438Y227I1181J0D01*
G01*
M02*
