M48
INCH
T01C0.013
T02C0.0256
T03C0.1181
%
T01
X+003360Y+012700
X+003610Y+013410
X+003956Y+011444
X+003660Y+010260
X+003366Y+009344
X+003320Y+008220
X+002890Y+007610
X+003550Y+006210
X+003990Y+005730
X+004420Y+005720
X+003560Y+004610
X+005200Y+003630
X+007390Y+003320
X+007390Y+002350
X+008520Y+001350
X+010570Y+002450
X+010570Y+003330
X+009930Y+003280
X+009120Y+003790
X+010310Y+005085
X+009750Y+006020
X+009050Y+006030
X+008610Y+006710
X+008790Y+006990
X+009130Y+007100
X+009620Y+007260
X+010040Y+007110
X+010490Y+007390
X+011390Y+008290
X+011840Y+007870
X+012870Y+007780
X+012750Y+008400
X+012910Y+006640
X+012780Y+005940
X+011750Y+010271
X+011470Y+010620
X+010611Y+011600
X+010280Y+011920
X+012150Y+012530
X+013820Y+011630
X+013810Y+010980
X+009530Y+009980
X+008330Y+009240
X+008160Y+008520
X+007900Y+008220
X+007200Y+007570
X+006950Y+007810
X+006040Y+008140
X+005660Y+008470
X+005370Y+009120
X+005090Y+009380
X+004590Y+009300
X+004720Y+008210
X+005050Y+008050
X+005100Y+006960
X+006700Y+005450
X+007330Y+006650
X+008348Y+007310
X+008040Y+010120
X+007030Y+009900
X+005480Y+010000
X+007910Y+011680
X+006700Y+013430
X+002170Y+011880
X+000570Y+009770
X+000560Y+009040
X+001820Y+006080
X+002130Y+005880
X+000830Y+005650
X+001860Y+003590
X+002140Y+002310
T02
X+009400Y+012321G85X+009400Y+012479
X+009282Y+013485G85X+009282Y+013701
X+011428Y+013485G85X+011428Y+013701
X+011309Y+012321G85X+011309Y+012479
T03
X+001340Y+001310
X+001340Y+013318
X+013348Y+013318
X+013348Y+001310
T00
M30
