G04 DipTrace 2.3.1.0*
%INPowerTowerRX_Rev4.GBL*%
%MOIN*%
%ADD13C,0.01*%
%ADD16C,0.015*%
%ADD17C,0.013*%
%ADD20R,0.1181X0.063*%
%ADD25R,0.0394X0.0433*%
%ADD26R,0.0433X0.0394*%
%ADD28R,0.0315X0.0472*%
%ADD32R,0.0591X0.0591*%
%ADD33R,0.06X0.16*%
%ADD37R,0.071X0.041*%
%ADD38R,0.049X0.024*%
%ADD42R,0.0551X0.0394*%
%ADD46C,0.027*%
%FSLAX44Y44*%
G04*
G70*
G90*
G75*
G01*
%LNBottom*%
%LPD*%
X11840Y7870D2*
D13*
X7360D1*
X7120Y8110D1*
X6780D1*
X5960Y7290D1*
X4880D1*
X4240Y6650D1*
X6745Y4431D2*
X6770Y4456D1*
Y5030D1*
X8370Y6630D1*
Y7090D1*
X8720Y6643D2*
X7560Y5482D1*
Y4459D1*
X7532Y4431D1*
X4150Y13430D2*
Y12550D1*
X4780Y11920D1*
X5520D2*
X6150Y12550D1*
Y13430D1*
X5170Y4431D2*
X5957D1*
X5200Y3630D2*
Y4401D1*
X5170Y4431D1*
X6700Y5450D2*
X6470D1*
X5990Y4970D1*
Y4463D1*
X5957Y4431D1*
X830Y5650D2*
Y5360D1*
X1030Y5160D1*
X3570Y6260D2*
X3580Y6250D1*
X4740D1*
X4960Y6470D1*
X5110D1*
X1030Y7160D2*
X1060Y7130D1*
X1900D1*
X3270Y5760D1*
X4000D1*
X3366Y9344D2*
X3386D1*
X3730Y9000D1*
X4710D1*
X5090Y9380D1*
X9894Y4431D2*
X9910Y4415D1*
Y3460D1*
X9120Y3790D2*
Y4110D1*
X9140Y4090D1*
Y4431D1*
X9107D1*
X8040Y10120D2*
X8320Y10400D1*
Y10730D1*
X6950Y7810D2*
X6110Y6970D1*
X5090D1*
X5100Y6960D1*
X8170Y8580D2*
X8540Y8210D1*
X11310D1*
X1030Y8160D2*
X1570D1*
X2710Y7020D1*
X11750Y10271D2*
Y11180D1*
X11010Y11920D1*
X10280D1*
X1030Y4160D2*
X1500D1*
X1820Y4480D1*
Y6060D1*
X3576Y7394D2*
X4165D1*
X4240Y7319D1*
X12699Y9550D2*
X12800D1*
X13400Y10150D1*
Y11080D1*
X13980Y11660D1*
X7532Y10730D2*
X7560Y10702D1*
Y10100D1*
X7800Y9860D1*
X8870D1*
X9107Y10097D1*
Y10730D1*
X9894D2*
Y11166D1*
X9720Y11340D1*
X6960D1*
X6745Y11125D1*
Y10730D1*
X5170D2*
Y11280D1*
X5150D1*
Y13430D2*
Y12560D1*
X1030Y3160D2*
X3260D1*
X3280Y3140D1*
X3410Y5190D2*
X3140D1*
X1970Y6360D1*
X1230D1*
X1030Y6160D1*
X570Y9770D2*
X2410D1*
X3410Y8770D1*
X5380D1*
X11470Y10620D2*
Y11040D1*
X10910Y11600D1*
X10611D1*
X5990Y8140D2*
X5500D1*
X5120Y8520D1*
X3230D1*
X2700Y9050D1*
X570D1*
X4720Y8210D2*
X3330D1*
X3320Y8220D1*
X7190Y7540D2*
X5628Y5978D1*
X4400D1*
X9560Y6690D2*
X9540D1*
X9550Y6680D2*
X11640D1*
X12750Y7790D1*
X8320Y4431D2*
Y4890D1*
X8515Y5085D1*
X10310D1*
X4079Y5190D2*
X4569Y5680D1*
X5790D1*
X7720Y7610D1*
X9010D1*
X9250Y7370D1*
X9607D1*
X3949Y3140D2*
X4540Y3731D1*
Y5160D1*
X4740Y5360D1*
X5880D1*
X7880Y7360D1*
X8890D1*
X9210Y7040D1*
X10210D1*
X12740Y6770D2*
X12322Y6352D1*
X9498D1*
X9140Y6710D1*
X3956Y11444D2*
X4590Y10810D1*
Y9300D1*
X11990Y9550D2*
X11630D1*
X10960Y8880D1*
X7160D1*
X6100Y7820D1*
X3100D1*
X2890Y7610D1*
D46*
X11840Y7870D3*
X8370Y7090D3*
X8720Y6643D3*
X4000Y5760D3*
X3366Y9344D3*
D3*
X5090Y9380D3*
D3*
X9910Y3460D3*
X9120Y3790D3*
X8040Y10120D3*
X6950Y7810D3*
X5100Y6960D3*
X8170Y8580D3*
X11310Y8210D3*
X11750Y10271D3*
X10280Y11920D3*
X1820Y6060D3*
X13980Y11660D3*
X570Y9770D3*
X5380Y8770D3*
X11470Y10620D3*
X10611Y11600D3*
X5990Y8140D3*
X570Y9050D3*
X4720Y8210D3*
X3320Y8220D3*
X7190Y7540D3*
X4400Y5978D3*
X9560Y6690D3*
X12750Y7790D3*
X10310Y5085D3*
X9607Y7370D3*
X10210Y7040D3*
X12740Y6770D3*
X9140Y6710D3*
X3956Y11444D3*
X4590Y9300D3*
X2890Y7610D3*
X3360Y12700D3*
X12150Y12530D3*
X13970Y10980D3*
X9530Y9980D3*
X6700Y13430D3*
X3610D3*
X3660Y10260D3*
X8330Y9240D3*
X1250Y5650D3*
X830D3*
X5200Y3630D3*
X5480Y10000D3*
X7910Y11680D3*
X8520Y1350D3*
X6700Y5450D3*
X3560Y4610D3*
X3570Y6260D3*
X7390Y2350D3*
Y3320D3*
X4580Y3370D3*
X5370Y9120D3*
X2140Y5780D3*
X5250Y2850D3*
X10570Y3330D3*
Y2450D3*
X7030Y9900D3*
X1860Y3590D3*
X2600Y630D3*
X2170Y11880D3*
X12700Y8410D3*
X10490Y7390D3*
X7850Y8290D3*
X2140Y2310D3*
X6060Y2850D3*
X8060Y3660D3*
X3360Y630D3*
X12180Y660D3*
X14060Y2770D3*
X8330Y5300D3*
X2400Y14020D3*
X3520D3*
X6750Y14050D3*
X8580Y14030D3*
X8550Y13370D3*
X12130Y13960D3*
X14040Y12240D3*
X14060Y9610D3*
X3880Y12260D3*
X11300Y7620D3*
X9060Y3240D3*
X4160Y630D3*
X5110Y6470D3*
X1400Y8690D3*
X1420Y9410D3*
X1430Y10120D3*
X2570Y10060D3*
X6220Y12260D3*
X4920Y630D3*
X12810Y7280D3*
X5750Y620D3*
X6510D3*
X10620Y660D3*
X11380D3*
X7330Y14050D3*
X8000D3*
X2970Y14030D3*
X9540Y5390D3*
X10550Y6080D3*
X8740Y6010D3*
X5690Y8460D3*
X14040Y5980D3*
Y5030D3*
Y4090D3*
X2151Y14017D2*
D16*
X3673D1*
X4626D2*
X4674D1*
X5625D2*
X5676D1*
X6626D2*
X12535D1*
X2262Y13868D2*
X3673D1*
X4626D2*
X4674D1*
X5625D2*
X5676D1*
X6626D2*
X12427D1*
X2337Y13719D2*
X3673D1*
X4626D2*
X4674D1*
X5625D2*
X5676D1*
X6626D2*
X12352D1*
X2386Y13571D2*
X3673D1*
X4626D2*
X4674D1*
X5625D2*
X5676D1*
X6626D2*
X12303D1*
X2409Y13422D2*
X3673D1*
X4626D2*
X4674D1*
X5625D2*
X5676D1*
X6626D2*
X12277D1*
X2414Y13273D2*
X3673D1*
X4626D2*
X4674D1*
X5625D2*
X5676D1*
X6626D2*
X12272D1*
X2398Y13125D2*
X3673D1*
X4626D2*
X4674D1*
X5625D2*
X5676D1*
X6626D2*
X12291D1*
X2358Y12976D2*
X3673D1*
X4626D2*
X4674D1*
X5625D2*
X5676D1*
X6626D2*
X12328D1*
X2294Y12827D2*
X3673D1*
X6626D2*
X12392D1*
X2201Y12679D2*
X3673D1*
X6626D2*
X12488D1*
X508Y12530D2*
X616D1*
X2065D2*
X3673D1*
X6626D2*
X12624D1*
X14072D2*
X14180D1*
X508Y12381D2*
X828D1*
X1851D2*
X4620D1*
X5681D2*
X12835D1*
X13861D2*
X14180D1*
X508Y12233D2*
X4620D1*
X5681D2*
X14180D1*
X508Y12084D2*
X4360D1*
X5941D2*
X10018D1*
X11158D2*
X14180D1*
X508Y11935D2*
X560D1*
X1502D2*
X4360D1*
X5941D2*
X9971D1*
X11308D2*
X13857D1*
X14105D2*
X14180D1*
X508Y11787D2*
X560D1*
X1502D2*
X4360D1*
X5941D2*
X10001D1*
X11456D2*
X13697D1*
X508Y11638D2*
X560D1*
X1502D2*
X3718D1*
X4195D2*
X4620D1*
X5681D2*
X10177D1*
X11606D2*
X13646D1*
X508Y11489D2*
X560D1*
X1502D2*
X3650D1*
X4263D2*
X4620D1*
X5681D2*
X6795D1*
X9883D2*
X10322D1*
X11754D2*
X13496D1*
X508Y11340D2*
X560D1*
X1502D2*
X3664D1*
X4373D2*
X4620D1*
X5681D2*
X6647D1*
X10033D2*
X10332D1*
X11904D2*
X13348D1*
X13973D2*
X14180D1*
X508Y11192D2*
X560D1*
X1502D2*
X3786D1*
X4521D2*
X4620D1*
X11976D2*
X13205D1*
X13826D2*
X14180D1*
X508Y11043D2*
X4043D1*
X11976D2*
X13175D1*
X13676D2*
X14180D1*
X508Y10894D2*
X4193D1*
X11184D2*
X11245D1*
X11976D2*
X13175D1*
X13626D2*
X14180D1*
X508Y10746D2*
X4341D1*
X11976D2*
X13175D1*
X13626D2*
X14180D1*
X508Y10597D2*
X4364D1*
X11976D2*
X13175D1*
X13626D2*
X14180D1*
X508Y10448D2*
X4364D1*
X12002D2*
X13175D1*
X13626D2*
X14180D1*
X508Y10300D2*
X4364D1*
X11180D2*
X11440D1*
X12058D2*
X13175D1*
X13626D2*
X14180D1*
X508Y10151D2*
X4364D1*
X4816D2*
X7334D1*
X9333D2*
X10273D1*
X11091D2*
X11464D1*
X12035D2*
X13088D1*
X13626D2*
X14180D1*
X769Y10002D2*
X4364D1*
X4816D2*
X7357D1*
X9309D2*
X11611D1*
X11890D2*
X12940D1*
X13566D2*
X14180D1*
X2639Y9854D2*
X4364D1*
X4816D2*
X7493D1*
X9176D2*
X11656D1*
X13418D2*
X14180D1*
X2789Y9705D2*
X4364D1*
X4816D2*
X7641D1*
X9028D2*
X11473D1*
X13268D2*
X14180D1*
X790Y9556D2*
X2311D1*
X2937D2*
X3143D1*
X3588D2*
X4364D1*
X5344D2*
X11323D1*
X13120D2*
X14180D1*
X508Y9408D2*
X2459D1*
X3670D2*
X4299D1*
X5400D2*
X11175D1*
X13031D2*
X14180D1*
X3785Y9259D2*
X4282D1*
X5374D2*
X11025D1*
X5226Y9110D2*
X10878D1*
X11503D2*
X12884D1*
X5620Y8961D2*
X6928D1*
X11355D2*
X12884D1*
X762Y8813D2*
X2623D1*
X5688D2*
X6778D1*
X11205D2*
X12884D1*
X508Y8664D2*
X2773D1*
X5672D2*
X6631D1*
X7256D2*
X7871D1*
X8468D2*
X12884D1*
X1798Y8515D2*
X2921D1*
X5545D2*
X6483D1*
X7108D2*
X7866D1*
X8548D2*
X12884D1*
X1798Y8367D2*
X3047D1*
X5587D2*
X5785D1*
X6194D2*
X6333D1*
X6961D2*
X7950D1*
X11576D2*
X12884D1*
X1826Y8218D2*
X3010D1*
X7324D2*
X8220D1*
X11620D2*
X12884D1*
X1973Y8069D2*
X3050D1*
X12073D2*
X12638D1*
X2123Y7921D2*
X2888D1*
X12148D2*
X12469D1*
X2271Y7772D2*
X2628D1*
X12133D2*
X12420D1*
X2421Y7623D2*
X2578D1*
X9309D2*
X9439D1*
X9776D2*
X11661D1*
X12019D2*
X12270D1*
X1798Y7475D2*
X1943D1*
X9900D2*
X12122D1*
X12748D2*
X12884D1*
X1992Y7326D2*
X2091D1*
X9914D2*
X10118D1*
X10301D2*
X11972D1*
X12600D2*
X12884D1*
X2166Y7177D2*
X2240D1*
X10488D2*
X11825D1*
X12450D2*
X12884D1*
X7861Y7029D2*
X8065D1*
X8674D2*
X8909D1*
X10521D2*
X11675D1*
X12302D2*
X12582D1*
X7713Y6880D2*
X8145D1*
X12152D2*
X12450D1*
X1798Y6731D2*
X1986D1*
X4802D2*
X4896D1*
X5301D2*
X6068D1*
X7566D2*
X8145D1*
X12005D2*
X12387D1*
X1798Y6582D2*
X2133D1*
X2761D2*
X3125D1*
X4802D2*
X5918D1*
X7416D2*
X8009D1*
X11855D2*
X12239D1*
X2210Y6434D2*
X2283D1*
X2908D2*
X3125D1*
X4802D2*
X5771D1*
X7268D2*
X7861D1*
X8946D2*
X9019D1*
X12717D2*
X12884D1*
X2358Y6285D2*
X2431D1*
X3058D2*
X3732D1*
X4748D2*
X5623D1*
X7118D2*
X7711D1*
X8676D2*
X9251D1*
X12569D2*
X14180D1*
X2508Y6136D2*
X2581D1*
X3206D2*
X4135D1*
X6970D2*
X7564D1*
X8526D2*
X14180D1*
X2655Y5988D2*
X2728D1*
X3356D2*
X3797D1*
X6820D2*
X7414D1*
X8379D2*
X14180D1*
X2046Y5839D2*
X2178D1*
X2803D2*
X2878D1*
X6673D2*
X7266D1*
X8231D2*
X14180D1*
X2046Y5690D2*
X2325D1*
X2953D2*
X3026D1*
X6523D2*
X7116D1*
X8081D2*
X14180D1*
X2046Y5542D2*
X2475D1*
X6375D2*
X6968D1*
X7933D2*
X14180D1*
X2046Y5393D2*
X2623D1*
X6227D2*
X6821D1*
X7786D2*
X14180D1*
X2046Y5244D2*
X2773D1*
X6077D2*
X6671D1*
X7786D2*
X8363D1*
X10575D2*
X14180D1*
X2046Y5096D2*
X2921D1*
X4788D2*
X6553D1*
X7786D2*
X8213D1*
X10622D2*
X14180D1*
X2046Y4947D2*
X2991D1*
X11058D2*
X14180D1*
X2046Y4798D2*
X2991D1*
X11114D2*
X14180D1*
X508Y4650D2*
X1594D1*
X2046D2*
X3106D1*
X11114D2*
X14180D1*
X2046Y4501D2*
X4315D1*
X11114D2*
X14180D1*
X2004Y4352D2*
X4315D1*
X11114D2*
X14180D1*
X1856Y4203D2*
X4315D1*
X11114D2*
X14180D1*
X1798Y4055D2*
X4315D1*
X11114D2*
X14180D1*
X1798Y3906D2*
X4315D1*
X5533D2*
X5594D1*
X6321D2*
X6380D1*
X7108D2*
X7169D1*
X7896D2*
X7955D1*
X8683D2*
X8744D1*
X9471D2*
X9530D1*
X10258D2*
X10319D1*
X11046D2*
X14180D1*
X1798Y3757D2*
X4254D1*
X4765D2*
X8811D1*
X9429D2*
X9685D1*
X10137D2*
X14180D1*
X1798Y3609D2*
X2883D1*
X4727D2*
X8871D1*
X9368D2*
X9640D1*
X10181D2*
X14180D1*
X1798Y3460D2*
X2860D1*
X4582D2*
X9598D1*
X10221D2*
X14180D1*
X4434Y3311D2*
X9640D1*
X10181D2*
X14180D1*
X4369Y3163D2*
X14180D1*
X4369Y3014D2*
X14180D1*
X1798Y2865D2*
X2860D1*
X4369D2*
X14180D1*
X1798Y2717D2*
X2864D1*
X4366D2*
X14180D1*
X508Y2568D2*
X14180D1*
X508Y2419D2*
X14180D1*
X508Y2271D2*
X875D1*
X1805D2*
X12884D1*
X13812D2*
X14180D1*
X508Y2122D2*
X643D1*
X2037D2*
X12650D1*
X14046D2*
X14180D1*
X2182Y1973D2*
X12504D1*
X2283Y1824D2*
X12406D1*
X2351Y1676D2*
X12338D1*
X2393Y1527D2*
X12296D1*
X2414Y1378D2*
X12275D1*
X2412Y1230D2*
X12275D1*
X2391Y1081D2*
X12298D1*
X2346Y932D2*
X12343D1*
X2276Y784D2*
X12413D1*
X2173Y635D2*
X12516D1*
X2023Y486D2*
X12666D1*
X492Y6636D2*
X1782D1*
Y6573D1*
X1970Y6571D1*
X2043Y6558D1*
X2119Y6509D1*
X3009Y5619D1*
X3023Y5651D1*
X3015Y5717D1*
X1813Y6918D1*
X1782Y6886D1*
Y6684D1*
X492D1*
Y6635D1*
X1610Y5684D2*
X490D1*
X503Y5636D1*
X1609D1*
Y5682D1*
X492Y7636D2*
X1782D1*
Y7343D1*
X1900Y7341D1*
X1973Y7328D1*
X2049Y7279D1*
X2273Y7055D1*
Y7157D1*
X1747Y7685D1*
X490Y7684D1*
X492Y7638D1*
X1610Y4684D2*
X492D1*
Y4638D1*
X803Y4636D1*
X1607D1*
X1782Y4141D2*
Y3684D1*
X492D1*
Y3635D1*
X1553Y3636D1*
X1782D1*
Y3371D1*
X2875D1*
Y3527D1*
X2892Y3599D1*
X2940Y3656D1*
X3011Y3685D1*
X3260Y3687D1*
X4197Y3686D1*
X4329Y3818D1*
Y4642D1*
X3165Y4643D1*
X3092Y4660D1*
X3036Y4708D1*
X3007Y4779D1*
X3005Y5030D1*
X2991Y5041D1*
X2091Y5941D1*
X2035Y5856D1*
X2029Y5852D1*
X2031Y5535D1*
Y4480D1*
X2018Y4407D1*
X1969Y4331D1*
X1782Y4144D1*
Y2949D2*
Y2684D1*
X490D1*
X492Y2259D1*
Y1947D1*
X562Y2031D1*
X672Y2134D1*
X795Y2220D1*
X928Y2287D1*
X1070Y2336D1*
X1217Y2363D1*
X1367Y2370D1*
X1516Y2356D1*
X1662Y2320D1*
X1801Y2265D1*
X1931Y2190D1*
X2049Y2098D1*
X2154Y1990D1*
X2241Y1869D1*
X2311Y1736D1*
X2362Y1595D1*
X2392Y1448D1*
X2401Y1310D1*
X2390Y1160D1*
X2358Y1014D1*
X2307Y873D1*
X2235Y741D1*
X2146Y621D1*
X2041Y514D1*
X1977Y463D1*
X12711Y462D1*
X12615Y543D1*
X12514Y654D1*
X12430Y778D1*
X12364Y913D1*
X12318Y1056D1*
X12293Y1203D1*
X12288Y1353D1*
X12305Y1502D1*
X12342Y1647D1*
X12400Y1786D1*
X12476Y1914D1*
X12570Y2031D1*
X12680Y2134D1*
X12803Y2220D1*
X12936Y2287D1*
X13078Y2336D1*
X13225Y2363D1*
X13375Y2370D1*
X13524Y2356D1*
X13670Y2320D1*
X13809Y2265D1*
X13939Y2190D1*
X14057Y2098D1*
X14161Y1990D1*
X14194Y1948D1*
X14196Y5544D1*
Y6315D1*
X13577Y6314D1*
X12898D1*
X12897Y6519D1*
X12829Y6488D1*
X12743Y6475D1*
X12472Y6203D1*
X12410Y6161D1*
X12322Y6141D1*
X9498D1*
X9424Y6155D1*
X9348Y6203D1*
X9138Y6414D1*
X9080Y6420D1*
X9010Y6444D1*
X8965Y6474D1*
X8935Y6439D1*
X8877Y6391D1*
X8809Y6360D1*
X8724Y6348D1*
X7771Y5395D1*
Y4988D1*
X7860Y4968D1*
X7918Y4918D1*
X7900Y4939D1*
X7947Y4935D1*
X8009Y4976D1*
X8064Y4985D1*
X8133Y4988D1*
X8170Y5039D1*
X8366Y5234D1*
X8427Y5277D1*
X8515Y5296D1*
X10102D1*
X10129Y5319D1*
X10193Y5357D1*
X10265Y5378D1*
X10340Y5380D1*
X10413Y5363D1*
X10479Y5328D1*
X10535Y5278D1*
X10576Y5215D1*
X10600Y5145D1*
X10606Y5085D1*
X10597Y5011D1*
X10587Y4987D1*
X10681Y4985D1*
X10968Y4983D1*
X11010Y4968D1*
X11047Y4943D1*
X11075Y4908D1*
X11093Y4867D1*
X11099Y4824D1*
X11096Y4007D1*
X11082Y3965D1*
X11056Y3928D1*
X11021Y3899D1*
X10980Y3882D1*
X10938Y3876D1*
X10396Y3879D1*
X10354Y3893D1*
X10317Y3919D1*
X10288Y3954D1*
X10293Y3946D1*
X10205Y3886D1*
X10120Y3876D1*
X10176Y3879D1*
X10121Y3815D1*
Y3668D1*
X10176Y3590D1*
X10200Y3519D1*
X10206Y3460D1*
X10197Y3386D1*
X10169Y3316D1*
X10125Y3256D1*
X10067Y3209D1*
X9999Y3178D1*
X9925Y3164D1*
X9850Y3170D1*
X9780Y3194D1*
X9717Y3235D1*
X9667Y3291D1*
X9632Y3357D1*
X9616Y3430D1*
X9617Y3505D1*
X9638Y3577D1*
X9676Y3641D1*
X9697Y3663D1*
X9699Y3875D1*
X9639Y3876D1*
X9566Y3893D1*
X9508Y3943D1*
X9527Y3922D1*
X9480Y3926D1*
X9416Y3885D1*
X9410Y3849D1*
X9416Y3790D1*
X9407Y3716D1*
X9379Y3646D1*
X9335Y3586D1*
X9277Y3539D1*
X9209Y3508D1*
X9135Y3494D1*
X9060Y3500D1*
X8990Y3524D1*
X8927Y3565D1*
X8877Y3621D1*
X8842Y3687D1*
X8826Y3760D1*
X8827Y3835D1*
X8840Y3878D1*
X8805Y3883D1*
X8739Y3922D1*
X8721Y3943D1*
X8630Y3886D1*
X8576Y3876D1*
X8064D1*
X7991Y3893D1*
X7934Y3943D1*
X7952Y3922D1*
X7905Y3926D1*
X7843Y3886D1*
X7788Y3876D1*
X7276D1*
X7204Y3893D1*
X7146Y3943D1*
X7164Y3922D1*
X7118Y3926D1*
X7055Y3886D1*
X7001Y3876D1*
X6489D1*
X6417Y3893D1*
X6349Y3950D1*
X6319Y3916D1*
X6282Y3891D1*
X6239Y3878D1*
X6093Y3876D1*
X5672Y3879D1*
X5629Y3893D1*
X5592Y3919D1*
X5564Y3954D1*
X5534Y3917D1*
X5496Y3892D1*
X5454Y3878D1*
X5381Y3876D1*
X4884Y3879D1*
X4842Y3893D1*
X4805Y3919D1*
X4776Y3953D1*
X4759Y3995D1*
X4753Y4037D1*
X4756Y4854D1*
X4770Y4897D1*
X4796Y4934D1*
X4830Y4962D1*
X4872Y4980D1*
X4914Y4985D1*
X5456Y4983D1*
X5498Y4968D1*
X5535Y4943D1*
X5564Y4908D1*
X5594Y4944D1*
X5631Y4969D1*
X5674Y4983D1*
X5746Y4985D1*
X6243Y4983D1*
X6286Y4968D1*
X6323Y4943D1*
X6351Y4908D1*
X6346Y4915D1*
X6434Y4976D1*
X6489Y4985D1*
X6557D1*
X6572Y5103D1*
X6621Y5179D1*
X8160Y6719D1*
X8159Y6881D1*
X8127Y6921D1*
X8092Y6987D1*
X8076Y7060D1*
X8082Y7151D1*
X7969Y7149D1*
X6029Y5211D1*
X5968Y5168D1*
X5880Y5149D1*
X4828D1*
X4752Y5073D1*
X4751Y3731D1*
X4738Y3657D1*
X4689Y3582D1*
X4356Y3248D1*
X4355Y2753D1*
X4337Y2681D1*
X4289Y2624D1*
X4218Y2595D1*
X3970Y2593D1*
X3035D1*
X2962Y2610D1*
X2906Y2658D1*
X2877Y2729D1*
X2875Y2948D1*
X1781Y2949D1*
X11747Y9947D2*
X12308D1*
Y9153D1*
X11672D1*
Y9291D1*
X11109Y8731D1*
X11048Y8688D1*
X10960Y8669D1*
X8450D1*
X8460Y8639D1*
X8466Y8582D1*
X8629Y8419D1*
X9440Y8421D1*
X11102D1*
X11129Y8444D1*
X11193Y8482D1*
X11265Y8503D1*
X11340Y8504D1*
X11413Y8488D1*
X11479Y8453D1*
X11535Y8403D1*
X11576Y8340D1*
X11600Y8269D1*
X11606Y8210D1*
X11597Y8136D1*
X11575Y8082D1*
X11659Y8104D1*
X11723Y8142D1*
X11795Y8163D1*
X11870Y8164D1*
X11943Y8148D1*
X12009Y8113D1*
X12065Y8063D1*
X12106Y8000D1*
X12130Y7929D1*
X12136Y7870D1*
X12127Y7796D1*
X12099Y7726D1*
X12055Y7666D1*
X11997Y7619D1*
X11929Y7588D1*
X11855Y7574D1*
X11780Y7580D1*
X11710Y7604D1*
X11636Y7658D1*
X10790Y7659D1*
X9672D1*
X9710Y7648D1*
X9777Y7613D1*
X9832Y7563D1*
X9873Y7500D1*
X9897Y7429D1*
X9903Y7370D1*
X9894Y7296D1*
X9876Y7250D1*
X10005Y7251D1*
X10029Y7274D1*
X10093Y7312D1*
X10165Y7333D1*
X10240Y7334D1*
X10313Y7318D1*
X10379Y7283D1*
X10435Y7233D1*
X10476Y7170D1*
X10500Y7099D1*
X10506Y7040D1*
X10497Y6966D1*
X10465Y6891D1*
X11554D1*
X12454Y7792D1*
X12457Y7835D1*
X12478Y7907D1*
X12516Y7971D1*
X12569Y8024D1*
X12633Y8062D1*
X12705Y8083D1*
X12780Y8084D1*
X12853Y8068D1*
X12901Y8043D1*
X12898Y8109D1*
Y8266D1*
X14195D1*
X14192Y8314D1*
X12898D1*
Y9153D1*
X12380D1*
Y9947D1*
X12898D1*
X13189Y10238D1*
Y11080D1*
X13202Y11153D1*
X13251Y11229D1*
X13683Y11662D1*
X13687Y11705D1*
X13708Y11777D1*
X13746Y11841D1*
X13799Y11894D1*
X13863Y11932D1*
X13935Y11953D1*
X14010Y11954D1*
X14083Y11938D1*
X14149Y11903D1*
X14196Y11861D1*
Y12681D1*
X14103Y12574D1*
X13991Y12475D1*
X13866Y12392D1*
X13730Y12329D1*
X13587Y12285D1*
X13439Y12261D1*
X13289Y12259D1*
X13140Y12278D1*
X12996Y12318D1*
X12858Y12377D1*
X12730Y12456D1*
X12615Y12551D1*
X12514Y12662D1*
X12430Y12786D1*
X12364Y12921D1*
X12318Y13064D1*
X12293Y13211D1*
X12288Y13361D1*
X12305Y13510D1*
X12342Y13655D1*
X12400Y13793D1*
X12476Y13922D1*
X12570Y14039D1*
X12680Y14142D1*
X12712Y14166D1*
X6613D1*
X6611Y14061D1*
Y12469D1*
X5689D1*
Y14165D1*
X5610Y14166D1*
X5611Y12926D1*
X5666D1*
X5669Y12201D1*
X5926D1*
Y11639D1*
X5666D1*
Y11283D1*
X5761Y11285D1*
X6243Y11282D1*
X6286Y11268D1*
X6323Y11242D1*
X6351Y11207D1*
X6346Y11215D1*
X6434Y11275D1*
X6489Y11285D1*
X6608D1*
X6811Y11489D1*
X6872Y11532D1*
X6960Y11551D1*
X9720D1*
X9793Y11538D1*
X9869Y11489D1*
X10063Y11292D1*
X10089Y11285D1*
X10150D1*
X10242Y11263D1*
X10296Y11315D1*
X10376Y11349D1*
X10447Y11355D1*
X10418Y11375D1*
X10368Y11431D1*
X10333Y11497D1*
X10316Y11570D1*
X10318Y11629D1*
X10295Y11624D1*
X10220Y11630D1*
X10150Y11654D1*
X10087Y11695D1*
X10037Y11751D1*
X10002Y11817D1*
X9986Y11890D1*
X9987Y11965D1*
X10008Y12037D1*
X10046Y12101D1*
X10099Y12154D1*
X10163Y12192D1*
X10235Y12213D1*
X10310Y12214D1*
X10383Y12198D1*
X10449Y12163D1*
X10486Y12130D1*
X11010Y12131D1*
X11083Y12118D1*
X11159Y12069D1*
X11899Y11329D1*
X11942Y11268D1*
X11961Y11180D1*
Y10479D1*
X12016Y10401D1*
X12040Y10330D1*
X12046Y10271D1*
X12037Y10196D1*
X12009Y10127D1*
X11965Y10067D1*
X11907Y10019D1*
X11839Y9988D1*
X11765Y9975D1*
X11690Y9981D1*
X11620Y10005D1*
X11557Y10046D1*
X11507Y10102D1*
X11472Y10168D1*
X11456Y10241D1*
X11459Y10322D1*
X11410Y10330D1*
X11340Y10354D1*
X11277Y10395D1*
X11227Y10451D1*
X11192Y10517D1*
X11176Y10590D1*
X11177Y10665D1*
X11198Y10737D1*
X11236Y10801D1*
X11257Y10823D1*
X11259Y10950D1*
X11170Y11042D1*
X11169Y10336D1*
X11157Y10263D1*
X11122Y10197D1*
X11068Y10145D1*
X10988Y10111D1*
X10863Y10105D1*
X10426D1*
X10352Y10117D1*
X10275Y10162D1*
X10205Y10185D1*
X10150Y10175D1*
X9639D1*
X9566Y10192D1*
X9508Y10242D1*
X9527Y10221D1*
X9480Y10226D1*
X9418Y10185D1*
X9363Y10175D1*
X9318D1*
Y10097D1*
X9305Y10024D1*
X9256Y9948D1*
X9019Y9711D1*
X8958Y9668D1*
X8870Y9649D1*
X7800D1*
X7727Y9662D1*
X7651Y9711D1*
X7411Y9951D1*
X7368Y10012D1*
X7349Y10100D1*
Y10177D1*
X7276Y10175D1*
X7204Y10192D1*
X7146Y10242D1*
X7164Y10221D1*
X7118Y10226D1*
X7055Y10185D1*
X7001Y10175D1*
X6489D1*
X6417Y10192D1*
X6349Y10249D1*
X6319Y10215D1*
X6282Y10191D1*
X6239Y10177D1*
X6093Y10175D1*
X5672Y10178D1*
X5629Y10192D1*
X5592Y10218D1*
X5564Y10253D1*
X5569Y10245D1*
X5481Y10185D1*
X5426Y10175D1*
X4914D1*
X4840Y10194D1*
X4868Y10182D1*
X4802Y10221D1*
X4801Y9509D1*
X4818Y9497D1*
X4856Y9561D1*
X4909Y9614D1*
X4973Y9652D1*
X5045Y9673D1*
X5120Y9674D1*
X5193Y9658D1*
X5259Y9623D1*
X5315Y9573D1*
X5356Y9510D1*
X5380Y9439D1*
X5386Y9380D1*
X5377Y9306D1*
X5349Y9236D1*
X5305Y9176D1*
X5247Y9129D1*
X5179Y9098D1*
X5093Y9085D1*
X4989Y8981D1*
X5175D1*
X5199Y9004D1*
X5263Y9042D1*
X5335Y9063D1*
X5410Y9064D1*
X5483Y9048D1*
X5549Y9013D1*
X5605Y8963D1*
X5646Y8900D1*
X5670Y8829D1*
X5676Y8770D1*
X5667Y8696D1*
X5639Y8626D1*
X5595Y8566D1*
X5537Y8519D1*
X5452Y8485D1*
X5589Y8349D1*
X5784Y8351D1*
X5809Y8374D1*
X5873Y8412D1*
X5945Y8433D1*
X6020Y8434D1*
X6093Y8418D1*
X6159Y8383D1*
X6215Y8333D1*
X6255Y8272D1*
X7011Y9029D1*
X7072Y9072D1*
X7160Y9091D1*
X10875D1*
X11481Y9699D1*
X11542Y9742D1*
X11630Y9761D1*
X11670D1*
X11672Y9947D1*
X11747D1*
X13017Y9467D2*
X13018Y9266D1*
X14195D1*
Y11456D1*
X14137Y11409D1*
X14069Y11378D1*
X13983Y11365D1*
X13610Y10992D1*
X13611Y10150D1*
X13598Y10077D1*
X13549Y10001D1*
X13017Y9469D1*
X649Y12006D2*
X1486D1*
Y11094D1*
X574D1*
Y12006D1*
X649D1*
X14196Y7314D2*
X12898D1*
Y7534D1*
X12839Y7508D1*
X12753Y7495D1*
X11823Y6563D1*
X12237D1*
X12443Y6772D1*
X12447Y6815D1*
X12468Y6887D1*
X12506Y6951D1*
X12559Y7004D1*
X12623Y7042D1*
X12695Y7063D1*
X12770Y7064D1*
X12843Y7048D1*
X12899Y7018D1*
X12898Y7266D1*
X14196Y7269D1*
Y7313D1*
X4689Y12926D2*
Y14166D1*
X4612D1*
X4611Y12469D1*
X3689D1*
Y14165D1*
X1977Y14166D1*
X2049Y14106D1*
X2154Y13998D1*
X2241Y13877D1*
X2311Y13744D1*
X2362Y13603D1*
X2392Y13456D1*
X2401Y13318D1*
X2390Y13168D1*
X2358Y13022D1*
X2307Y12881D1*
X2235Y12749D1*
X2146Y12629D1*
X2041Y12522D1*
X1922Y12431D1*
X1791Y12358D1*
X1651Y12304D1*
X1505Y12270D1*
X1356Y12257D1*
X1206Y12266D1*
X1059Y12295D1*
X918Y12345D1*
X785Y12414D1*
X663Y12501D1*
X555Y12605D1*
X491Y12683D1*
X492Y10057D1*
X600Y10064D1*
X673Y10048D1*
X739Y10013D1*
X776Y9980D1*
X2410Y9981D1*
X2483Y9968D1*
X2559Y9919D1*
X3075Y9404D1*
X3094Y9461D1*
X3132Y9526D1*
X3184Y9579D1*
X3249Y9616D1*
X3321Y9637D1*
X3396Y9639D1*
X3469Y9622D1*
X3535Y9587D1*
X3590Y9537D1*
X3631Y9475D1*
X3656Y9404D1*
X3659Y9369D1*
X3818Y9210D1*
X4309Y9211D1*
X4296Y9270D1*
X4297Y9345D1*
X4318Y9417D1*
X4356Y9481D1*
X4377Y9503D1*
X4379Y10200D1*
Y10723D1*
X3955Y11146D1*
X3897Y11154D1*
X3826Y11178D1*
X3763Y11219D1*
X3713Y11275D1*
X3679Y11341D1*
X3662Y11414D1*
X3664Y11489D1*
X3684Y11561D1*
X3722Y11625D1*
X3775Y11678D1*
X3840Y11716D1*
X3911Y11736D1*
X3986Y11738D1*
X4059Y11721D1*
X4125Y11687D1*
X4181Y11637D1*
X4222Y11574D1*
X4246Y11503D1*
X4252Y11446D1*
X4634Y11064D1*
X4631Y11639D1*
X4374D1*
Y12201D1*
X4634D1*
Y12926D1*
X4688D1*
X3140Y6662D2*
X2666D1*
X3357Y5972D1*
X3793Y5971D1*
X3819Y5994D1*
X3883Y6032D1*
X3955Y6053D1*
X4030Y6054D1*
X4109Y6034D1*
X4128Y6095D1*
X4166Y6159D1*
X4219Y6212D1*
X4273Y6244D1*
X3853Y6245D1*
X3779Y6263D1*
X3803Y6253D1*
X3743Y6288D1*
X3140D1*
Y6663D1*
X4787Y7490D2*
Y7478D1*
X4867Y7500D1*
X5871Y7501D1*
X5982Y7610D1*
X4780Y7609D1*
X4787Y7565D1*
Y7490D1*
X7447Y8081D2*
X8370D1*
X8167Y8285D1*
X8110Y8290D1*
X8040Y8314D1*
X7977Y8355D1*
X7927Y8411D1*
X7892Y8477D1*
X7876Y8550D1*
X7877Y8625D1*
X7890Y8668D1*
X7245Y8669D1*
X6900Y8321D1*
X7120D1*
X7193Y8308D1*
X7269Y8259D1*
X7447Y8082D1*
X8660Y7148D2*
X8666Y7090D1*
X8657Y7016D1*
X8629Y6946D1*
X8605Y6914D1*
X8676Y6935D1*
X8751Y6937D1*
X8823Y6920D1*
X8898Y6878D1*
X8959Y6944D1*
X8989Y6962D1*
X8804Y7148D1*
X8658Y7149D1*
X8666Y7090D1*
X8657Y7016D1*
X8629Y6946D1*
X8605Y6914D1*
X8676Y6935D1*
X8751Y6937D1*
X8823Y6920D1*
X8898Y6878D1*
X8959Y6944D1*
X8989Y6962D1*
X3076Y9401D2*
X3094Y9461D1*
X3132Y9526D1*
X3184Y9579D1*
X3249Y9616D1*
X3321Y9637D1*
X3396Y9639D1*
X3469Y9622D1*
X3535Y9587D1*
X3590Y9537D1*
X3631Y9475D1*
X3656Y9404D1*
X3659Y9369D1*
X3076Y9401D2*
X3094Y9461D1*
X3132Y9526D1*
X3184Y9579D1*
X3249Y9616D1*
X3321Y9637D1*
X3396Y9639D1*
X3469Y9622D1*
X3535Y9587D1*
X3590Y9537D1*
X3631Y9475D1*
X3656Y9404D1*
X3659Y9369D1*
X3076Y9401D2*
X3094Y9461D1*
X3132Y9526D1*
X3184Y9579D1*
X3249Y9616D1*
X3321Y9637D1*
X3396Y9639D1*
X3469Y9622D1*
X3535Y9587D1*
X3590Y9537D1*
X3631Y9475D1*
X3656Y9404D1*
X3659Y9369D1*
X4816Y9490D2*
X4856Y9561D1*
X4909Y9614D1*
X4973Y9652D1*
X5045Y9673D1*
X5120Y9674D1*
X5193Y9658D1*
X5259Y9623D1*
X5315Y9573D1*
X5356Y9510D1*
X5380Y9439D1*
X5386Y9380D1*
X5377Y9306D1*
X5349Y9236D1*
X5305Y9176D1*
X5247Y9129D1*
X5179Y9098D1*
X5093Y9085D1*
X5174Y8979D1*
X5199Y9004D1*
X5263Y9042D1*
X5335Y9063D1*
X5410Y9064D1*
X5483Y9048D1*
X5549Y9013D1*
X5605Y8963D1*
X5646Y8900D1*
X5670Y8829D1*
X5676Y8770D1*
X5667Y8696D1*
X5639Y8626D1*
X5595Y8566D1*
X5537Y8519D1*
X5452Y8485D1*
X4816Y9490D2*
X4856Y9561D1*
X4909Y9614D1*
X4973Y9652D1*
X5045Y9673D1*
X5120Y9674D1*
X5193Y9658D1*
X5259Y9623D1*
X5315Y9573D1*
X5356Y9510D1*
X5380Y9439D1*
X5386Y9380D1*
X5377Y9306D1*
X5349Y9236D1*
X5305Y9176D1*
X5247Y9129D1*
X5179Y9098D1*
X5093Y9085D1*
X4816Y9490D2*
X4856Y9561D1*
X4909Y9614D1*
X4973Y9652D1*
X5045Y9673D1*
X5120Y9674D1*
X5193Y9658D1*
X5259Y9623D1*
X5315Y9573D1*
X5356Y9510D1*
X5380Y9439D1*
X5386Y9380D1*
X5377Y9306D1*
X5349Y9236D1*
X5305Y9176D1*
X5247Y9129D1*
X5179Y9098D1*
X5093Y9085D1*
X10123Y3664D2*
X10176Y3590D1*
X10200Y3519D1*
X10206Y3460D1*
X10197Y3386D1*
X10169Y3316D1*
X10125Y3256D1*
X10067Y3209D1*
X9999Y3178D1*
X9925Y3164D1*
X9850Y3170D1*
X9780Y3194D1*
X9717Y3235D1*
X9667Y3291D1*
X9632Y3357D1*
X9616Y3430D1*
X9617Y3505D1*
X9638Y3577D1*
X9676Y3641D1*
X9697Y3663D1*
X9399Y3883D2*
X9410Y3849D1*
X9416Y3790D1*
X9407Y3716D1*
X9379Y3646D1*
X9335Y3586D1*
X9277Y3539D1*
X9209Y3508D1*
X9135Y3494D1*
X9060Y3500D1*
X8990Y3524D1*
X8927Y3565D1*
X8877Y3621D1*
X8842Y3687D1*
X8826Y3760D1*
X8827Y3835D1*
X8840Y3878D1*
X8779Y3893D1*
X8722Y3941D1*
X5316Y6758D2*
X5257Y6709D1*
X5189Y6678D1*
X5115Y6664D1*
X5040Y6670D1*
X4970Y6694D1*
X4907Y6735D1*
X4857Y6791D1*
X4822Y6857D1*
X4808Y6919D1*
X4787Y6897D1*
Y6405D1*
X4770Y6332D1*
X4722Y6276D1*
X4651Y6247D1*
X4526Y6245D1*
X4569Y6221D1*
X4606Y6188D1*
X5541Y6189D1*
X6110Y6759D1*
X5315Y6756D1*
X5257Y6709D1*
X5189Y6678D1*
X5115Y6664D1*
X5040Y6670D1*
X4970Y6694D1*
X4907Y6735D1*
X4857Y6791D1*
X4822Y6857D1*
X4808Y6919D1*
X8164Y8286D2*
X8110Y8290D1*
X8040Y8314D1*
X7977Y8355D1*
X7927Y8411D1*
X7892Y8477D1*
X7876Y8550D1*
X7877Y8625D1*
X7890Y8668D1*
X11104Y8419D2*
X11129Y8444D1*
X11193Y8482D1*
X11265Y8503D1*
X11340Y8504D1*
X11413Y8488D1*
X11479Y8453D1*
X11535Y8403D1*
X11576Y8340D1*
X11600Y8269D1*
X11606Y8210D1*
X11597Y8136D1*
X11575Y8082D1*
X11634Y8079D1*
X11659Y8104D1*
X11723Y8142D1*
X11795Y8163D1*
X11870Y8164D1*
X11943Y8148D1*
X12009Y8113D1*
X12065Y8063D1*
X12106Y8000D1*
X12130Y7929D1*
X12136Y7870D1*
X12127Y7796D1*
X12099Y7726D1*
X12055Y7666D1*
X11997Y7619D1*
X11929Y7588D1*
X11855Y7574D1*
X11780Y7580D1*
X11710Y7604D1*
X11636Y7658D1*
X11963Y10474D2*
X12016Y10401D1*
X12040Y10330D1*
X12046Y10271D1*
X12037Y10196D1*
X12009Y10127D1*
X11965Y10067D1*
X11907Y10019D1*
X11839Y9988D1*
X11765Y9975D1*
X11690Y9981D1*
X11620Y10005D1*
X11557Y10046D1*
X11507Y10102D1*
X11472Y10168D1*
X11456Y10241D1*
X11459Y10322D1*
X11410Y10330D1*
X11340Y10354D1*
X11277Y10395D1*
X11227Y10451D1*
X11192Y10517D1*
X11176Y10590D1*
X11177Y10665D1*
X11198Y10737D1*
X11236Y10801D1*
X11257Y10823D1*
X13686Y11665D2*
X13687Y11705D1*
X13708Y11777D1*
X13746Y11841D1*
X13799Y11894D1*
X13863Y11932D1*
X13935Y11953D1*
X14010Y11954D1*
X14083Y11938D1*
X14149Y11903D1*
X14196Y11861D1*
X2323Y9559D2*
X776D1*
X727Y9519D1*
X659Y9488D1*
X585Y9474D1*
X510Y9480D1*
X490Y9487D1*
X492Y9335D1*
X525Y9343D1*
X600Y9344D1*
X673Y9328D1*
X739Y9293D1*
X776Y9260D1*
X2621Y9261D1*
X2321Y9560D1*
X10451Y11354D2*
X10418Y11375D1*
X10368Y11431D1*
X10333Y11497D1*
X10316Y11570D1*
Y11628D1*
X10295Y11624D1*
X10220Y11630D1*
X10150Y11654D1*
X10087Y11695D1*
X10037Y11751D1*
X10002Y11817D1*
X9986Y11890D1*
X9987Y11965D1*
X10008Y12037D1*
X10046Y12101D1*
X10099Y12154D1*
X10163Y12192D1*
X10235Y12213D1*
X10310Y12214D1*
X10383Y12198D1*
X10449Y12163D1*
X10486Y12130D1*
X5784Y8349D2*
X5809Y8374D1*
X5873Y8412D1*
X5945Y8433D1*
X6020Y8434D1*
X6093Y8418D1*
X6159Y8383D1*
X6215Y8333D1*
X6255Y8272D1*
X775Y8839D2*
X727Y8799D1*
X659Y8768D1*
X585Y8754D1*
X510Y8760D1*
X490Y8767D1*
X492Y8636D1*
X1782D1*
Y8245D1*
X2462Y7567D1*
X2652Y7376D1*
X2697Y7385D1*
X2647Y7441D1*
X2612Y7507D1*
X2596Y7580D1*
X2597Y7655D1*
X2618Y7727D1*
X2656Y7791D1*
X2709Y7844D1*
X2773Y7882D1*
X2845Y7903D1*
X2885Y7904D1*
X2951Y7969D1*
X3012Y8012D1*
X3087Y8030D1*
X3042Y8117D1*
X3026Y8190D1*
X3027Y8265D1*
X3048Y8337D1*
X3073Y8379D1*
X2612Y8840D1*
X776Y8839D1*
X727Y8799D1*
X659Y8768D1*
X585Y8754D1*
X510Y8760D1*
X490Y8767D1*
X492Y8636D1*
X12456Y7795D2*
X12457Y7835D1*
X12478Y7907D1*
X12516Y7971D1*
X12569Y8024D1*
X12633Y8062D1*
X12705Y8083D1*
X12780Y8084D1*
X12853Y8068D1*
X12901Y8043D1*
X10104Y5295D2*
X10129Y5319D1*
X10193Y5357D1*
X10265Y5378D1*
X10340Y5380D1*
X10413Y5363D1*
X10479Y5328D1*
X10535Y5278D1*
X10576Y5215D1*
X10600Y5145D1*
X10606Y5085D1*
X10597Y5011D1*
X10587Y4987D1*
X9402Y7579D2*
X9426Y7604D1*
X9491Y7642D1*
X9545Y7659D1*
X9260D1*
X9337Y7582D1*
X9402Y7581D1*
X9426Y7604D1*
X9491Y7642D1*
X9552Y7659D1*
X9663D1*
X9710Y7648D1*
X9777Y7613D1*
X9832Y7563D1*
X9873Y7500D1*
X9897Y7429D1*
X9903Y7370D1*
X9894Y7296D1*
X9876Y7250D1*
X10004Y7249D1*
X10029Y7274D1*
X10093Y7312D1*
X10165Y7333D1*
X10240Y7334D1*
X10313Y7318D1*
X10379Y7283D1*
X10435Y7233D1*
X10476Y7170D1*
X10500Y7099D1*
X10506Y7040D1*
X10497Y6966D1*
X10465Y6891D1*
X12446Y6775D2*
X12447Y6815D1*
X12468Y6887D1*
X12506Y6951D1*
X12559Y7004D1*
X12623Y7042D1*
X12695Y7063D1*
X12770Y7064D1*
X12843Y7048D1*
X12899Y7018D1*
X3950Y11150D2*
X3897Y11154D1*
X3826Y11178D1*
X3763Y11219D1*
X3713Y11275D1*
X3679Y11341D1*
X3662Y11414D1*
X3664Y11489D1*
X3684Y11561D1*
X3722Y11625D1*
X3775Y11678D1*
X3840Y11716D1*
X3911Y11736D1*
X3986Y11738D1*
X4059Y11721D1*
X4125Y11687D1*
X4181Y11637D1*
X4222Y11574D1*
X4246Y11503D1*
X4252Y11446D1*
X2711Y7376D2*
X2647Y7441D1*
X2612Y7507D1*
X2596Y7580D1*
X2597Y7655D1*
X2618Y7727D1*
X2656Y7791D1*
X2709Y7844D1*
X2773Y7882D1*
X2845Y7903D1*
X2885Y7904D1*
X1030Y5636D2*
D17*
Y4684D1*
X13650Y9266D2*
Y8314D1*
X12899Y8790D2*
X13650D1*
Y8266D2*
Y7314D1*
Y7266D2*
Y6314D1*
X6150Y13430D2*
Y12469D1*
X5689Y13430D2*
X6611D1*
X4150D2*
Y12469D1*
X3689Y13430D2*
X4611D1*
X5957Y11285D2*
Y10175D1*
X10682Y4986D2*
Y3876D1*
Y4431D2*
X11099D1*
X5957Y4986D2*
Y3876D1*
X5170Y4986D2*
Y3876D1*
X4753Y4431D2*
X5170D1*
X4374Y11920D2*
X4780D1*
X5520D2*
X5926D1*
X3576Y6646D2*
Y6288D1*
X3140Y6646D2*
X3576D1*
D20*
X1030Y6160D3*
Y7160D3*
Y8160D3*
Y5160D3*
Y4160D3*
Y3160D3*
D28*
X11990Y9550D3*
X12699D3*
D32*
X1030Y11550D3*
X1040Y10550D3*
D20*
X13650Y8790D3*
Y7790D3*
Y6790D3*
D25*
X4240Y6650D3*
Y7319D3*
D26*
X3280Y3140D3*
X3949D3*
X3410Y5190D3*
X4079D3*
D33*
X6150Y13430D3*
X5150D3*
X4150D3*
G36*
X5426Y11124D2*
X4914D1*
Y10336D1*
X5426D1*
Y11124D1*
G37*
G36*
X6213D2*
X5701D1*
Y10336D1*
X6213D1*
Y11124D1*
G37*
G36*
X7001D2*
X6489D1*
Y10336D1*
X7001D1*
Y11124D1*
G37*
G36*
X7788D2*
X7276D1*
Y10336D1*
X7788D1*
Y11124D1*
G37*
G36*
X8576D2*
X8064D1*
Y10336D1*
X8576D1*
Y11124D1*
G37*
G36*
X9363D2*
X8851D1*
Y10336D1*
X9363D1*
Y11124D1*
G37*
G36*
X10150D2*
X9639D1*
Y10336D1*
X10150D1*
Y11124D1*
G37*
G36*
X10938D2*
X10426D1*
Y10336D1*
X10938D1*
Y11124D1*
G37*
G36*
Y4824D2*
X10426D1*
Y4037D1*
X10938D1*
Y4824D1*
G37*
G36*
X10150D2*
X9639D1*
Y4037D1*
X10150D1*
Y4824D1*
G37*
G36*
X9363D2*
X8851D1*
Y4037D1*
X9363D1*
Y4824D1*
G37*
G36*
X8576D2*
X8064D1*
Y4037D1*
X8576D1*
Y4824D1*
G37*
G36*
X7788D2*
X7276D1*
Y4037D1*
X7788D1*
Y4824D1*
G37*
G36*
X7001D2*
X6489D1*
Y4037D1*
X7001D1*
Y4824D1*
G37*
G36*
X6213D2*
X5701D1*
Y4037D1*
X6213D1*
Y4824D1*
G37*
G36*
X5426D2*
X4914D1*
Y4037D1*
X5426D1*
Y4824D1*
G37*
D37*
X5150Y12560D3*
Y11280D3*
D38*
X4780Y11920D3*
X5520D3*
D42*
X2710Y7020D3*
X3576Y6646D3*
Y7394D3*
G36*
X8819Y12113D2*
Y12687D1*
X9607D1*
Y12113D1*
X8819D1*
G37*
G36*
X9538Y12786D2*
X8819D1*
Y13061D1*
X9026D1*
Y14026D1*
X9538D1*
Y12786D1*
G37*
G36*
X11683Y13061D2*
X11890D1*
Y12786D1*
X11172D1*
Y14026D1*
X11683D1*
Y13061D1*
G37*
G36*
X11890Y12687D2*
Y12113D1*
X11103D1*
Y12687D1*
X11890D1*
G37*
M02*
