M48
INCH
T01C0.013
T02C0.0256
T03C0.0335
T04C0.0354
T05C0.1181
%
T01
X+003360Y+012700
X+003880Y+012260
X+003956Y+011444
X+003660Y+010260
X+003366Y+009344
X+002570Y+010060
X+001430Y+010120
X+001420Y+009410
X+001400Y+008690
X+000570Y+009050
X+000570Y+009770
X+002170Y+011880
X+003610Y+013430
X+003520Y+014020
X+002970Y+014030
X+002400Y+014020
X+006220Y+012260
X+006700Y+013430
X+006750Y+014050
X+007330Y+014050
X+008000Y+014050
X+008580Y+014030
X+008550Y+013370
X+007910Y+011680
X+008040Y+010120
X+008330Y+009240
X+008170Y+008580
X+007850Y+008290
X+007190Y+007540
X+006950Y+007810
X+005990Y+008140
X+005690Y+008460
X+005380Y+008770
X+005370Y+009120
X+005090Y+009380
X+004590Y+009300
X+004720Y+008210
X+005100Y+006960
X+005110Y+006470
X+004400Y+005978
X+004000Y+005760
X+003570Y+006260
X+002140Y+005780
X+001820Y+006060
X+001250Y+005650
X+000830Y+005650
X+001860Y+003590
X+002140Y+002310
X+002600Y+000630
X+003360Y+000630
X+004160Y+000630
X+004920Y+000630
X+005750Y+000620
X+006510Y+000620
X+007390Y+002350
X+007390Y+003320
X+008060Y+003660
X+009120Y+003790
X+009060Y+003240
X+009910Y+003460
X+010570Y+003330
X+010570Y+002450
X+010620Y+000660
X+011380Y+000660
X+012180Y+000660
X+014060Y+002770
X+014040Y+004090
X+014040Y+005030
X+014040Y+005980
X+012740Y+006770
X+012810Y+007280
X+012750Y+007790
X+012700Y+008410
X+011840Y+007870
X+011300Y+007620
X+011310Y+008210
X+010490Y+007390
X+010210Y+007040
X+009607Y+007370
X+009560Y+006690
X+009140Y+006710
X+008720Y+006643
X+008370Y+007090
X+008740Y+006010
X+008330Y+005300
X+009540Y+005390
X+010310Y+005085
X+010550Y+006080
X+006700Y+005450
X+005200Y+003630
X+004580Y+003370
X+005250Y+002850
X+006060Y+002850
X+008520Y+001350
X+003560Y+004610
X+002890Y+007610
X+003320Y+008220
X+005480Y+010000
X+007030Y+009900
X+009530Y+009980
X+010611Y+011600
X+010280Y+011920
X+011470Y+010620
X+011750Y+010271
X+012150Y+012530
X+012130Y+013960
X+014040Y+012240
X+013980Y+011660
X+013970Y+010980
X+014060Y+009610
T02
X+009400Y+012321G85X+009400Y+012479
X+011309Y+012321G85X+011309Y+012479
T03
X+009282Y+013593
X+011428Y+013593
T04
X+001030Y+011550
X+001040Y+010550
T05
X+001340Y+001310
X+001340Y+013318
X+013348Y+013318
X+013348Y+001310
T00
M30
